<?xml version="1.0" encoding="utf-8"?>
<!-- Generator: Adobe Illustrator 19.1.0, SVG Export Plug-In . SVG Version: 6.00 Build 0)  -->
<svg version="1.1" xmlns="http://www.w3.org/2000/svg" xmlns:xlink="http://www.w3.org/1999/xlink" x="0px" y="0px" width="88px"
	 height="44px" viewBox="-6730 3380.1 88 44" style="enable-background:new -6730 3380.1 88 44;" xml:space="preserve">
<style type="text/css">
	.st0{display:none;}
	.st1{display:inline;}
	.st2{fill:#0088CC;}
	.st3{display:inline;fill:#0088CC;}
	.st4{fill:#282828;}
</style>
<g id="Layer_1" class="st0">
	<g class="st1">
		<path class="st2" d="M-6709.5,3402.4c0.6,0,1,0.4,1,1c0,0.3-0.2,0.6-0.4,0.8c0.3,0.1,0.6,0.2,0.9,0.2c1.4,0,2.5-1.1,2.5-2.5
			c0-1.4-1.1-2.5-2.5-2.5s-2.5,1.1-2.5,2.5c0,0.3,0.1,0.7,0.2,0.9C-6710.1,3402.6-6709.8,3402.4-6709.5,3402.4z"/>
		<path class="st2" d="M-6708,3394.9c-8.7,0-13,8-13,8s1.9,2.6,6,4.5c1.9,0.9,4,2,7,2c3,0,5.1-1.1,7-2c4-1.9,6-4.5,6-4.5
			S-6699.3,3394.9-6708,3394.9z M-6708,3398.4c1.9,0,3.5,1.6,3.5,3.5c0,1.9-1.6,3.5-3.5,3.5s-3.5-1.6-3.5-3.5
			C-6711.5,3400-6709.9,3398.4-6708,3398.4z M-6701.9,3405.6l-0.3,0.1c-1.7,0.8-3.4,1.7-5.8,1.7c-2.4,0-4.1-0.8-5.8-1.7l-0.3-0.2
			c-2-1-3.5-2.1-4.3-2.9c0.6-0.7,2.7-2.9,6-4c-0.7,0.9-1.1,2-1.1,3.3c0,3,2.5,5.5,5.5,5.5s5.5-2.5,5.5-5.5c0-1.2-0.4-2.3-1.1-3.3
			c3.4,1.2,5.4,3.4,6,4C-6698.4,3403.5-6699.9,3404.6-6701.9,3405.6z"/>
	</g>
	<path class="st3" d="M-6652.1,3402.1c-0.4,0.4-0.8,0.8-1.3,1.2c-0.4,0.4-1.7,1.5-3.6,2.4c0,0-0.1,0-0.1,0.1
		c-0.3,0.1-0.5,0.2-0.8,0.4c0,0,0,0,0,0c-0.7,0.3-1.5,0.5-2.4,0.7c-0.1,0-0.1,0-0.2,0c-0.2,0-0.3,0.1-0.5,0.1
		c-1.7,0.3-2.9,0.3-2.9,0.3s-1.2,0.1-2.9-0.3c-0.2,0-0.3-0.1-0.5-0.1c-0.1,0-0.1,0-0.2,0c-0.9-0.2-1.7-0.5-2.4-0.7c0,0,0,0,0,0
		c-0.3-0.1-0.6-0.2-0.8-0.4c0,0-0.1,0-0.1-0.1c-1.9-0.9-3.1-2-3.6-2.4c-0.5-0.5-0.9-0.9-1.3-1.2c-0.8,0.6,3.2,7.9,11.9,7.9
		S-6651.3,3402.8-6652.1,3402.1z"/>
</g>
<g id="Layer_2">
	<g>
		<path class="st4" d="M-6696.8,3403.1c-2.4,3.8-6.8,6.3-11.4,6.3s-9-2.5-11.4-6.3c-0.2-0.3-0.3-0.5-0.3-0.9s0.1-0.6,0.3-0.9
			c2.4-3.8,6.8-6.3,11.4-6.3s9,2.5,11.4,6.3c0.2,0.3,0.3,0.5,0.3,0.9S-6696.7,3402.8-6696.8,3403.1z M-6703.2,3397.9
			c0.5,0.8,0.8,1.8,0.8,2.8c0,3.1-2.6,5.6-5.8,5.6s-5.8-2.5-5.8-5.6c0-1,0.3-2,0.8-2.8c-2,1-3.7,2.6-5,4.4c2.2,3.3,5.8,5.6,10,5.6
			s7.8-2.3,10-5.6C-6699.5,3400.4-6701.2,3398.9-6703.2,3397.9z M-6708.2,3396.9c-2.2,0-4,1.7-4,3.8c0,0.3,0.3,0.6,0.6,0.6
			s0.6-0.3,0.6-0.6c0-1.4,1.2-2.6,2.7-2.6c0.3,0,0.6-0.3,0.6-0.6S-6707.9,3396.9-6708.2,3396.9z"/>
	</g>
	<g>
		<path class="st4" d="M-6652.6,3402.1c0.2,0.3,0.3,0.5,0.3,0.9s-0.1,0.6-0.3,0.9c-2.4,3.8-6.8,6.3-11.4,6.3c-4.6,0-9-2.5-11.4-6.3
			c-0.2-0.3-0.3-0.5-0.3-0.9s0.1-0.6,0.3-0.9c2.2,3.3,6.8,6.1,11.4,6.1C-6659.8,3408.2-6654.8,3405.4-6652.6,3402.1z"/>
	</g>
</g>
</svg>
