<?xml version="1.0" standalone="no"?>
<!DOCTYPE svg PUBLIC "-//W3C//DTD SVG 1.1//EN" "http://www.w3.org/Graphics/SVG/1.1/DTD/svg11.dtd" >
<svg xmlns="http://www.w3.org/2000/svg" xmlns:xlink="http://www.w3.org/1999/xlink" version="1.1">
<metadata></metadata>
<defs>
<font id="waffle_regularregular" horiz-adv-x="0" >
<font-face units-per-em="2048" ascent="1638" descent="-410" />
<missing-glyph horiz-adv-x="436" />
<glyph unicode="&#x3b;&#x3b;For&#x20;Education&#x20;Used&#x20;Only&#x3b;&#x3b;" horiz-adv-x="917" d="M821 690l-1 1q1 -3 5 -17.5t5 -22.5q25 -106 25 -165q0 -13 -2 -41q-8 -80 -44 -168q-2 -3 -5 -9.5t-4 -10.5q-2 -5 -6 -14t-6 -13q-43 -94 -100 -148q-58 -52 -117 -65l1 1q-36 -7 -118 -7h-13q-79 -2 -150 38v-1q-89 47 -156 144q-90 134 -94 268q-1 76 24 174 q7 24 22 54l-2 -2q1 4 4.5 11.5t5.5 11.5q1 1 2 3t1 3q3 11 9 19v-1q17 29 42 61q7 7 17 21q16 22 29 34q20 17 33 25l-1 -1l20 15q4 4 12.5 10.5t12.5 9.5q12 12 24 20q59 47 133 60h-1q17 4 44 4q61 0 124 -35q27 -19 32 -23q7 -7 23 -17l-1 1q3 -2 10 -5.5l9 -4.5 q30 -15 34 -18q10 -7 49 -56q29 -38 44 -68t25 -76zM768 469q2 61 -16 140q-1 6 -3.5 17t-3.5 15q-5 30 -9 44q-10 42 -49 94q-2 3 -6.5 9.5t-6.5 9.5v-1q-18 23 -19 24q-6 6 -23 14q-5 3 -15.5 8t-13.5 7h1q-13 8 -27 20q-15 14 -21 17q-4 2 -19 7q-8 4 -12 4q-2 0 -6 1.5 t-6 2.5q-18 6 -22 6q-9 0 -18 3l1 -1q-19 2 -35 -2h-2q-44 -9 -98 -51l-24 -18q-18 -13 -23 -16v1q-22 -15 -40 -31q-61 -56 -97.5 -144.5t-32.5 -193.5q1 -48 23 -102q15 -43 33 -73q61 -115 158 -162q56 -28 146 -28q44 0 80 8q37 8 80 53q27 29 61 104q6 14 20 39h-1 q43 84 46 175zM618 377l2 -2q8 -4 8 -17q0 -21 -19 -53t-39 -50q-43 -35 -116 -35q-91 0 -134 73.5t-43 188.5q0 98 32 162q22 45 62 78.5t88 33.5q118 -3 155 -98q4 -14 4 -19q0 -8 -5.5 -16.5t-17.5 -8.5t-19 10q-16 21 -21 27q-12 17 -20 26t-24.5 17t-38.5 8 q-60 0 -100 -61q-41 -64 -41 -168q0 -58 23 -129q11 -31 38 -51.5t62 -20.5q55 0 77 19q18 15 35 46v-1q1 2 1.5 4t1.5 4.5t1 3.5q3 11 5.5 16.5t9 11t16.5 5.5q5 0 17 -4z" />
<glyph unicode="&#x3b;&#x3b;Registered&#x3b;&#x3b;" horiz-adv-x="967" d="M433 979q58 4 130 -13q28 -8 69 -38q6 -4 17 -12t15 -10l-1 1q2 -1 5.5 -3.5t5.5 -3.5q6 -4 18 -11t17 -11l18 -11l5 -4h-1q4 -3 10 -7l10.5 -7t6.5 -5q10 -11 27 -37q1 -1 2.5 -4t3 -5t2.5 -3q79 -123 79 -296q0 -34 -3 -67q-5 -71 -58 -187q-2 -3 -5 -11.5t-4 -10.5v1 q-10 -27 -14 -34q-10 -15 -14 -20q-2 -2 -7.5 -9t-7.5 -11q-44 -65 -89 -93q-47 -29 -146 -44h1q-20 -4 -66 2h1q-3 0 -8.5 1t-10 1.5t-8.5 0.5l-40 9l-13 3q-76 23 -147 70q-22 17 -73 80q-35 44 -58 89q-45 93 -45 215q0 25 1 35t8 38q1 4 3 12.5t3 12.5l-1 -1q1 5 1 13 q0 20 2 25q6 18 9 26v-1q5 9 7 17q4 19 4 21q2 17 6 30v-1q1 3 25 51q1 2 3.5 7.5t4.5 7.5l-1 -1q16 31 35.5 53t52.5 52h-1l16 16q32 29 35 31q31 20 79 36v-1q19 7 19 5q7 0 8 1h-1l4 1q28 8 54 9zM287 159l2 -2zM206 752v1q-28 -45 -35 -72l-3 -17q-2 -22 -5 -29 q-1 -4 -4 -11t-4 -10q-2 -4 -5 -12q-11 -51 -12 -79q-2 -28 -2 -39q0 -135 77 -240q18 -24 55 -63h-1q11 -8 15 -14v1l4 -4l4 -7q4 -2 16 -7.5t18 -8.5h-1q2 -1 6.5 -3t7.5 -3l-1 1q2 0 4 -2q2 -1 3 -2q70 -30 106 -33l24 -3q32 -4 46 -3q12 3 14 4l20 5q5 1 19 1q9 0 12 1 q49 15 84 52q26 30 66 118q1 2 2.5 5.5t2.5 5.5v-1q52 117 48 245q-2 85 -32 159.5t-77 114.5q-8 7 -39 27l-6 2q-5 5 -15 10q-2 2 -13.5 9.5t-18.5 12.5q-27 19 -45 24q-3 1 -16 1h-14q-29 4 -32 5q-36 8 -51 7q-36 -2 -88 -29q-6 -3 -18 -9.5t-20 -9.5q-5 -5 -18.5 -17.5 t-19.5 -19.5q-43 -41 -58 -64zM640 565q0 -29 -21 -54.5t-51 -40.5q11 -13 26 -23q40 -40 53 -61q-18 -45 -44 -45q-11 0 -23.5 7.5t-16 11.5t-17.5 19v-1l-10 11h1q-42 38 -58 60q-49 -2 -87 -9q0 -5 -0.5 -19t-1.5 -19q0 -7 -1.5 -30.5t-2.5 -33.5q-1 0 -7.5 -4t-7.5 -5 l1 1q-21 -11 -40 -9q-28 21 -28 57q0 20 3 35v-2q0 3 1 11l2 15v-1q2 84 6 134q0 2 0.5 7.5t0.5 8.5q2 46 10 61q15 21 111 27q2 0 4 0.5t4 0.5q56 3 109 -16t73 -51q12 -21 12 -43zM547 549l7 9q-4 -2 -6 -4v-3zM409 528q102 0 139 26l2 4q0 1 1 3q1 5 2 4q-6 10 -32.5 19 t-53.5 10q-17 1 -51 -3q-8 -2 -16 -2q0 -26 -4 -61h13z" />
<glyph unicode="&#x3b;&#x3b;Trademark&#x3b;&#x3b;" horiz-adv-x="616" d="M321 985q31 20 52 3v1q2 -1 6.5 -6t8.5 -8q4 -4 24 -16q4 -6 7 -7q8 -7 9 -7q2 2 4.5 3.5t4.5 3.5q14 12 18 16l6 6q48 57 88 19q14 -13 18 -57q0 -6 1 -8v-1v1v-1q1 -12 5 -42q2 -16 2 -22q1 -6 5 -25q8 -28 5 -48q-9 -27 -41.5 -31.5t-43.5 20.5q-4 9 -6 32q0 1 -0.5 4 t-0.5 4v-1q-5 31 -8 59q-24 -28 -56 -30q-15 4 -31 14q0 -2 1 -8t1 -8q2 -30 2 -41q1 -42 -31 -55.5t-54 27.5q-3 28 -3 84q0 62 -4 89q0 22 11 36zM200 916h-4q0 -31 2 -47q2 -30 2 -47q0 -24 -4 -44q-26 -19 -55 -16q-27 19 -25 64v7v7q-1 6 -2 15t-1 12q-3 39 -3 41h-1 q0 1 1 3q-40 -11 -54 -5h1q-22 7 -27.5 31.5t11.5 37.5q25 18 113 26q1 0 3 0.5t3 0.5q22 2 41 2q74 0 74 -46q1 -35 -23 -42.5t-52 0.5z" />
<glyph unicode="&#x3b;&#x3b;Multiply&#x3b;&#x3b;" horiz-adv-x="555" d="M98 675l11 -6q41 -38 101 -105q9 -9 19 -20.5t18.5 -21t19.5 -20.5l28 29q45 43 87 87l5 8q40 53 82 41q3 -2 22 -23q3 -29 -41 -70q-4 -5 -5 -6v1q-6 -6 -16 -17t-18.5 -20t-16.5 -17v1q-9 -9 -33 -33.5t-40 -41.5q30 -37 101 -104l11 -10q1 -1 4 -3l-2 1q38 -32 44 -52 q-1 -15 -14.5 -31.5t-21.5 -18.5q-26 -6 -66 40v-1l-3 3h1q-64 57 -114 115q-36 -33 -118 -115l-5 -4v1q-33 -38 -56 -41q-14 0 -28 12t-16 24q-2 23 37 55q6 6 10 8q18 19 82 81q7 7 18.5 18t20.5 20q-6 7 -39 45q-28 35 -61 69l-9 8q-16 16 -23 24t-17 27t-13 41 q23 26 54 22z" />
<glyph unicode="&#x3b;&#x3b;Divide&#x3b;&#x3b;" horiz-adv-x="645" d="M367 624h-1q-44 -20 -115 23q-18 28 -18 55q0 53 36 76v-1q22 15 49 15q45 0 76 -35.5t16 -77.5q-2 -7 -20 -29l-1 -1q-1 -1 -2 -3l-1 -1l1 1q-10 -16 -20 -22zM600 524v-2q5 -20 -6 -32.5t-36.5 -17.5t-45 -6.5t-47.5 -1.5h-24q-18 -1 -100 2q-50 2 -69 2q-30 0 -46 1 q-34 2 -50 2q-11 0 -31 -2q7 0 -1 -1q-3 0 -10 -1q-9 -1 -11 -1h1q-33 -8 -62 0q-24 11 -19 55q48 28 114 28q29 0 44 -1q13 -1 41 -1h55q127 0 247 3q47 0 56 -26zM394 391l3 -2q13 -12 17 -38.5t-1 -37.5q-8 -32 -39.5 -56t-65.5 -21h1q-34 2 -55 23.5t-20 58.5 q0 67 81 79h-1q12 2 33 2q34 0 47 -8z" />
<glyph unicode="&#x2018;&#x2018;" horiz-adv-x="369" d="M142 1017l1 -5q0 -73 -2 -110q0 -2 -0.5 -7.5t-0.5 -7.5q0 -19 -1 -31.5t-3.5 -29.5t-7 -25.5t-12.5 -15.5t-20.5 -5t-28.5 12q-9 27 -9 62q0 19 2 45q0 1 0.5 4t0.5 5v30q0 75 21 99q19 10 37 3.5t23 -23.5zM284 1017l1 -5q0 -73 -2 -110q0 -2 -0.5 -7.5t-0.5 -7.5 q0 -20 -1 -32t-3 -29t-7 -25.5t-13 -16t-20.5 -5.5t-29.5 12q-7 22 -7 56q0 6 0.5 18.5t0.5 19.5q0 4 0.5 12t0.5 11v30q0 75 22 99q18 10 36 3.5t23 -23.5z" />
<glyph unicode="&#x2019;&#x2019;" horiz-adv-x="437" d="M178 1017l1 -5q0 -73 -2 -110q0 -2 -0.5 -7.5t-0.5 -7.5q0 -19 -1 -31.5t-3.5 -29.5t-7 -25.5t-12.5 -15.5t-20.5 -5t-28.5 12q-9 27 -9 62q0 19 2 45q0 1 0.5 4t0.5 5v30q0 75 21 99q19 10 37 3.5t23 -23.5zM340 1017l1 -5q0 -73 -2 -110q0 -2 -0.5 -7.5t-0.5 -7.5 q0 -20 -1 -32t-3 -29t-7 -25.5t-13 -16t-20.5 -5.5t-29.5 12q-7 22 -7 56q0 6 0.5 18.5t0.5 19.5q0 4 0.5 12t0.5 11v30q0 75 22 99q18 10 36 3.5t23 -23.5z" />
<glyph unicode="&#xe24;&#xe32;" horiz-adv-x="1202" d="M622 501q2 -40 4 -63q6 -72 6 -109q0 -33 -3 -61q-14 -148 -14 -313q0 -2 0.5 -6.5t0.5 -7.5v-13q0 -16 -2 -46q-2 -18 -2 -24v-15q0 -24 -8 -39.5t-34 -20.5q-20 0 -31 13t-11 31q0 9 1 13q0 2 0.5 5.5t0.5 6.5q0 26 1 38q2 22 2 32q0 5 -0.5 14t-0.5 13v22q0 140 8 260 q1 8 2.5 20.5t1.5 17.5q4 36 4 55q0 51 -5 119q-2 36 -3 53q-6 127 -27 195t-84 95q-52 20 -98 20q-79 0 -132 -35.5t-53 -88.5q0 -14 13 -42q2 -4 6 -14l6 -14q16 -44 16 -108q0 -49 -9 -119q-11 -90 -11 -126q0 -179 51 -179q16 0 34 5h-1q18 6 31 6q28 0 32 -27 q0 -30 -27.5 -46t-64.5 -16q-137 0 -137 260q0 32 3 60q2 16 5.5 47.5t4.5 44.5q0 4 1 12t1 12q5 65 5 76q0 39 -12 72v-1q-1 5 -8 22q-22 46 -22 79q0 10 2 20q18 90 97 135.5t180 45.5q40 0 113 -23q104 -36 138 -136q20 -59 28 -210q1 -15 1 -17zM1070 -234q0 -1 -3 1.5 l-9 7.5l5 -3q5 -4 7 -6zM1095 -209l11 18q2 50 2 64q0 7 -0.5 19t-0.5 18q-1 16 -1 51q0 37 2 64q3 49 3 167q0 93 1 138q0 2 3 47q4 41 3 66v18q0 76 -1.5 117.5t-12.5 99.5t-32 92q-19 30 -40 44q-60 39 -148 39q-91 0 -154 -36q-83 -47 -42 -113q18 1 32 6.5t19 10 t15 14.5q15 15 22 19l-1 -1q30 14 68 19q16 3 33 3q40 0 73.5 -13t47.5 -36q15 -23 23 -59.5t9.5 -63t2.5 -77.5q0 -42 1 -60q0 -53 -1 -80q-2 -40 -2 -60v-205q-3 -159 -4 -206q0 -39 1 -44q2 -12 3 -28v-7v-6v-8t1 -7.5t2.5 -9t4.5 -8.5t8 -10.5t12 -11.5q-4 4 -8 10 q20 -23 38 3v-2q2 3 7 5z" />
<glyph unicode="&#xe26;&#xe32;" horiz-adv-x="1231" d="M616 122q0 -18 -4 -40q-3 -19 -3 -38v-38q2 -28 2 -41q0 -6 -0.5 -20.5t-0.5 -21.5v-42q0 -4 0.5 -11.5t0.5 -11.5q1 -8 1 -30q0 -52 -38 -52q-50 0 -47 102v4q0 6 0.5 17t0.5 17v23q0 32 -1 49q-2 34 -2 54q0 31 4 97q5 88 5 109q0 32 -4 92q-4 58 -4 89q0 41 1 61 q2 40 2 59q0 126 -54.5 186t-174.5 60q-57 0 -129 -22q-17 -9 -32.5 -33.5t-15.5 -44.5q0 -21 36 -57h-1q36 -34 46 -64q6 -27 6 -68q0 -11 -3 -95q0 -12 -0.5 -33.5t-0.5 -31.5q0 -64 1 -97q0 -16 0.5 -48.5t0.5 -49.5q0 -32 -3.5 -56t-13.5 -46.5t-30 -34.5t-50 -12 q-36 0 -66 21t-30 47q0 20 10.5 28.5t23.5 8.5q11 0 35 -15q16 -11 28 -11q11 0 11 52q0 42 -1 63q0 10 -0.5 30t-0.5 29q0 46 2 128t2 120q0 30 -5 49q-2 6 -15 19q-8 7 -15 15q-49 57 -49 117q0 35 27.5 77.5t73.5 64.5q67 30 161 30q169 0 239.5 -83t70.5 -245 q0 -9 -0.5 -29t-0.5 -29q-1 -19 -1 -58q0 -58 3 -118l3 -120q0 -48 -1 -71zM1080 -234q0 -1 -3 1.5l-9 7.5l5 -3q5 -4 7 -6zM1105 -209l11 18q2 50 2 64q0 7 -0.5 19t-0.5 18q-1 16 -1 51q0 37 2 64q3 49 3 167q0 93 1 138q0 2 3 47q4 41 3 66v18q0 76 -1.5 117.5 t-12.5 99.5t-32 92q-19 30 -40 44q-60 39 -148 39q-91 0 -154 -36q-83 -47 -42 -113q18 1 32 6.5t19 10t15 14.5q15 15 22 19l-1 -1q30 14 68 19q17 3 33 3q40 0 73.5 -13t47.5 -36q15 -23 23 -59.5t9.5 -63t2.5 -77.5q0 -42 1 -60q0 -53 -1 -80q-2 -40 -2 -60v-205 q-3 -159 -4 -206q0 -39 1 -44q2 -12 3 -28v-7v-6v-8t1 -7.5t2.5 -9t4.5 -8.5t8 -10.5t12 -11.5q-4 4 -8 10q20 -23 38 3v-2q2 3 7 5z" />
<glyph unicode="&#xd;" horiz-adv-x="579" />
<glyph unicode=" "  horiz-adv-x="436" />
<glyph unicode="&#x09;" horiz-adv-x="436" />
<glyph unicode="&#xa0;" horiz-adv-x="436" />
<glyph unicode="!" horiz-adv-x="326" d="M151 1002q10 1 22 -1q11 -3 19 -9q16 -16 10 -55v1q0 -2 -1 -9l-2 -11v6q-1 -17 -1 -49v-50q0 -61 -1 -91q-1 -24 -1 -71v-119q0 -37 -2 -111l-1 -15l-1 -15q0 -59 4 -116q-3 -40 -61 -34q-22 19 -22 53v9q-3 82 -3 178v103q-1 65 3 195q1 17 2 57t1 57q1 25 7 54 q0 2 1 7t2 7v-1q7 26 25 30zM159 159h2q1 0 2 0.5t2 0.5q29 -1 59 -18l2 -2q2 -2 3 -2l-3 1q29 -21 25 -62q-4 -39 -41 -63t-80 -18q-26 8 -38 21q-9 10 -15 32.5t-4 39.5q1 22 24 47q25 23 62 23z" />
<glyph unicode="&#x22;" horiz-adv-x="442" d="M163 1017l1 -5q0 -73 -2 -110q0 -2 -0.5 -7.5t-0.5 -7.5q0 -19 -1 -31.5t-3.5 -29.5t-7 -25.5t-12.5 -15.5t-20.5 -5t-28.5 12q-9 23 -9 62q0 7 0.5 23t0.5 22q0 1 0.5 4t0.5 5v30q0 75 22 99q19 10 37 3.5t23 -23.5zM345 1017l1 -5q0 -73 -2 -110q0 -2 -0.5 -7.5 t-0.5 -7.5q0 -20 -1 -32t-3 -29t-7 -25.5t-13 -16t-20.5 -5.5t-29.5 12q-7 22 -7 56q0 6 0.5 18.5t0.5 19.5q0 4 0.5 12t0.5 11v30q0 75 21 99q19 10 37 3.5t23 -23.5z" />
<glyph unicode="#" horiz-adv-x="1030" d="M444 769q-5 -17 -13 -47t-9 -35q29 -1 80 -2.5t74 -1.5q19 -1 63.5 -3t74.5 -3q17 44 41 162q7 28 26 101q16 10 37 9t31 -12q16 -20 0 -70q-2 -5 -5 -17q-6 -28 -10 -43h1q-24 -104 -34 -136q26 -3 79 -3h34q36 0 51 -1h-1q24 0 32 -7q1 -2 1 -4q19 -39 -16 -54 q-20 -16 -78 -18q-55 0 -128 7q-7 -28 -20 -82.5t-19 -76.5q-17 -73 -23 -97q14 -1 40 -3q5 0 15 -1t16 -1h22q33 2 54 -6q20 -14 20.5 -36.5t-20.5 -36.5q-20 -4 -55 -4q-36 0 -69 3q-26 3 -48 3q-4 -10 -10 -29.5t-7 -22.5q-2 -4 -9.5 -27t-12.5 -34q-2 -3 -4.5 -10.5 l-3.5 -10.5q-1 -2 -14 -39v1q-13 -50 -38 -65q-10 -9 -26 -4t-25 26q-7 36 28 120l6 15h-1q25 62 30 82q-59 5 -183 5q-106 0 -127 1q-7 -16 -30 -89q-20 -68 -32 -97v1q-2 -5 -6 -13q-17 -41 -42 -54q-28 0 -43 18q-9 30 10 64h-1l7 15q2 7 21 68q15 57 28 91h-42 q-27 0 -41.5 1t-32 5t-24.5 14t-5 26q3 19 19.5 29t36.5 11q19 0 59 -4q27 -3 54 -3q47 134 84 261q-18 2 -56 4q-11 1 -32 1q-25 0 -37.5 1t-29 4.5t-23.5 13.5t-6 26q0 16 10.5 28.5t32.5 11.5q67 -7 164 -9q6 20 15 55t13 48q30 120 50 171q71 21 71 -35q0 -13 -10 -50 l1 2q-1 -3 -3 -7t-2 -6q-14 -60 -25 -95zM403 617l-19 -15q2 0 7 0.5t8 0.5q2 8 4 14zM455 604q-10 0 -28.5 -0.5t-27.5 -0.5q-13 -45 -43 -138q-29 -87 -38 -121q57 -3 167 -3q115 0 143 -1q9 24 27 115l3 17q3 13 6.5 28.5t8.5 34t7 28.5q3 10 5 16.5t4 14.5q-24 1 -84 5 q-85 5 -150 5z" />
<glyph unicode="$" horiz-adv-x="672" d="M488 507q44 -35 73.5 -89.5t29.5 -121.5q0 -88 -34 -167q-49 -102 -210 -106q0 -49 3 -96q-3 -35 -42 -35q-15 0 -24.5 9.5t-13 30t-4.5 35t-1 42.5v16q-32 4 -53 14h1q-28 12 -84.5 66.5t-56.5 91.5q0 16 12.5 29.5t26.5 13.5q19 0 43 -37q3 -5 7 -11l-1 2q1 -1 4.5 -6 t5.5 -8q16 -21 25 -31t27.5 -23.5t43.5 -19t60 -5.5q78 0 116.5 19.5t49.5 71.5q16 56 16 95q0 38 -12.5 70.5t-28.5 53.5t-48 44t-52 34t-60 32q-61 31 -72 37q-3 2 -14.5 8t-14.5 8q-39 18 -63 37q-28 25 -46.5 70.5t-18.5 89.5q0 30 10 69t22 62h-1q17 32 60 57.5 t96 32.5q0 24 1 38.5t5 37t14.5 34t27.5 11.5q19 0 29.5 -13t10.5 -29t-3 -24l-3 -12q-1 -21 -1 -46q89 -19 154 -66q27 -20 51 -54.5t24 -60.5q0 -45 -41 -45q-17 0 -28.5 13t-25.5 39h1q-21 37 -28 42h1q-27 22 -70.5 37t-82.5 15q-1 0 -4 -0.5t-5 -0.5h-6 q-24 -2 -57.5 -13t-44.5 -29q-23 -41 -23 -94q2 -75 36 -102q13 -10 55 -31h-1l18 -9q1 -1 6 -2.5t8 -3.5l-1 1q74 -39 133 -73q17 -12 22 -13q7 -4 18 -10.5t19 -11.5t14 -10z" />
<glyph unicode="%" horiz-adv-x="846" d="M731 972l-1 -7q-5 -15 -36 -70q-12 -19 -24 -42q-46 -94 -124 -215q-2 -2 -5.5 -8t-4.5 -8h1q-8 -12 -22 -36q-16 -31 -52 -84h1q-46 -73 -58 -95q-16 -31 -39 -61v1q-11 -18 -40 -64q-24 -47 -44 -81q-44 -76 -64 -117l-6 -12q-7 -17 -11 -24.5t-17 -17.5t-32 -12 q-11 4 -16.5 7.5t-10.5 12.5t-5 22q18 62 68 143v-1q9 15 25 44.5t19 35.5q42 74 65 110q74 116 95 152v-1q28 51 63 109q9 15 27.5 45t27.5 46q4 6 11 16t8 12q9 11 17 26q5 7 26 52q14 34 24 53l14 21q3 5 9.5 14t8.5 12l-1 -1l8 17q18 35 36 41q24 6 41.5 -2.5 t17.5 -32.5zM256 999q26 0 59.5 -18t50.5 -37q24 -27 37 -71.5t8 -93.5q-7 -69 -58 -124t-124 -53q-23 1 -56.5 9.5t-48.5 18.5q-45 28 -64 108q0 2 -1 6t-1 6l-4 16v-3q-5 35 7 78q14 53 68 103q29 27 65 41h1q34 14 61 14zM257 922q-26 1 -56.5 -21t-48.5 -49v1 q-17 -26 -17 -68q0 -34 11.5 -61t31.5 -34q4 -2 21 -4q2 -1 10 -1q13 -3 24 -3q44 0 69 37t25 87q0 52 -28 92l2 -3q-27 27 -44 27zM653 446q26 0 58.5 -18t50.5 -37q24 -27 37 -72t9 -94q-7 -70 -57.5 -124.5t-123.5 -52.5q-22 0 -56.5 9t-50.5 18q-46 29 -63 108l-3 14 l1 -1l-4 16v-2q-6 33 7 78q15 52 68 103q27 26 61 38h1q1 1 4 2t5 2q30 13 56 13zM653 368q-25 -1 -55 -23t-49 -47v1q-17 -24 -17 -69q0 -30 12 -57.5t30 -36.5q2 0 12 -2q2 0 9.5 -2t9.5 -2l-1 1q15 -3 25 -3q44 0 69 37t25 87q0 54 -25 89l-9 6q-24 20 -36 21z" />
<glyph unicode="&#x26;" horiz-adv-x="744" d="M415 365q38 -54 84 -100q2 2 4.5 7.5t4.5 8.5q27 49 56 49q15 0 26 -10t11 -28q0 -27 -52 -87q20 -27 47 -54q45 -49 64 -82l1 -10q0 -11 -11.5 -24.5t-27.5 -13.5q-27 0 -49 33q-2 3 -11 10q-11 7 -19 18q-6 6 -17 19t-15 18q-14 20 -17 23q-3 -2 -6 -5t-6.5 -7t-5.5 -6 q-39 -43 -76 -60q-9 -2 -25 -12q-58 -29 -89 -29q-38 0 -81 25t-62 57q-41 74 -41 177q0 115 48 234v-1q1 3 5 11l5 10q6 13 6 15q-3 6 -17 24l-12 18v-1q-56 86 -56 170q0 94 58.5 148.5t121.5 54.5q58 0 91.5 -33t33.5 -93q0 -39 -24 -89l-8 -16v1q-26 -59 -70 -130 q-29 -41 -29 -52l27 -27l10 -11q46 -52 123 -150zM294 804v1q10 18 10 41q0 40 -31 40q-40 0 -76 -35t-36 -85q0 -26 9 -48q0 -2 3 -8.5t3 -8.5v2q11 -36 31 -69q60 104 87 170zM288 391q45 -66 154 -187l2 -2q-23 -31 -55 -50q-2 -1 -10 -6q-3 -2 -5 -3q-66 -39 -90 -39 q-50 0 -76 52t-26 126q0 64 37 171q1 2 2 6.5t2 6.5q4 -6 6.5 -8.5t3 -2.5t3 -2.5l7.5 -7.5q31 -36 45 -54z" />
<glyph unicode="'" horiz-adv-x="291" d="M181 1017l1 -5q0 -73 -2 -110q0 -2 -0.5 -7.5t-0.5 -7.5q0 -19 -1 -31.5t-3.5 -29.5t-7 -25.5t-12.5 -15.5t-20.5 -5t-28.5 12q-9 23 -9 62q0 19 2 45v9v30q0 75 22 99q19 10 37 3.5t23 -23.5z" />
<glyph unicode="(" horiz-adv-x="306" d="M228 -92q-25 0 -46 19q-30 20 -63 96q-10 22 -10 23q-45 99 -48 278q-4 52 -4 83q0 44 12 116q8 46 9 67q18 181 76 341v-2q16 55 43 106.5t53 51.5q18 0 29.5 -9.5t11.5 -26.5q-11 -34 -31 -75v1q-30 -61 -40 -99q-36 -120 -49 -211q-2 -16 -4 -33q-4 -35 -7 -49 q-19 -110 -19 -185q0 -319 108 -427h-2q16 -12 16 -29q0 -36 -35 -36z" />
<glyph unicode=")" horiz-adv-x="323" d="M112 -69l1 1q-23 -19 -47 -19q-34 0 -34 35q0 16 11 27l4 4q106 98 106 426q0 89 -23 229q-4 26 -5 38q-13 84 -50 211q-10 34 -39 97q-24 55 -33 77q0 15 12 25t29 10q6 0 11 -2t10.5 -6.5t9.5 -8.5t9 -11.5t7.5 -12t7.5 -13t7 -11.5q83 -169 111 -432q1 -8 7 -51 q13 -76 13 -135q0 -40 -6 -114q-2 -22 -3 -32q-12 -142 -43 -212q-2 -4 -7 -18v2q-31 -79 -66 -104z" />
<glyph unicode="*" horiz-adv-x="503" d="M221 994l40 -14q0 18 -15 19l2 1h3q35 0 35 -50q26 31 61 31q22 0 28 -11h2q2 0 6.5 0.5t10.5 0.5q-9 -47 -40 -76q58 0 58 -39q0 -19 -21 -30q12 6 12 -4q-27 -10 -59 -12l3 -3q10 -13 14 -16q7 -7 9 -8q26 -18 28 -48q-9 -16 -20 -22q-3 -3 -7 -13q-34 5 -52.5 17.5 t-35.5 33.5l-2 2q-4 -50 -39 -50q-24 0 -32 13t-9 39l-1 -1q-35 -45 -70 -49l-23 21q0 -10 7 -12q-20 5 -20 28q0 18 33 58q-16 0 -45 8q0 10 -3 19q-5 10 -5 17q0 34 71 40q-15 13 -22 19.5t-14.5 19t-7.5 25.5q0 18 11.5 30t26.5 12q26 0 66 -46q4 34 16 50z" />
<glyph unicode="+" horiz-adv-x="653" d="M288 698q-1 8 7 19.5t21.5 15t32.5 -15.5l8 -18q11 -26 14.5 -86t7.5 -80q13 0 57 2q4 0 14 0.5t16 0.5q1 0 6.5 0.5t9.5 0.5t14 0.5t15 0.5q62 0 72 -26q9 -24 -3.5 -41t-37.5 -17q-55 0 -82 -1q-14 -1 -49 -1h-31q0 -59 2 -95q0 -9 3 -23q4 -36 2 -46q-4 -9 -16.5 -21 t-20.5 -13q-33 -2 -44 28q-8 116 -9 166q-20 2 -58 2q-25 0 -79 -2q-9 0 -31.5 -0.5t-32.5 -0.5q-20 -3 -29 11.5t-9 27.5q1 12 7 20t19 12t20 5t24 3q9 0 13 1q33 4 85 4q7 0 20.5 -0.5t20.5 -0.5q9 0 15.5 -0.5t13.5 -0.5q0 11 -7 58q-5 37 -5 66q0 30 4 45z" />
<glyph unicode="," horiz-adv-x="196" d="M39 -36l-1 -5q0 22 13 61q11 34 12 59q2 21 -3 41q-2 1 -3 3q-14 16 -18.5 23.5t-3 21t18.5 25.5q29 19 53.5 -4.5t32.5 -55.5q6 -21 6 -47q0 -42 -13.5 -85t-30.5 -60l3 4q-7 -6 -22.5 -5.5t-30.5 8t-13 16.5z" />
<glyph unicode="-" horiz-adv-x="609" d="M521 533h1q16 0 24 -17t2.5 -36t-22.5 -24q-59 -10 -170 -10h-95q-2 0 -7.5 -0.5t-9.5 -0.5q-44 -2 -84 -2q-46 0 -64 3q-36 3 -47 38q0 19 3.5 25t20.5 12h-1q21 6 67 6q24 0 60 -2q5 0 15.5 -0.5t12.5 -0.5q70 0 206 6q14 0 43.5 1t44.5 2z" />
<glyph unicode="." horiz-adv-x="230" d="M193 146l1 -3q17 -45 -14 -85.5t-78 -40.5q-13 0 -36 9q-23 11 -35.5 37.5t-7.5 51.5q7 37 44.5 62.5t75.5 9.5q15 -5 27 -15q19 -19 23 -26z" />
<glyph unicode="/" horiz-adv-x="433" d="M475 1112v1q-16 -52 -62 -155q-16 -32 -28 -60l1 1q-36 -114 -118 -330q-4 -8 -11 -26t-11 -26q-31 -71 -43 -108t-38 -99q-7 -15 -10 -25q-5 -15 -8 -23q-1 -3 -2.5 -8.5t-2.5 -8.5q-4 -16 -18 -45q-18 -48 -21 -58v1q-16 -60 -33 -110q-2 -5 -3 -8l-7 -19v-2 q-1 -2 -1 -3q-1 -2 -4 -11.5t-4 -13t-4.5 -12.5t-6 -12.5t-7 -10t-9 -9t-10 -5t-12.5 -2.5h-7q-9 0 -13 1t-9 6t-10 16q-1 33 20 92q12 34 35 104q19 61 40 120l35 85q5 11 12.5 32.5t10.5 28.5v-1l15 42q24 67 41 106q34 74 88 229q4 12 21.5 62t30 82.5t26.5 64.5 q6 16 10 24v-1q2 4 8.5 21t11.5 27q3 5 6 13q1 1 4 9.5t4 10.5t4 9.5t5 10.5t5.5 8.5t6.5 8t7 5.5t8 5q27 8 44.5 -5.5t12.5 -28.5z" />
<glyph unicode="0" horiz-adv-x="715" d="M463 43l-18 -7l-1 -1l11 4q-10 -8 -51 -15t-78 -6q-39 3 -96 29h1q-50 25 -79.5 55t-47.5 79q-23 64 -30 172q-1 8 -1 30t2 64q1 13 1 37v64q0 8 -0.5 23.5t-0.5 22.5q0 32 3 62v10q10 135 34 180v-1q3 7 7 13t8.5 12.5t6.5 9.5v-1q4 6 7 9l-2 -2l3 3t2 3q25 32 37 40 l26 15q8 5 49 20q35 13 86 13q75 0 136 -33v1q40 -21 66 -50q21 -23 30 -41.5t16 -53.5q2 -10 3 -11l12 -45q7 -41 11 -119q7 -109 7 -195q0 -91 -9 -173q-14 -151 -156 -221zM336 905h-2q-3 -1 -10.5 -1t-9.5 -1q-21 -3 -39 -8h1q-24 -9 -58 -43h1q-6 -4 -9 -7 q-21 -21 -24 -29q-10 -16 -13 -39q0 -2 -1.5 -9.5t-2.5 -11.5q-7 -28 -11 -79q0 -2 -0.5 -6t-0.5 -5q0 -13 -1 -17v1q-3 -32 -3 -56q0 -7 0.5 -20.5t0.5 -20.5v-21.5v-27v-24.5q0 -8 -0.5 -24t-0.5 -24q0 -99 15 -181q1 -12 11 -34l6 -14q12 -32 32 -48.5t60 -34.5 q40 -19 70 -19q9 0 25 2q56 5 82 27q48 36 61 59v-1q17 35 22 120q5 70 5 126q0 25 -2 71q-1 15 -1 42q0 22 -1 38q-2 25 -3 45v19q-2 31 -13 95l-5 29q-6 33 -26 58t-44 38q-23 10 -28 13q-52 24 -83 23z" />
<glyph unicode="1" horiz-adv-x="595" d="M484 60l-1 2q3 -15 -6 -30.5t-22 -21.5q-19 -8 -53 -8q-15 0 -45 2q-28 2 -38 2q-49 1 -97 5q-5 0 -15.5 0.5t-15.5 1.5h-7q-15 1 -24.5 2.5t-21 5.5t-15.5 10.5t-7 17t4 25.5q9 22 48 22q16 0 56 -4q36 -4 45 -4v9q0 46 -1 70q-2 50 -2 75q0 29 1 43q0 5 1 22.5t2 26.5 q0 12 2 30q2 20 2 26q1 68 5 207v15q1 44 -3 139q-3 66 -3 83q-5 -6 -7 -10v1l-9 -12q-17 -20 -43 -41l2 1q-5 -6 -17 -16q-3 -3 -7 -8t-6 -8q-10 -12 -16.5 -18t-18 -11t-26.5 -4q-15 0 -24.5 10.5t-9.5 29.5q8 27 36 49q1 1 4 3.5t5 4.5q12 11 24 25q4 3 17 19l16 16v-3 q57 75 92 98q8 7 23.5 7.5t26.5 -8.5q21 -37 21 -104v-19q0 -22 2 -72q0 -7 1 -19t1.5 -21.5t0.5 -18.5q1 -20 1 -69q0 -57 -4 -175q-4 -71 -5 -124l-3 -54q-2 -34 -2 -52q0 -13 0.5 -28t1.5 -33.5t1 -29.5q2 -46 2 -57q8 -1 40 3q19 3 39 3q45 0 52 -29z" />
<glyph unicode="2" horiz-adv-x="666" d="M178 135q-8 -30 -9 -45q1 0 5 -0.5t5 -0.5q48 -6 71 -6h20q4 0 16 -0.5t19 -0.5h64q82 0 108 4q2 0 -1 -2q48 12 60 12q50 0 50 -41q0 -13 -10 -22.5t-30.5 -15.5t-41.5 -9.5t-52.5 -5t-53.5 -2t-54 -0.5q-68 0 -126 4q-10 1 -32 1q-68 2 -81 12q-19 23 -19 65 q0 57 13 106.5t41 93t49.5 69.5t60.5 67q16 17 46 51q44 50 46 52q9 11 27 31l27 30q2 3 4.5 6t5.5 6.5t5 5.5q27 33 41 51.5t26.5 50.5t12.5 65q0 54 -36.5 88t-95.5 34q-172 0 -206 -126q-1 -8 -2 -14q-3 -18 -5.5 -26t-12 -16t-24.5 -8q-40 0 -40 50q0 49 32.5 101.5 t74.5 74.5q32 17 84.5 31t102.5 14q101 0 157.5 -60t56.5 -144q0 -68 -29 -121l1 1q-3 -5 -31 -44q-8 -10 -18 -24q-37 -52 -129 -150l-66 -72h1q-16 -20 -29 -33v1q-26 -28 -39 -44.5t-29 -48t-25 -71.5q-1 -4 -3 -13t-3 -12z" />
<glyph unicode="3" horiz-adv-x="727" d="M592 719q0 -103 -51 -166q113 -56 113 -180q0 -173 -85 -257q-98 -108 -217 -108q-128 0 -228 100q-1 1 -1 1.5t-1 1.5q-2 3 -12.5 16t-14 17t-11.5 15.5t-12 19t-9.5 18.5t-9 22t-6.5 24q-4 8 -4 17q0 13 12.5 24t29.5 11q20 0 29.5 -11t18.5 -33l-1 1q5 -15 7 -17 q54 -83 104 -115q16 -10 48 -17.5t60 -7.5q33 0 70 16t71.5 46.5t56.5 83.5t22 118q0 98 -76 129v-1q-21 9 -32 9q-7 0 -47 -23h1q-45 -28 -71 -28q-17 0 -26 6.5t-10.5 13.5t-1.5 19t5 22t16.5 17t19 10.5t22.5 9.5q3 1 8.5 3.5t7.5 3.5h-1q27 13 45 23q6 3 20 10.5t18 9.5 q34 37 34 117q0 83 -43 128t-122 45q-58 0 -100 -33t-58 -90q-1 -2 -1.5 -6t-0.5 -6q-3 -18 -6 -28t-13 -20t-26 -10q-39 0 -39 40q0 31 11.5 62.5t21.5 46.5t29 41q31 40 82.5 61t110.5 21q109 0 176 -63.5t67 -179.5z" />
<glyph unicode="4" horiz-adv-x="672" d="M564 354h10q37 0 45 -10q8 -9 8 -26q1 -20 -13.5 -30.5t-28 -11.5t-34.5 0h-4h-13.5h-10h-6.5l-1 -1l-2 1h-3q0 -61 1 -100q0 -12 0.5 -37.5t0.5 -38.5q0 -12 -0.5 -36.5t-0.5 -33.5q-2 -21 -21 -28t-37 3q-12 6 -17.5 20.5t-6 22.5t-0.5 30v5q-1 16 -1 53v51q0 81 -1 91 q-44 4 -95 4h-66q-50 0 -70 2q-35 4 -58 9q-51 10 -76 37.5t-19 85.5q1 6 7 34q2 6 2 17q4 25 12 53q1 2 1 6t1 5v-2q4 20 14 51q10 30 15 47q31 105 68 207q3 8 10 29v-1q21 77 48 80q27 6 43 -13q14 -18 -5 -67q-1 -1 -2 -4l-2 -5q-6 -22 -23 -69q-20 -47 -51 -153 q-14 -48 -30 -99v1q-8 -25 -15 -65q-1 -1 -3 -11l1 1q-6 -32 -6 -46q0 -24 13 -31q12 -6 76 -11q2 0 5 -0.5t5 -0.5q16 -1 104 -4q93 -3 97 -3q3 55 3 123v56q2 152 2 218q0 7 -2 21q-4 15 -1.5 33.5t17.5 33.5q29 11 45.5 -3.5t20 -34t3.5 -45.5v-54q0 -154 -5 -354 q9 -1 26 -1.5t26 -0.5z" />
<glyph unicode="5" horiz-adv-x="631" d="M527 459q0 -3 0.5 -7.5t0.5 -6.5q8 -110 7 -207v-15q-2 -99 -27 -128v1q-18 -24 -72 -51q-17 -13 -33 -18q-4 0 -5 -1q-2 0 -5.5 -1t-4.5 -2q-2 0 -7.5 -2t-8.5 -3l4 2q-14 -6 -15 -6q-23 -5 -62 -5q-79 0 -149 30h1q-33 13 -50.5 22.5t-37 26.5t-28.5 42t-9 60 q-3 58 29 66q12 2 21 0.5t14.5 -10t8.5 -13t5.5 -20t3 -18t1.5 -19.5v-2q10 -17 18 -24q8 -8 36 -21q6 -3 16 -9l-1 1q20 -8 26 -12q53 -16 99 -16q36 0 55 8q10 3 47 22q1 1 12.5 8t20.5 11q14 14 16 85v9q1 34 -3 108q0 4 -0.5 14t-0.5 14v10q-2 82 -11 109q-7 19 -30 30 t-66 24l-14 6l1 -1q-40 12 -83 12q-69 0 -125 -23q-1 0 -6 -5q-26 -14 -48 -13q-31 24 -25 77v12q2 45 2 142q0 111 5 177q1 28 88 22q11 -1 52 -1q38 1 130 1q83 0 118 -1h10q15 0 23 -1t19.5 -4.5t16.5 -12.5t4 -24q0 -47 -44 -40h1q-53 4 -121 4q-36 0 -112 -2h-1 q-86 -2 -105 -2q-2 -39 -2 -117q0 -113 -1 -130q67 18 123 18q25 0 45 -3q75 -10 147 -42q20 -9 45 -32.5t33 -43.5q6 -20 8 -59z" />
<glyph unicode="6" horiz-adv-x="700" d="M603 403v-1q1 -15 1 -49q0 -82 -10 -141q0 -4 -1 -10.5t-2 -9.5q-8 -47 -19 -68q-11 -24 -41 -50l-3 -3q-35 -30 -47 -36q-54 -32 -143 -32q-116 0 -180 46q-21 16 -40 42.5t-26 52.5q-5 17 -12 73v3q-1 3 -1 4q-3 24 -3 53q0 5 0.5 15t0.5 15q0 7 0.5 23.5t0.5 25.5 q-1 29 1 88q2 28 2 41q1 30 1 87q0 6 -0.5 18.5t-0.5 19.5q-1 15 -1 52q0 70 14 123v-1q18 70 60 112q51 49 133 61h-1q26 3 54 3q51 0 86 -12h-1q63 -19 90 -42q9 -7 11.5 -9.5t10.5 -9.5t10.5 -12t6 -13t3 -16.5t-3.5 -17.5q-12 -35 -45 -23q-20 11 -38 29h1 q-27 22 -36 27q-45 20 -104 20q-81 0 -117 -38q-9 -9 -16 -21q-9 -15 -12 -21v1q-22 -51 -22 -161v-58q41 28 100.5 47t113.5 19q53 0 95 -18h-1q50 -20 83 -57q25 -28 34 -67.5t14 -103.5zM501 162q23 43 23 143q0 43 -1 64v13q-2 75 -9 100q-12 41 -50.5 63t-92.5 22 q-21 0 -42 -3q-90 -15 -166 -95q-1 -5 -1 -17v-17v1q-3 -54 -3 -104q0 -45 2 -67q3 -70 22.5 -111.5t63.5 -58.5q40 -14 70 -14q28 2 61 7q2 0 6 0.5t5 0.5q28 5 49 13q46 29 63 60z" />
<glyph unicode="7" horiz-adv-x="604" d="M564 941q-52 -171 -138 -389q22 -1 33.5 -2t27.5 -4.5t23 -12.5t7 -23q-1 -18 -16.5 -27.5t-32 -10.5t-43.5 0h-29q-10 -18 -28 -61q-20 -49 -25 -58q-8 -23 -13 -35v1q-8 -23 -14 -37q-16 -34 -27 -71q-19 -65 -32 -129q-1 -6 -3 -16q-2 -16 -5 -25t-9 -18.5t-17.5 -13 t-28.5 -0.5q-16 12 -20.5 31t-3 28t7.5 31q1 3 4 14h-1q29 130 124 359q-16 0 -54 -6q-57 -6 -83 -2q-14 4 -21 11t-7 14.5v15.5q0 5 2 9.5t4 6.5l1 2v-1q10 16 60 22h-1q4 0 11.5 1t11.5 1q34 5 105 7h5q35 79 90 241q3 11 22 67q-103 -35 -215 -35q-116 0 -186 42 q-29 17 -34 40q0 23 13 33q27 17 62 -3q6 -4 12 -6h-1q57 -24 134 -24q67 0 151 19q39 11 81 32q7 3 22.5 9.5t22.5 9.5l-1 -1q16 6 36 -8t16 -28z" />
<glyph unicode="8" horiz-adv-x="693" d="M551 661q-25 -60 -69 -82q19 -10 43 -40h-1q2 -2 5 -7t5 -7q39 -50 51 -80v1q10 -23 18 -56q11 -47 11 -96q0 -150 -82 -223q-60 -52 -135 -62h4q-6 0 -12 -2q-44 -7 -77 -5q-43 5 -94.5 26t-76.5 43l-1 2q-2 2 -6 6.5t-7 7.5q-1 2 -4 5.5t-4 4.5q-12 14 -22 28 q-28 46 -36 154q-3 81 29 153l-1 -1q3 9 25 39l9 12q4 6 14.5 18t14.5 18q26 24 33 29q4 2 12 8q-8 4 -9 5t-4 2.5t-4 2.5v-1q-16 10 -27 21q-26 28 -44 77.5t-18 98.5q0 27 4 43l-1 -1q13 68 44 104q32 38 84 58.5t110 20.5q87 0 150 -43q77 -52 86 -148q2 -24 2 -37 q0 -53 -19 -97zM404 887q-30 17 -76 17q-39 0 -62 -10q-47 -18 -67 -41l1 1q-29 -33 -29 -94q0 -79 39 -121q13 -14 34 -24t42 -9q4 0 34 10l27 9q3 1 46 10q53 9 65 23q24 30 30 78q4 52 -11 94v-1q-10 27 -62 53l-2 1q-3 2 -9 4zM516 404q-6 22 -43 68q-23 28 -36.5 37 t-49.5 18q-25 7 -63 7q-21 0 -61 -20h1q-28 -17 -59 -50q-25 -27 -42.5 -69.5t-21.5 -83.5q-3 -58 12.5 -107.5t45.5 -73.5q20 -17 56.5 -31t67.5 -17h-1q24 0 51 6q6 2 28 5h-2q3 1 13.5 2.5t15.5 2.5h-2q49 16 88 87q17 54 17 110q0 59 -15 109z" />
<glyph unicode="9" horiz-adv-x="644" d="M565 758v-2q2 -17 2 -53v-32v-46q0 -29 -2 -83q-2 -32 -2 -48q-1 -26 -1 -74v-73q-1 -29 -3 -61q-1 -13 -3 -88q-1 -73 -47 -119v1q-31 -33 -65 -46q-2 -1 -7 -2t-6 -1h1q-19 -7 -27 -7q-30 -7 -86 -14q-35 -3 -106 24v-1q-32 11 -63 34t-48 49q-12 21 6 39q20 14 35 11 h-4q1 -1 5 -1q20 -6 38 -20l5 -5q11 -7 31 -19l-1 1q6 -4 10 -6q40 -24 71 -25q17 0 29 2l20 3q52 9 64 13q57 23 63 83q0 2 3 61q1 8 1 24.5t1 25.5q2 36 2 53q0 7 -0.5 20t-0.5 19v2q-40 -28 -99.5 -46.5t-113.5 -18.5q-53 0 -96 17h1q-49 19 -82 57q-25 28 -34 67.5 t-14 103.5q-2 34 -2 57q0 70 10 133l3 21q5 41 19 68q11 24 41 50q29 25 49 38q58 34 144 34q114 0 180 -47q21 -16 40 -42.5t26 -52.5v1q7 -20 11 -64q0 -2 0.5 -7.5t1.5 -7.5zM316 416q85 16 164 95q0 6 1 18t1 18q3 54 3 111q0 38 -1 58q-4 74 -22.5 114t-65.5 56 q-37 14 -69 14q-17 -1 -63 -8q-2 0 -5 -0.5t-4 -0.5q-32 -6 -48 -13q-18 -10 -37 -27.5t-27 -32.5q-23 -45 -23 -143q0 -44 1 -64v-13q2 -75 8 -100v1q25 -86 145 -86q21 0 42 3zM486 517l-6 -14v8z" />
<glyph unicode=":" horiz-adv-x="249" d="M193 250l1 -3q17 -45 -14 -85.5t-78 -40.5q-13 0 -36 9q-23 11 -35.5 37.5t-7.5 51.5q7 37 44.5 62.5t75.5 9.5q18 -6 27 -15q20 -20 23 -26zM106 202q12 2 9 14q-10 -4 -10 -12q0 -2 1 -2zM193 705l1 -2q17 -46 -14 -86.5t-78 -40.5q-13 0 -36 9q-23 11 -35.5 37.5 t-7.5 51.5q7 38 44.5 63t75.5 9q18 -6 27 -15q20 -19 23 -26zM106 657q12 2 9 14q-10 -4 -10 -12q0 -2 1 -2z" />
<glyph unicode=";" horiz-adv-x="238" d="M193 705l1 -2q17 -46 -14 -86.5t-78 -40.5q-13 0 -36 9q-23 11 -35.5 37.5t-7.5 51.5q7 38 44.5 63t75.5 9q18 -6 27 -15q20 -19 23 -26zM106 657q12 2 9 14q-10 -4 -10 -12q0 -2 1 -2zM66 -27l-1 -4q0 26 12 60q10 28 12 59q2 21 -3 42q-2 1 -2 3q-14 16 -18.5 23 t-3.5 20.5t18 26.5q29 18 53.5 -5.5t32.5 -55.5q6 -21 6 -46q0 -42 -13.5 -85t-30.5 -60l3 3q-7 -6 -22.5 -5.5t-30 8t-12.5 16.5z" />
<glyph unicode="&#x3c;" horiz-adv-x="520" d="M454 972l2 -1q19 -9 24 -22q4 -12 -2 -27t-12.5 -23.5t-21.5 -27.5q-2 -2 -6 -8t-6 -8l-16 -24q-3 -4 -9 -13t-9 -13q-131 -168 -238 -329q36 -54 106 -143q36 -46 76 -99q15 -22 29 -49v1q23 -38 26 -43v1q3 -4 18 -19q5 -5 15 -18l-1 2q4 -4 7 -9q26 -31 27 -47 q0 -17 -12.5 -30.5t-25.5 -17.5q-23 -5 -56 42q-5 6 -15 16q-14 12 -22 26q-13 16 -21 32q-1 3 -3.5 6.5t-3.5 6t-2 3.5q-55 89 -95 138q-58 70 -102 135q-6 6 -9 12q-21 27 -24 46q0 23 28 64v-1q4 6 7 9q26 40 73 107q26 36 38 53v-1q62 90 116 157q12 15 33 46 q25 38 47 62q16 17 40 8z" />
<glyph unicode="=" horiz-adv-x="887" d="M701 428h1q21 -13 19.5 -37t-24.5 -34q-67 -8 -171 -8q-13 0 -38.5 0.5t-38.5 0.5q-42 0 -120 -2q-80 -2 -121 -2q-79 0 -97 25q-8 5 -7.5 21.5t17.5 27.5q23 10 68 8h17q19 0 59 2q34 2 57 2q8 0 25.5 -0.5t26.5 -0.5q19 0 59.5 -0.5t61.5 -0.5q80 0 149 3q2 0 6 0.5 t6 0.5q31 2 45 -6zM701 622h1q21 -13 19.5 -36.5t-24.5 -33.5q-66 -9 -227 -9h-61q-62 0 -94 -1q-70 -2 -107 -2q-79 0 -97 25q-21 27 9 49q24 10 66 8h-1q4 0 11 -0.5t10 -0.5q8 0 17 0.5t20 1.5t17 1q56 3 63 2h80q18 0 54.5 -0.5t55.5 -0.5q69 0 131 3q2 0 6 0.5t6 0.5 q30 2 45 -7z" />
<glyph unicode="&#x3e;" horiz-adv-x="492" d="M69 7q-17 4 -26 21q-9 29 35 79q2 3 7 9t6 7l-1 -1q9 12 17 24q2 2 8 12.5t10 15.5q118 151 238 328q-35 52 -101 136q-56 70 -81 105l-30 51q-5 7 -12.5 20.5t-12.5 20.5v-1q-2 3 -17 18q-8 8 -17 19l1 -1q-1 2 -7.5 9.5t-9.5 11t-7 10t-6 12.5t-3 12q0 17 11.5 30.5 t23.5 16.5q25 0 56 -38q4 -6 23 -25q1 -1 2.5 -3t5 -6t8.5 -10q15 -21 19 -33v1q2 -3 5.5 -9t5.5 -9q59 -91 96 -137q39 -46 102 -135q1 -2 4 -5t4 -5q24 -33 24 -51q0 -20 -28 -62v1l-6 -9q-58 -85 -73 -105q-6 -9 -19 -26.5t-19 -26.5q-1 -2 -3.5 -6t-4.5 -7t-4 -5 q-50 -73 -103 -139q-8 -10 -20 -27t-17 -23q-15 -22 -43 -57q-15 -17 -41 -8z" />
<glyph unicode="?" horiz-adv-x="638" d="M265 178h8q27 0 53 -15l-1 1q1 0 2 -1l2 -2q32 -26 30 -65q-4 -40 -40.5 -64.5t-80.5 -17.5q-26 8 -38 21q-10 12 -16 34t-4 38q1 21 25 47q22 22 60 24zM262 110l-4 -11q1 1 4 1v10zM274 101q-9 0 -12 -1v-6h7q4 6 5 7zM270 207h-1q-22 0 -35 23q-13 36 -11 106v5 q0 5 0.5 16t0.5 17q1 45 3 66.5t11 54t26 54.5q8 9 42 41q24 19 39 38q5 5 23 27q0 3 2 5l6.5 6.5t6.5 7.5q66 84 66 147q-2 47 -9 65q-12 30 -46.5 48.5t-76.5 18.5q-39 0 -72 -18q-20 -17 -34 -33q-22 -25 -39 -57q-12 -31 -12 -43q0 -10 4 -18q6 -12 22.5 -25t31.5 -19 h-3l12 -3l-1 1q25 -5 31 -15q5 -7 6 -19q3 -17 -11 -30.5t-28 -15.5q-19 -3 -56 18t-49 34q-39 44 -39 99q0 16 6 37v2q1 2 3.5 10.5t4.5 12.5q2 7 7 14l-1 -1q6 10 8 14q11 20 42 53t53 47q53 33 125 33q80 0 133 -42q45 -36 59 -76h-1q15 -37 15 -95q0 -16 -2 -30 q-5 -52 -53 -132q-13 -22 -58 -71l-12 -12v1q-31 -36 -77 -72q-27 -50 -27 -158q0 -30 3 -60q1 -16 2 -33t-9 -30t-31 -14z" />
<glyph unicode="@" horiz-adv-x="873" d="M613 320q-68 0 -107 53q-68 -55 -140 -59q-52 -1 -99 29q-2 1 -4 3t-4 3l1 -1q-25 14 -39 28q-32 38 -32 110q0 38 12 67q6 10 22.5 31.5t24.5 27.5q15 14 57 36h-1q51 26 100 29q73 3 123 -24q21 -12 19 -83q0 -4 -0.5 -12t-0.5 -11q4 -90 23 -122q5 -10 19 -20t25 -10 q15 0 29.5 12.5t21.5 28.5q18 36 18 136v45q0 86 -5 108q-25 100 -73 123q-22 10 -35 13q-15 6 -35 9q-37 8 -70 8q-64 0 -106 -20q-7 -3 -46 -30q-18 -12 -20 -14q-44 -30 -63 -49q-81 -81 -96 -267q-1 -12 -1 -35q0 -34 1 -52q2 -35 9 -73q24 -142 66 -200q45 -62 161 -92 q15 -4 30 -4q7 0 49 7q3 1 9 2t9 2q72 15 98 31q40 25 55 43v-1q5 7 5 8l-1 -1q1 1 3.5 4.5t5 6.5t3.5 5l2 4q1 1 3.5 6.5t3.5 6.5l-1 -1q0 1 1 2.5t2 2.5q6 10 9 14.5t11 11.5t16 5.5t24 -3.5h-2q15 -4 21 -14.5t2 -24t-9.5 -25t-12.5 -21.5q-2 -2 -4.5 -6t-3.5 -6v1 q-15 -23 -23.5 -34t-26.5 -26t-45 -29v1q-53 -28 -126 -42q-3 0 -8 -1t-8 -2q-30 -6 -45 -7q-64 -3 -131 24t-106 63q-26 25 -56 77q-23 41 -32 81v-1q-15 55 -18 82q-2 13 -8 47q-6 29 -8 58q-2 32 -2 48q0 65 10 135q12 81 50 154h-1q20 39 33 56v-1q17 26 72 71 q3 3 13 11q93 71 178 88l-1 -1q16 4 36 4q42 0 107 -12q66 -12 111 -39q44 -38 73 -98t32 -132q1 -33 1 -110q2 -178 -91 -230q-27 -17 -63 -17zM298 552q-30 -27 -30 -74q0 -24 12 -45q7 -10 25 -22t31 -16q47 -10 94 22q43 34 44 37q0 3 -4 15q-3 15 -3 20q-2 36 -2 61 q0 24 1 43q-28 4 -44 4q-70 0 -124 -45z" />
<glyph unicode="A" horiz-adv-x="711" d="M577 2l-9 1q-36 13 -33 100v10q0 25 2 69q1 23 1 66q0 4 -5 49q-5 23 -5 52h-62q-100 0 -298 -8h1q-9 -1 -20 -1q-2 -45 -2 -142q0 -98 -4 -162q-1 -15 -15.5 -25.5t-31.5 -10.5q-20 0 -28.5 10t-8.5 34q0 38 3 75q4 48 4 62q0 16 -2 52q-3 51 -3 55q0 143 14 363 q3 54 31 137q65 197 254 197q81 0 145 -54.5t89 -124.5q21 -64 21 -201v-67q0 -181 7 -267q1 -16 1 -47q0 -23 -2 -69q-1 -22 -1 -67q0 -2 0.5 -5t0.5 -5q1 -6 1 -23q0 -49 -45 -53zM532 428v-18l21 22h-21v-4zM489 821q-23 35 -59 59.5t-74 24.5q-28 0 -51.5 -6t-42 -20 t-33 -28.5t-25.5 -39.5t-18.5 -45t-13 -54t-9 -56.5t-5.5 -62.5t-3 -62t-2 -64l-2 -49q224 14 363 14h18q-1 5 -1 14q0 11 0.5 33.5t0.5 33.5q1 24 1 71q0 170 -44 237z" />
<glyph unicode="B" horiz-adv-x="725" d="M608 436q48 -73 48 -175q0 -77 -27 -130t-78.5 -81.5t-114 -40.5t-146.5 -12q-67 0 -100 4h-26q-65 0 -83 9h2q-14 5 -22 50t-8 71q0 19 2 55q2 38 2 55q0 23 -1 35q0 6 -0.5 18t-0.5 17q0 17 1 24v-1q17 223 17 362q0 10 -5 80q-4 54 -4 87q0 56 11 94q7 31 112 31 q42 0 152 -7q7 0 20.5 -0.5t19.5 -1.5q119 -11 181.5 -60t62.5 -164q0 -149 -146 -217q88 -41 131 -102zM196 900h-40v-35q0 -32 2 -104q2 -74 2 -112q0 -53 -1 -69h47h45q60 0 94 6q9 1 22 6q4 1 31 8q43 6 52 10q20 7 51 44q2 2 7.5 8.5t8.5 8.5q9 12 13.5 22.5t5 16.5 t0.5 21v10q0 71 -11 91v-1q-21 42 -87 56t-167 14q-13 0 -38 -0.5t-37 -0.5zM135 900l22 21q-1 -7 -1 -21h-21zM564 226q2 24 2 33q-2 92 -34 136q-11 15 -51 42l1 -1l-15 8q-36 25 -72 35t-102 14q-3 0 -11 -2q-5 -1 -21 -1q-100 0 -105 10q0 -36 -8 -98q-6 -51 -8 -74 q0 -7 1 -12q2 -10 2 -18t-0.5 -25t-0.5 -25q-2 -66 -2 -97q0 -50 1 -58q10 0 19.5 -1t20.5 -2.5t17 -2.5q62 -6 99 -6h13q55 5 86 9t66 13.5t53.5 24t32 39t16.5 59.5z" />
<glyph unicode="C" horiz-adv-x="654" d="M525 266l3 2q11 8 25 8q18 0 33.5 -15.5t15.5 -41.5q-6 -36 -20.5 -71t-42 -72.5t-76.5 -61t-112 -23.5q-50 0 -101 17q-101 33 -136 79q-39 55 -61 197v-1q-23 147 -23 248q0 79 24 172q16 62 25.5 91.5t33 70t57.5 70.5q58 51 160 51q101 0 176 -48.5t75 -137.5 q0 -65 -44 -65q-16 0 -26 6t-14 18t-5 21t-2 23q0 5 -1 9q-10 46 -54.5 67t-100.5 21q-78 0 -116 -46.5t-65 -140.5q-32 -109 -32 -219q0 -150 49 -320v1q16 -48 59 -66q64 -33 112 -33q62 0 110 37t56 94q2 7 2 11q0 32 16 48z" />
<glyph unicode="D" horiz-adv-x="691" d="M216 996q167 0 271.5 -80.5t114.5 -227.5q3 -53 3 -59q3 -58 3 -118q0 -71 -3 -137v-25q0 -25 -8 -67v1l-6 -39q-8 -78 -38 -133q-26 -49 -63.5 -68.5t-121.5 -41.5q-21 -5 -28 -7q-23 -7 -81 -7h-51q-122 0 -144 41q-7 13 -7 43q0 24 1 34q0 5 0.5 15t0.5 16q0 39 -1 60 q-2 44 -2 69v75q0 12 0.5 36.5t0.5 37.5q0 41 -1 60q0 10 -0.5 29t-0.5 28q0 33 2 93q1 28 1 84l-3 81q-2 56 -2 90t2.5 51t12.5 34.5t33 24.5t61 7h54zM402 99q32 11 52 26t31 39t14.5 41.5t8.5 53.5q1 22 6 46q10 54 10 127q0 40 -7 189l-3 61v-1q-7 97 -59 152 q-10 5 -32 25q-30 23 -45 29q-60 23 -157 23q-52 0 -84 -3v-31q0 -79 8 -138q-3 -124 -3 -302q0 -132 2 -354q53 -8 93 -8q87 0 165 25z" />
<glyph unicode="E" horiz-adv-x="645" d="M329 901q-121 0 -174 3q2 -54 4 -83q5 -135 5 -163q0 -76 -3 -110q19 2 61 2h53q27 0 51 3l48 3q64 0 64 -41q0 -19 -12 -31t-29 -13q-54 -2 -79 -2q-116 -2 -161 -7q-5 -82 -5 -203q0 -107 23 -151q8 -13 46 -22t72 -9q39 0 117 8q76 8 111 8q49 0 49 -43 q0 -16 -11 -25.5t-27 -11.5q-10 -1 -29.5 -3t-25.5 -3q-121 -13 -178 -13q-77 0 -142.5 29.5t-73.5 71.5q-16 76 -16 204q0 44 7 191q6 120 6 172q0 64 -5 142q-6 100 -6 152q0 36 52 36q28 0 76 -2q44 -2 65 -2q18 0 54 0.5t55 0.5q38 1 139 1q38 0 55 -8t17 -32 q0 -50 -105 -50q-32 0 -42 1q-4 0 -10 0.5t-8 0.5h-42q-7 0 -23 -0.5t-23 -0.5z" />
<glyph unicode="F" horiz-adv-x="628" d="M298 896q-103 0 -153 -2q3 -121 3 -230q0 -21 1 -60t2 -68q39 3 127 24q12 3 33 8t33 7q3 0 5 1q38 9 51 9q41 0 41 -38q0 -18 -12.5 -30t-24 -15.5t-31.5 -7.5q-5 -1 -85 -18l1 1q-88 -21 -138 -26v-3q0 -8 0.5 -22.5t0.5 -21.5v-43q0 -6 -0.5 -16.5t-0.5 -15.5 q-1 -10 -1 -28q0 -1 3 -58q2 -34 2 -57q0 -4 -0.5 -17t-0.5 -20q-1 -14 -1 -44v-22q0 -3 0.5 -10.5t0.5 -12.5q0 -61 -40 -61q-47 0 -47 115q0 33 1 47q0 5 0.5 16.5t0.5 14.5q0 50 -5 310q-4 196 -4 304q0 79 4 139q2 35 81 35q33 0 49 -1q6 0 22.5 -0.5t21.5 -0.5 q178 8 281 8q70 0 70 -42q0 -28 -21 -36.5t-58 -8.5h-34q-57 -3 -178 -3z" />
<glyph unicode="G" horiz-adv-x="731" d="M648 483l1 -5q13 -52 13 -113q0 -173 -81.5 -268.5t-243.5 -95.5q-97 0 -181 90t-100 227q-13 128 -13 218q0 115 19.5 210t60.5 137q45 48 100.5 75.5t139.5 27.5q70 0 120 -19.5t93 -63.5q59 -59 59 -95q0 -12 -10.5 -27.5t-29.5 -15.5q-23 0 -46 31q-7 3 -9 12 q-41 47 -79.5 68.5t-92.5 21.5q-69 0 -116 -22.5t-73.5 -68.5t-37.5 -105.5t-11 -141.5q0 -85 7 -147q2 -16 2 -31q0 -3 0.5 -7.5t0.5 -6.5q2 -39 7 -65l-1 1q20 -89 76.5 -151.5t120.5 -62.5q40 0 88 13t73 33l-2 -1q34 33 53.5 100t19.5 131q0 20 -3 43q-22 -2 -51 -11 q-17 -6 -19 -6l1 1q-75 -20 -122 -20q-17 0 -29 13t-12 31q0 14 10 24t29.5 16.5t34.5 9.5t38 7q22 4 29 6q3 0 5 1l-1 -1h2t2 1q90 23 116 23q33 0 43 -21z" />
<glyph unicode="H" horiz-adv-x="811" d="M179 573q0 -43 1 -65l312 72q50 12 107 25q-1 17 -1 52q0 25 2 77q2 54 2 81q0 26 -1 39q0 6 -0.5 19t-0.5 20q0 97 37 97q29 0 39.5 -18.5t10.5 -52.5q0 -3 -0.5 -9.5t-0.5 -9.5v-21q0 -12 -0.5 -39t-0.5 -41q-1 -28 -1 -85q0 -113 3 -233q0 -27 1 -75t1.5 -86.5 t0.5 -71.5q0 -16 -2 -40q-1 -13 -1 -37v-28q0 -5 0.5 -15t0.5 -14v-54q0 -27 -8.5 -41.5t-33.5 -14.5q-43 0 -43 58q0 26 1 38q2 22 2 27t-0.5 14t-0.5 14q-1 10 -1 36v15q0 2 0.5 7t0.5 7q0 16 -2 40q0 5 -0.5 18.5t-0.5 17.5q-1 42 -1 142v80q-126 -26 -182 -40 q-197 -46 -237 -52v-24q0 -38 1 -57q0 -9 0.5 -26t0.5 -25q0 -10 -0.5 -30t-0.5 -30q-1 -20 -1 -59v-106q0 -23 -2 -36.5t-11.5 -25.5t-26.5 -12q-46 0 -46 119q0 35 1 49q0 5 0.5 12.5t0.5 10.5q0 34 1 51q2 30 2 52q0 51 -3 105v-1q0 6 -1 19t-1 20q-4 87 -6 265 q0 73 -1 111q0 8 -1.5 23t-1.5 18q-4 40 -3 64q0 77 38 77q16 0 26.5 -6.5t14 -20.5t4.5 -24t1 -28v-5q0 -15 4 -47q3 -24 3 -48q0 -45 5 -238z" />
<glyph unicode="I" horiz-adv-x="349" d="M217 900h-3q1 -14 1.5 -42.5t0.5 -42.5q4 -130 8 -190v-18q0 -27 -5 -164q-4 -106 -4 -158q0 -35 6 -103q6 -66 6 -101q11 0 19 1h-1q16 2 26 2q46 0 46 -35q0 -53 -79 -53q-111 0 -155 6q-24 3 -28 18q-1 2 -1 6l-1 4l-1 4v5q0 44 59 44h19q2 0 6 -0.5t7 -0.5v4 q0 15 -1 32.5t-2.5 39.5t-2.5 34q-6 72 -6 110q0 99 5 222q1 14 1.5 43.5t0.5 43.5q-1 13 -1 39v33q0 50 -3 101q-5 98 -5 117h-49q-12 0 -18 1t-15 4.5t-13 12.5t-4 24q0 16 10.5 26t30.5 14t37 5t42 1h12q33 0 50.5 -1t43 -4.5t37 -13t11.5 -24.5q0 -46 -87 -46z" />
<glyph unicode="J" horiz-adv-x="639" d="M132 425v-1q13 -15 27 -49v1q1 -1 2.5 -4.5t2 -5.5t1.5 -4.5t1 -3.5q3 -6 17 -27v1q1 -2 4 -7t4 -7q7 -11 19.5 -32.5t16.5 -28.5q58 -102 103 -143q27 -25 47 -25q54 0 54 133q0 38 -4 116q-4 76 -4 118q0 60 2 184q3 94 3 189v78q-14 2 -38 2q-1 0 -64 -3 q-24 -2 -42 -2q-30 4 -30 36q0 26 11 34t37 12q1 0 3 0.5t3 0.5q2 1 9 2t9 1q51 7 76 7q65 0 88 -14t23 -70q0 -5 -0.5 -14.5t-0.5 -13.5v-22q0 -25 1 -38q2 -41 1 -61q0 -1 -3 -163q-3 -86 -3 -166q0 -47 3 -94q0 -11 1 -29.5t1.5 -33.5t0.5 -27q0 -44 -3 -77.5t-12 -66 t-24 -53.5t-40 -33.5t-59 -12.5q-31 0 -62 17.5t-46.5 33.5t-39.5 45q-36 41 -85 128q-3 6 -9 15.5t-9 14.5q-24 37 -32 54q-27 50 -29 74q0 18 13.5 31.5t28.5 13.5q17 0 26 -10z" />
<glyph unicode="K" horiz-adv-x="801" d="M698 366v-1q4 -58 4 -92q0 -14 -0.5 -29.5t-1.5 -35t-1 -30.5q-2 -102 -2 -122q0 -35 -20.5 -43.5t-42.5 5.5q-25 11 -25 74q0 8 3 59q1 10 1 25q0 3 0.5 11t0.5 12q1 23 1 68q0 94 -14 158q-21 86 -78 133q-36 32 -65 42q-163 -111 -306 -133q-2 -61 -2 -197 q0 -104 3 -187q0 -1 0.5 -4.5t0.5 -5.5q1 -18 1.5 -33.5t-11 -26.5t-35.5 -13q-17 5 -26 14.5t-10 17t-1 20.5v6q-9 99 -9 196q0 37 1 55q0 21 2 43q3 60 2 74q0 8 -0.5 23t-0.5 23q0 29 5 159q5 123 5 144q0 7 -0.5 19t-0.5 19q-1 4 -1.5 14t-0.5 14q-4 58 -3 92 q2 27 17 44t45 12q18 -10 21.5 -22.5t-0.5 -22.5q-1 -4 -1 -12q2 -42 4 -65q7 -90 6 -132q-3 -106 -9 -185q106 18 210 85q95 61 140 131h-1q3 5 9.5 16.5t10.5 17.5l-1 -1q2 3 5.5 9t4.5 9q2 4 6 11t6 11q29 49 39 84q2 7 3 18q3 30 17 52q11 13 38 9t35 -19q3 -6 3.5 -16 t-1.5 -23.5t-4 -22t-5.5 -22t-3.5 -14.5q-1 -4 -7 -14l1 1q-3 -6 -7 -12v2q-2 -4 -3.5 -7.5t-3 -6.5t-2.5 -4q-1 -2 -2 -5t-2 -4q-6 -9 -8 -13l1 1q-9 -15 -10 -16l2 2l-12 -23q-18 -37 -22 -42q-31 -48 -62 -84q82 -39 130 -137q4 -8 8 -18q13 -25 16 -37v1q6 -18 13 -81 q1 -4 2 -11t1 -11z" />
<glyph unicode="L" horiz-adv-x="606" d="M148 972q7 -24 7 -67q0 -6 -0.5 -19t-0.5 -20t-0.5 -22.5t-0.5 -23.5q0 -72 -2 -226q-3 -243 -3 -259q0 -72 1 -108q2 -77 16 -100q7 -17 36 -28h-1q7 -2 32 -4q4 -1 12.5 -1.5t12.5 -0.5q36 -4 85 -4q40 0 120 4q3 0 13 2q44 6 56 -19q15 -32 -12.5 -47t-70.5 -18 q-6 0 -20 -0.5t-20 -1.5q-38 -3 -72 -3q-42 0 -72 5h1q-18 2 -28 3q-50 4 -70 11q-31 12 -58 40t-37 61q-5 17 -7 46q-5 56 -5 182v32q0 66 4 208q4 144 4 230v26q0 85 15 133q18 20 38.5 15t26.5 -26z" />
<glyph unicode="M" horiz-adv-x="863" d="M328 786q61 -68 88 -103q10 12 27 34.5t21 28.5q20 27 64 81l42 51q62 79 99 110q9 5 21 5q57 0 57 -149v-6q0 -13 -0.5 -36.5t-0.5 -35.5v-61q0 -111 2 -333q1 -97 1 -321q0 -17 -11 -28.5t-31 -11.5q-45 0 -45 62v15q0 2 0.5 8t0.5 9v218q0 59 -2 183q-3 195 -3 197 q0 41 1 62q2 40 2 60v27q-42 -48 -106 -133q-34 -46 -61 -81l3 3q-61 -73 -89 -71q-5 0 -9 1t-7.5 4t-6 4.5t-6.5 6.5t-5 6.5l-5 7.5t-5 7q-3 5 -6 9l-3 4h1q-3 3 -8 9t-13.5 15.5t-13.5 15.5q-120 136 -185 197q5 -85 5 -208q0 -23 -0.5 -67t-0.5 -66v-129q0 -2 3 -110 q2 -66 2 -109v-96q1 -18 -0.5 -29.5t-11.5 -23.5t-30 -12q-17 0 -27.5 10t-14 31t-4.5 33.5t-1 36.5v31q0 6 0.5 16.5t0.5 15.5q0 24 -1 70.5t-1 68.5q-2 82 -2 133q0 27 2 75v66q0 93 -2 139q-4 100 -4 159v9q0 24 0.5 34t3.5 28.5t12 26.5t24 8q33 0 75 -45q44 -44 53 -52 q52 -50 68 -69l-1 1l45 -48z" />
<glyph unicode="N" horiz-adv-x="840" d="M669 200q0 2 -4 4zM640 988l3 2q9 6 19 6q46 0 46 -78q0 -27 -1 -38q0 -6 -0.5 -15t-0.5 -14q0 -25 4 -73q2 -48 2 -75q0 -54 2 -166q1 -48 1 -162q0 -23 -2 -67q-1 -22 -1 -60q0 -11 9 -74q9 -50 9 -91q0 -29 -13 -41t-30 -12q-14 0 -25.5 11t-16 21t-12.5 30v-1 q-2 4 -4 10.5t-3 8.5v-1q-7 15 -46 61q-3 5 -10.5 13.5t-9.5 11.5l1 -1q-33 41 -130 187q-7 10 -18.5 28.5t-16.5 25.5q-114 180 -147 237q-25 43 -31 56v-1q-11 18 -16 32t-10 22.5t-22 26.5q2 -59 4 -173q1 -91 6 -181v-26q0 -8 -0.5 -22t-0.5 -21v-42q0 -31 1 -46 q0 -8 0.5 -23t0.5 -23t-0.5 -24.5t-0.5 -23.5v-48q0 -15 2 -45t2 -46q0 -44 -43 -55q-28 2 -39 47.5t-11 97.5q0 38 3 64q0 4 1.5 17.5t1.5 20.5q-1 42 -3 126.5t-3 113.5q-2 191 -9 375q0 2 -0.5 7t-0.5 8q-2 22 -2 39q0 64 41 64q38 0 91 -86q10 -15 15 -22 q9 -13 25.5 -41t20.5 -34l14 -26q26 -45 72 -118q9 -14 25.5 -41.5t23.5 -38.5q16 -25 31 -46v1q14 -21 33 -52q57 -100 156 -231v23q0 9 0.5 27t0.5 27v48q0 199 -2 299q0 10 -0.5 20.5t-1.5 24t-1 20.5q-4 66 -3 110v28q0 5 0.5 14.5t0.5 14.5q0 3 -0.5 7.5t-0.5 6.5v11 q0 35 20 53z" />
<glyph unicode="O" horiz-adv-x="751" d="M662 450q2 -22 2 -70q0 -269 -144 -345q-53 -28 -149 -28q-67 0 -111 15q-15 5 -44 24q-15 9 -16 10q-81 66 -110 179.5t-29 294.5q0 94 15.5 174t48.5 148t92.5 106.5t139.5 38.5q79 0 147.5 -26t90.5 -67l18 -41q18 -49 28 -108q10 -64 15 -178q2 -84 6 -127zM378 88 q105 0 152.5 69t47.5 178v19q-1 6 -1 21v24q0 4 0.5 11.5t0.5 11.5q0 30 -4 104q0 11 -1.5 35.5t-2.5 37.5l-2 9l-1 7q-2 10 -2 20q0 76 -28 176q-1 2 -2 8t-2 8q-1 5 -2.5 12t-3 11.5t-1.5 5.5q-16 24 -67.5 40.5t-102.5 16.5q-50 0 -88 -23.5t-59.5 -61.5t-35 -94 t-18 -110.5t-4.5 -122.5q0 -190 42 -298q22 -60 64.5 -87.5t120.5 -27.5z" />
<glyph unicode="P" horiz-adv-x="699" d="M187 466h-41v-13q0 -37 7 -163q0 -8 0.5 -17t1.5 -20t1 -17q1 -13 1 -43q0 -38 4 -71q0 -4 2 -12q5 -32 5 -51q0 -31 -12 -43q-8 -8 -21.5 -13.5t-23.5 -2.5q-25 9 -27 62q0 2 -0.5 8t-0.5 8l-3.5 38.5t-3.5 43.5q-4 43 -6 91q0 5 -0.5 15t-0.5 15q0 18 -2 56v-1 q-5 50 -5 92q0 5 -0.5 16t-0.5 17q0 45 4 125q2 32 2 44q1 32 1 98q0 88 -1 128q0 2 -0.5 7.5t-0.5 8.5q0 6 -0.5 18t-0.5 18q0 52 14 72q23 27 85 27q20 0 40 -2h4q1 0 92 -3q126 -2 191 -20q56 -18 85 -40h-1l6 -5q6 -5 8 -7q3 -2 8 -7l-2 1q53 -45 65 -95q8 -31 8 -75 q0 -32 -3 -55v1q-7 -56 -19.5 -92.5t-39.5 -60.5q-31 -28 -107 -55q-38 -14 -110 -19q-6 -1 -20 -1q-27 -3 -56 -3q-4 0 -11 -0.5t-11 -0.5q-30 -2 -48 -2h-56zM236 547q11 0 33 2q24 2 39 2q18 0 60 6q2 0 6 0.5t6 0.5q14 2 26 2q34 2 44 4v-1q15 4 44 15v-1q23 11 38 16 h-1q16 6 29 21q23 64 23 132q0 32 -7 62q-8 34 -55 64q-48 32 -139 44q-16 2 -101 5q-53 0 -86 3q-13 0 -18 1h2q-21 2 -29 1q3 -75 3 -156q0 -106 -3 -204v-19h86z" />
<glyph unicode="Q" horiz-adv-x="781" d="M675 49l3 -1q9 -9 9 -23t-14.5 -28.5t-28.5 -14.5q-10 0 -15 2q-45 17 -104 63q-93 -64 -228 -64q-57 0 -98.5 16.5t-66.5 41.5t-41.5 67t-23.5 79.5t-13 92.5v-2q-6 28 -8 99q0 2 -1 27.5t-2 36.5q-7 67 -7 147q0 215 96 336q82 100 221 100q32 0 45 -2 q42 -6 102.5 -32.5t84.5 -61.5q30 -45 45 -148.5t15 -207.5v-19q0 -181 -11 -261q-16 -125 -49 -183q22 -21 53 -37q33 -20 37 -23zM495 235l-1 3q10 -29 31 -60q16 48 24.5 123.5t9.5 128t1 144.5q0 56 -13 145q-1 6 -2 13.5t-2 17t-2 14.5q-16 103 -38 127 q-26 21 -74.5 35t-89.5 14q-59 0 -94 -25q-74 -55 -99.5 -134.5t-25.5 -206.5q0 -62 4 -118q2 -17 4 -71q2 -52 5 -83.5t9.5 -74.5t18 -68.5t29.5 -50t46.5 -36t65.5 -11.5q47 0 94.5 12.5t73.5 31.5q-61 83 -61 153q0 21 8 29.5t27 8.5q18 0 28 -7t12.5 -14.5t7.5 -25.5z " />
<glyph unicode="R" horiz-adv-x="740" d="M654 748q-6 -81 -42.5 -142t-102.5 -89q1 -12 3.5 -35t4.5 -35q12 -124 32 -180v1q42 -115 78 -170h1q14 -20 20.5 -33t11.5 -31t-8 -26.5t-43 -7.5q-27 6 -51 49h-1q-1 2 -2.5 4.5t-2.5 4.5q-77 126 -104 277q-14 69 -22 155q-8 -3 -33 -9q-48 -9 -121 -9q-42 0 -62 1 q-43 2 -62 1v-10q0 -53 1 -80q2 -56 2 -87q0 -30 6 -86q7 -59 6 -102q0 -14 2 -32q4 -59 -14 -73q-38 -25 -53.5 -11.5t-19.5 65.5q-1 15 -1 59q0 64 -2 93q-1 10 -3 24q-1 7 -4 45q0 36 -1 56q-4 78 -4 121q0 7 0.5 18.5t0.5 17.5v29q0 47 -1 71q-1 22 -1 67q0 110 -5 184 v-1q-2 20 -2 69v18q0 35 7 50q10 20 26 23h-1q51 11 123 11h35h20.5h25.5h23q71 0 136 -9q91 -16 130 -57v1q32 -32 56 -94h-1q21 -54 19 -107v1zM371 566l2 1q56 10 101 30h-1q28 13 49 28v-1q21 16 34 53.5t13 73.5q0 78 -52 132v-1q-36 35 -91 40q-60 6 -140 6 q-85 0 -146 -4q8 -125 8 -362q17 0 51 -2q81 -3 83 -3q57 0 89 9z" />
<glyph unicode="S" horiz-adv-x="692" d="M605 814l-4 -12q-17 -22 -37 -22q-12 0 -23 9t-17.5 19t-15.5 28v-1q-22 38 -30 44h1q-29 22 -75.5 38.5t-85.5 15.5q-32 0 -72 -11.5t-53 -34.5q-25 -38 -25 -100q0 -79 38 -107q14 -12 52 -30q4 -2 11.5 -5.5t11.5 -5.5l-1 1q6 -3 12 -7q138 -75 145 -79q4 -3 12.5 -7 t12.5 -7h-1q25 -12 52 -33q110 -93 110 -225q0 -151 -64.5 -219.5t-227.5 -68.5q-72 0 -124.5 28t-105.5 105l2 -4l-7 7q-22 26 -21 49q0 15 14 30t32 15q16 -2 36 -35q4 -6 7 -10q8 -8 14 -18q21 -29 36 -44t47 -27.5t77 -12.5q58 0 90 7.5t70 33.5q14 8 23 57l-1 -2 q0 2 2 7t2 7q14 54 14 90q0 40 -15.5 76t-36.5 60.5t-58.5 50t-64.5 40t-72 35.5q-78 39 -109 59l-4 2q-5 2 -7 3q-7 3 -23 15q-29 25 -48.5 74t-19.5 95q0 71 34 139q19 38 75 67t122 29q48 0 111.5 -21.5t104.5 -51.5q27 -21 53 -58.5t27 -63.5q0 -8 -2 -16l1 5v-1z" />
<glyph unicode="T" horiz-adv-x="666" d="M430 897q-40 -2 -58 -2q-1 -16 -1 -48q0 -61 4 -191q6 -132 6 -194q0 -31 -4 -87q-3 -45 -3 -88q0 -19 0.5 -54.5t0.5 -53.5q2 -76 2 -116q0 -33 -10.5 -49.5t-44.5 -16.5q-31 5 -31 54q0 22 1 30q0 4 0.5 11t0.5 11q-5 70 -5 148q0 37 4 109q5 90 5 108q0 63 -5 140 q-5 117 -5 141v60q0 10 0.5 32t0.5 34v18h-83q-10 0 -30.5 0.5t-30.5 0.5q-8 0 -28 -2t-33 -2q-29 0 -45.5 10.5t-16.5 40.5q0 38 55 38q11 0 35 -2q11 -1 32 -1h9q15 0 47 -2q15 -1 45 -1q41 0 174 7q104 6 144 6q59 0 59 -41q0 -45 -65 -45h-18q-2 0 -8 0.5t-8 0.5 q-30 0 -92 -4z" />
<glyph unicode="U" horiz-adv-x="749" d="M664 972l1 -6q3 -43 3 -89q0 -58 -3 -112q-3 -105 -3 -109q0 -1 3 -58q2 -34 2 -58v-39q0 -5 0.5 -14.5t0.5 -13.5q0 -117 -15 -261q-1 -3 -1.5 -10t-0.5 -10q-2 -23 -14 -57t-24 -55q-36 -53 -102 -74.5t-178 -21.5q-136 0 -195 81t-59 250v29q0 6 0.5 17t0.5 16 q0 16 -2 52q-1 17 -1 54q0 2 3 59q2 40 2 57l-3 87q-2 58 -2 86q0 66 3 140v5q3 81 44 81q45 0 45 -63q0 -51 -3 -88q-3 -63 -3 -72q0 -44 3 -86q3 -81 3 -85q-6 -128 -6 -216q0 -95 7.5 -155.5t32.5 -102.5q19 -33 55.5 -45.5t96.5 -12.5h10q128 0 155 26q41 40 49 149 q0 14 4 36q4 28 4 39v26q0 4 -0.5 14t-0.5 14q0 18 2 52q2 30 2 54q0 36 -2 110q-1 32 -1 107q0 51 1 76q2 50 2 77q0 5 -0.5 15.5t-0.5 17.5q-1 12 -1 44q0 37 9 53t37 16q32 0 40 -26z" />
<glyph unicode="V" horiz-adv-x="788" d="M80 993h6h3q19 0 28 -17q69 -151 165 -460q11 -33 29.5 -94t28 -90.5t27 -77t37.5 -93.5q1 6 3 16l3 15q7 36 17 69q82 282 135 432q1 3 14 39.5t21 56.5q34 93 51 144v-1q9 32 19.5 44t37.5 12q17 0 28.5 -11t11.5 -32q0 -27 -17 -59q-1 -2 -2.5 -5.5l-3 -7t-3 -6.5 l-2.5 -5l-1 -1q-6 -17 -15.5 -49.5t-14.5 -46.5v1q-11 -34 -23 -69q-24 -60 -63 -188v1q-29 -93 -41 -128q-22 -64 -53 -182q-43 -154 -49 -171q-10 -20 -19.5 -26t-29.5 -6q-25 0 -37 14t-21 41v4q-106 272 -190 563q-20 67 -56 157q-26 64 -38 96q-1 5 -3.5 11t-3.5 8 q-15 39 -15 61q0 13 1 19.5t9.5 14t25.5 7.5z" />
<glyph unicode="W" horiz-adv-x="956" d="M105 1001q18 0 29 -9t15.5 -26t6 -31.5t1.5 -33.5v-8q0 -4 0.5 -9.5t0.5 -7.5q1 -27 11 -85q6 -42 8 -58q2 -13 16 -142q41 -342 58 -456q11 14 31 42.5t27 37.5q56 78 93 121q37 61 81 79q16 -1 34 -13.5t27 -23t25 -29.5q1 -1 3.5 -3t3.5 -4q27 -30 93 -117v1 q10 -12 16 -20.5t10.5 -14.5t15.5 -19v5q0 1 0.5 4.5t0.5 5.5q3 33 19 148q32 240 35 342q1 31 10 121q6 64 8 96v14q0 28 2 45t14.5 32.5t35.5 15.5q40 0 40 -57q0 -90 -16 -260q-8 -77 -10 -108q-6 -71 -17 -151q0 -1 -1.5 -8.5t-2.5 -9.5h1q-14 -78 -29 -224 q-1 -5 -1.5 -19.5t-0.5 -20.5q-1 -29 -3 -49t-7 -43.5t-16 -36t-27 -12.5q-23 0 -50 41l-6 8v-1q-61 83 -173 220q-7 8 -13 17t-14 18q-3 -4 -9 -11.5t-9 -11.5q-12 -13 -33 -41q-20 -27 -30 -44q-11 -18 -31 -46q-15 -18 -18 -22q-30 -40 -48 -62.5t-46 -48t-45 -25.5 q-5 0 -28 9q-18 16 -25 83q0 2 -0.5 7t-0.5 7q-4 31 -14 89q-9 42 -13 83q-1 15 -5 47q-4 44 -6 67q0 3 -2 11.5t-2 12.5q-1 4 -3 15.5t-3 18.5q-15 154 -40 329q-12 86 -12 156v6v9v10v9.5t1 10t2.5 9t3.5 8t5 5.5t7.5 4.5t9.5 1.5h9z" />
<glyph unicode="X" horiz-adv-x="709" d="M61 896h-1h1zM60 897v-1v1zM290 691q27 -51 59 -104q20 28 112 179q10 17 34.5 58.5t37.5 62.5q10 14 13 22q33 59 52 74q14 10 29 10q14 0 27.5 -10t13.5 -28q0 -25 -24 -60l-4 -5q-175 -286 -244 -392q121 -237 216 -366q10 -17 11 -18q29 -39 29 -61q0 -14 -10 -28.5 t-30 -14.5q-13 0 -30.5 16.5t-27.5 30.5t-28 42l1 -2q-7 7 -10 16q-44 61 -102 164q-1 3 -12.5 22.5t-16.5 28.5q-18 32 -24 44q-3 7 -5.5 13t-3 8.5t-3.5 7t-8 11.5q-23 -34 -65 -106l-18 -29q-2 -5 -18 -32t-22 -41q-60 -105 -76 -129q-3 -4 -7 -11.5t-6 -9.5 q-15 -27 -29 -41.5t-35 -14.5q-24 0 -31 10t-7 31q5 35 54 107q7 9 29 47q17 29 41 79q6 13 14 23q10 14 11 15q6 10 15 28q11 24 41 64q19 31 27 42v-1q28 44 33 57q-31 58 -44 83q-85 152 -103 179v-1q-20 28 -51 80q-20 34 -36 58l1 -2q-27 37 -27 58q0 14 11 25.5 t33 11.5q32 0 62 -57q5 -9 6 -11l-1 2q16 -24 31 -45q25 -34 52 -82q14 -21 63 -108z" />
<glyph unicode="Y" horiz-adv-x="679" d="M639 960l2 -3q2 -6 2 -15q0 -20 -21 -51q-7 -14 -10 -18v1q-45 -87 -146 -252q-8 -14 -33 -54t-39 -63q-12 -20 -12 -64v-13q0 -168 11 -391q0 -36 -47 -36q-18 2 -29.5 33t-15.5 96t-4.5 99t-0.5 107v30q0 7 0.5 21.5t0.5 20.5v38q0 28 -25 76q-1 -1 -3 4 q-39 67 -159 258h1q-24 36 -54 83q-29 46 -29 67q0 20 12 30t26 10q38 0 59 -48q2 -2 4 -7t3 -7l15 -19q2 -3 4.5 -7t5.5 -9t5 -8q12 -20 37.5 -59.5t38.5 -60.5q75 -116 103 -168q4 6 8 13t8.5 15.5t7.5 13.5t9.5 16t8.5 16q66 103 138 235l17 30q2 2 2 3q30 59 62 59 q21 0 37 -22z" />
<glyph unicode="Z" horiz-adv-x="728" d="M637 975q39 -1 39 -41q0 -19 -14 -42q0 -1 -1 -3.5t-2 -4.5t-1 -3q-47 -94 -130 -222q-12 -20 -45 -66q-38 -52 -46 -64h1q-3 -4 -11 -23v1q-10 -20 -14 -27q-10 -17 -30.5 -49t-29.5 -46q-10 -16 -47 -72.5t-50 -77t-38 -63t-47 -83.5q80 2 129 4q140 5 168 5h12 q123 0 152 -21q13 -10 13 -23q0 -18 -15.5 -32t-33.5 -14t-56 4t-55 4q-24 0 -154 -5q-88 -5 -163 -5h-16q-20 0 -32.5 0.5t-29 4t-25 13t-8.5 25.5q0 15 16 45h-1l2 3q40 71 48 84q15 25 43 73v-1q22 44 40 71h-1q8 12 24 34t21 29q12 16 47 68q2 5 7 12.5t5 8.5l13 26 q28 47 91 143h-1q113 178 150 249q-92 -2 -137 -4q-132 -5 -159 -5h-12q-123 0 -151 21q-12 10 -13 22q0 19 15.5 32.5t32.5 13.5q20 0 58 -4q36 -4 53 -4q68 0 156 5q110 6 162 6q25 0 71 -2z" />
<glyph unicode="[" horiz-adv-x="360" d="M261 1003q-26 0 -70 -2q0 -19 0.5 -55.5t0.5 -53.5t0.5 -51.5t0.5 -52.5q0 -47 -2 -153q-1 -73 -7 -181q-6 -123 -6 -253q0 -113 8 -201q13 -1 46 -9q16 -5 34 -7q5 -1 17 -1q19 0 26 -0.5t21 -3.5t19.5 -11t6.5 -22q3 -44 -62 -44q-27 0 -85 11q-13 3 -16 3q-7 1 -19 1 q-23 0 -42 5q-19 21 -24.5 44.5t-7.5 60.5q0 2 -0.5 7t-0.5 8q-4 43 -4 101q0 15 0.5 43t0.5 42q0 10 0.5 28t0.5 28q0 9 0.5 27t0.5 26q1 18 1 58q0 65 6 189q0 11 1 43.5t2 47.5q2 66 2 220v83q-2 73 14 89q10 10 56 14.5t76 4.5h7q18 0 29 -0.5t26.5 -3.5t24.5 -11 t11 -20q2 -18 -5 -29t-20 -14.5t-29 -4.5t-30 0h-9z" />
<glyph unicode="\" horiz-adv-x="423" d="M317 -71l1 -1q-24 58 -47 159v-1q-5 17 -16 67v-2q-43 112 -110 333q-10 29 -18 62q-28 93 -32 103q-12 34 -38 125q-1 2 -3 9.5t-4 10.5q-5 11 -9 24v-2q-1 2 -5.5 18t-6.5 25q-13 45 -20 61q-3 8 -17.5 44.5t-22.5 56.5l-5 17l1 -1q-2 5 -7 15q0 3 1 3q-9 25 -13 37 t-3.5 32.5t13.5 31.5q4 2 5 3q14 12 38 1q26 -30 41 -86v1q7 -21 21.5 -60t17.5 -47q18 -47 40 -116l45 -150q8 -26 9 -29q28 -80 38 -120q16 -68 74 -237q46 -131 67 -210q2 -5 4.5 -15l3.5 -14t12 -47q0 -2 2.5 -8t3.5 -10v2q18 -54 5 -77q-19 -24 -40 -23.5t-26 15.5z " />
<glyph unicode="]" horiz-adv-x="367" d="M17 -82q-17 0 -25.5 7.5t-9.5 14t-1 18.5q0 27 17.5 34t48.5 5h20q5 0 14 0.5t14 1.5q30 3 40 2q-4 84 -4 190q0 18 6 348q1 14 1 42t1 42v-1q3 142 3 297v81q-11 1 -63 1q-48 0 -67 2q-18 4 -22 18t2 32q9 24 54 28q1 0 19 2q7 0 13 1q18 1 58 -1q1 0 6.5 -0.5t7.5 -0.5 q55 0 69 -24v1q9 -14 9 -70v-15q1 -32 -1 -88q-2 -34 -2 -48v-69q1 -20 1 -69q0 -37 -1 -56q-11 -296 -12 -519q0 -17 2 -53q2 -38 2 -56q0 -29 -2 -41q0 -1 -0.5 -3.5t-0.5 -4.5v-4.5t-0.5 -5t-0.5 -5t-0.5 -5l-1.5 -4.5t-2 -4.5t-2.5 -4t-3.5 -4.5t-5 -3.5t-6 -3.5l1 1 q-17 -9 -62 -7h-23q-6 0 -18 -0.5t-17 -0.5q-26 0 -56 2z" />
<glyph unicode="^" horiz-adv-x="565" d="M488 884l1 -3q1 -15 -14 -31t-24 -18q-23 -3 -64 38v-1l-4 5h1q-66 61 -114 116q-36 -32 -119 -113q-40 -45 -61 -46q-14 0 -27.5 12t-15.5 24q-2 21 37 55q7 5 9 8v-1q71 73 116 117h-1l45 44l40 8q64 -81 148 -161l6 -7q36 -31 41 -46z" />
<glyph unicode="_" horiz-adv-x="763" d="M675 59l3 -2q21 -15 19 -37t-26 -32q-65 -9 -226 -9h-61q-62 0 -93 -1q-72 -2 -109 -2q-79 0 -97 25q-19 29 13 50q21 9 63 7q3 0 10 -0.5t10 -0.5q29 0 58 3q57 3 58 3q8 0 25.5 -0.5t26.5 -0.5q19 0 59.5 -0.5t61.5 -0.5q79 0 148 3h8q33 2 49 -5z" />
<glyph unicode="`" horiz-adv-x="221" d="M86 1004l3 -5q30 -66 43 -101h-1l6 -14v1q24 -59 24 -79q0 -46 -52 -39q-21 21 -48 86l-6 18v-1q-2 6 -13 33v-1q-28 65 -20 96q13 16 33 18t31 -12z" />
<glyph unicode="a" horiz-adv-x="695" d="M473 446q8 -4 13 -5q0 18 2 48v52q0 29 -3 52t-12 47.5t-24.5 41t-42.5 27.5t-64 11q-120 0 -173 -86q-2 -3 -9 -21q-12 -34 -23 -41q-8 -5 -19 -4q-13 1 -26.5 13t-13.5 32q0 58 65.5 114.5t141.5 67.5q24 3 52 3q126 0 190 -76q43 -53 41 -187v-126q0 -90 0.5 -131.5 t6.5 -108t19 -112.5q4 -8 4 -21q0 -33 -35 -33q-18 0 -30 9.5t-16 20t-8 28.5q-49 -32 -94 -49.5t-107 -17.5q-88 0 -148 33q-46 30 -75 85t-29 112q0 52 30 112v-1q11 25 33.5 43.5t56.5 38.5h-1q9 7 22 13q78 38 182 38q33 0 95 -22h-1zM394 386h-2q-3 1 -13 1 q-81 0 -150.5 -28t-83.5 -79q-8 -27 -6 -56q2 -77 48 -112.5t116 -35.5q104 0 190 77q-4 32 -4 125q0 59 -1 74q-30 18 -94 34z" />
<glyph unicode="b" horiz-adv-x="685" d="M610 365v-3q-2 -125 -25 -173l-7 -17.5t-8 -19.5q-10 -27 -17.5 -43t-23 -37t-36.5 -35q-24 -16 -67.5 -29.5t-78.5 -13.5q-62 0 -132 39h1q-35 17 -66 56v-6q1 -8 1 -29q0 -44 -36 -44q-49 0 -49 72q0 2 0.5 8t0.5 9v38q-1 16 2 89q2 46 2 68q0 29 -1 44q0 7 -0.5 21.5 t-0.5 21.5v58q0 35 -1 54q-2 38 -2 59q0 15 2 43q0 21 -2 51q-2 56 -2 89q0 60 8 174q1 14 2.5 41t1.5 40q0 1 -2 17q-2 18 -2 32q0 50 37 50q47 0 44 -94v-10q0 -54 -5 -122q-5 -95 -5 -125q58 55 140 55q110 0 190 -69t108 -166v1q14 -45 22 -134q4 -40 7 -60zM510 194 q19 48 19 155q0 76 -19 152t-46 123q-24 34 -75 63.5t-86 29.5q-23 0 -40 -5t-25.5 -10.5t-22.5 -16.5q-4 -1 -10 -7q-36 -33 -47.5 -63.5t-11.5 -82.5q0 -23 2 -73t2 -74q0 -5 -0.5 -14.5t-0.5 -13.5v-50q0 -5 0.5 -16t0.5 -16t-0.5 -16t-0.5 -16v-23q7 -8 28 -39 q32 -45 51 -62q62 -49 125 -49q9 0 21 2q59 13 86.5 40.5t49.5 81.5zM206 679l-1 -1l-2 -1z" />
<glyph unicode="c" horiz-adv-x="646" d="M552 233l3 -2q13 -7 13 -27q0 -32 -29 -80.5t-60 -76.5q-31 -25 -79.5 -39t-96.5 -14q-72 0 -125.5 32t-84.5 89t-45.5 126.5t-14.5 152.5q0 147 49 246q35 69 95.5 120t132.5 51q180 -5 236 -150q6 -20 6 -29q0 -12 -8 -25t-26 -13q-19 0 -29 16q-30 39 -32 41 q-19 27 -31 40t-37.5 25.5t-58.5 12.5q-91 0 -152 -93q-62 -94 -62 -257q0 -89 35 -196q16 -47 57 -78.5t95 -31.5q85 0 117 29q30 25 54 70v-1q1 2 2 6t2 7t2 5q4 16 8 25.5t14 17.5t25 8q11 0 25 -7z" />
<glyph unicode="d" horiz-adv-x="692" d="M602 126l-1 1q1 -6 8 -26q12 -36 12 -50q0 -40 -38 -40q-21 0 -36 26.5t-22 63.5q-3 -2 -5 -5q-37 -47 -95 -74t-110 -27q-35 0 -78.5 13.5t-67.5 29.5q-54 36 -86 136q-19 38 -19 73q-1 1 -2 7q-8 56 -8 102q0 17 0.5 35t7 65t18 87t36 88.5t57.5 82.5t87 57.5t121 23.5 q76 0 139 -56v1q0 63 -5 133q-4 78 -4 113v10q-3 94 44 94q35 0 35 -51q0 -13 -2 -31q-1 -8 -1 -16q1 -29 5 -89q7 -119 7 -157q0 -39 -2 -107q0 -5 -0.5 -21t-0.5 -22q2 -26 2 -43q0 -21 -2 -59q-1 -19 -1 -54v-58q0 -7 -0.5 -21.5t-0.5 -22.5q-1 -14 -1 -43v-58 q0 -68 9 -111zM514 337v23q0 4 -0.5 12.5t-0.5 13.5q0 24 2 74q3 72 3 73q0 50 -13 82.5t-48 63.5q-15 13 -25 20t-30 13.5t-44 6.5q-35 0 -84.5 -30t-73.5 -64q-7 -11 -10 -19q-1 -2 -3.5 -8.5t-4.5 -9.5l1 1q-48 -92 -48 -240q0 -126 42 -202t132 -76q63 0 126 49 q22 18 53 64v-1q15 25 25 37v57q0 42 1 60z" />
<glyph unicode="e" horiz-adv-x="656" d="M186 371q-38 -8 -60 -10v-2q0 -50 14.5 -114.5t34.5 -92.5q48 -70 140 -70q60 0 120 16q5 1 9 2.5t8 4t6.5 4t6.5 5.5l5.5 5.5t6.5 7.5t7 8q27 20 44 20q13 0 24 -9.5t11 -26.5q0 -36 -64 -79q-55 -35 -186 -35q-67 0 -93 10q-51 19 -88 64.5t-54 100.5q-32 116 -32 203 q0 125 54 247q31 63 97 116.5t152 53.5q111 0 165 -81.5t54 -223.5q0 -2 0.5 -5.5t0.5 -5.5q4 -61 -40 -67q-46 -8 -172 -23q-79 -9 -137 -18q-8 -1 -34 -5zM403 708h1q-25 11 -57 11q-49 0 -88.5 -24.5t-64.5 -66.5t-40.5 -87t-22.5 -95q1 0 5 1t5 1q252 35 349 45 q-6 93 -23 144t-64 71z" />
<glyph unicode="f" horiz-adv-x="389" d="M392 736v-7q0 -16 -9 -27t-20 -16.5t-32.5 -8t-34.5 -3t-38 -0.5h-36q4 -50 6 -76q11 -117 11 -198q0 -21 -2 -55t-2 -51q0 -51 1 -67q0 -5 0.5 -12.5t0.5 -9.5q0 -23 -1 -31v1q-2 -24 -2 -74q0 -38 -9.5 -71t-34.5 -33q-16 0 -28.5 13t-12.5 31q0 11 2 25q0 6 1 17.5 t1 12.5v28v36q0 7 1.5 17.5t0.5 18.5q-4 38 -4 85q0 28 2 84q3 84 3 86q0 13 -8 130q-1 9 -4 37t-4 49h-8h-29q-4 0 -11.5 0.5t-12.5 0.5h-11q-51 0 -51 43q0 42 84 42q3 0 9 -0.5t9 -0.5h16q4 111 19 154q12 36 59 65.5t88 29.5h13q2 0 9 -0.5t10 -0.5l25 -7q16 -12 16 -29 q0 -12 -5 -20t-10.5 -12t-18.5 -6.5t-19.5 -3t-22.5 -0.5q-20 0 -30 -3h1q-23 -9 -35 -39t-13.5 -52.5t-1.5 -60.5v-9h46q17 0 30 2q30 4 50 4q43 0 47 -28z" />
<glyph unicode="g" horiz-adv-x="685" d="M582 72q0 -65 -30 -146v1q-35 -96 -114.5 -134t-205.5 -38q-47 0 -91 22h2q-48 21 -48 49q0 20 13 29t29 9q20 0 42 -12h-1q30 -15 62 -15q14 0 42 4t40 4q50 4 69 15v-1q50 27 77 90t29 137q-36 -43 -92 -68.5t-104 -25.5q-36 0 -79 13t-68 30q-53 36 -86 134 q-14 30 -18 63l-3 17q-12 79 -7 132q0 5 1 12t1 8q0 38 19 133q1 3 3 11.5t3 11.5q30 99 106 166.5t191 67.5q51 0 93 -21q36 -21 72.5 -60.5t44.5 -75.5h-1q9 -37 9 -86q0 -19 -2 -59q-1 -19 -1 -56q0 -3 0.5 -10t0.5 -11v-18q0 -34 -1 -51q-2 -34 -2 -51q0 -25 2 -77 q2 -50 2 -78v-40q0 -5 0.5 -13t0.5 -12zM494 408q0 20 2 62q1 21 1 62q0 52 -10 80t-45 59q-16 14 -24.5 20t-28 12.5t-44.5 6.5q-37 0 -84.5 -27t-72.5 -62l1 1q-67 -107 -67 -280q0 -126 42 -197.5t131 -71.5q60 0 123 47q17 14 50 60q3 5 8 12.5t9.5 13.5t9.5 12 q0 5 -0.5 16t-0.5 17q-1 13 -1 44q0 3 0.5 10t0.5 11v17q0 2 -0.5 7.5t-0.5 8.5v37q0 4 0.5 11t0.5 11z" />
<glyph unicode="h" horiz-adv-x="689" d="M154 746q-1 -10 -1 -28q4 4 6 5q36 31 91 51t113 20q77 0 138.5 -40.5t79.5 -112.5q8 -33 8 -88v-69q0 -102 -1 -153q-2 -96 -2 -155q0 -21 2 -63q2 -44 2 -69q0 -57 -42 -57q-26 0 -35 15t-9 44v18v20v72q-2 96 -2 158q0 10 0.5 28.5t0.5 27.5v148q0 5 0.5 17t0.5 19 q0 75 -36 117t-106 42q-71 0 -141 -47.5t-70 -82.5v-16q0 -3 -0.5 -10.5t-0.5 -10.5q-1 -6 -1 -15v-23q0 -3 0.5 -11t0.5 -13q0 -61 -7 -227q-4 -84 -4 -173v-39q0 -18 -2 -28t-12 -18t-30 -8q-38 0 -38 45q0 17 1 23q0 3 0.5 7t0.5 6q0 3 -0.5 6t-0.5 5q-1 5 -1 20 q0 81 7 207q1 12 1 39v-1q7 145 7 239q0 9 -0.5 25t-0.5 24q-1 15 -1 52q0 16 2 56q3 60 3 64q0 5 -0.5 15.5t-0.5 14.5v46q0 2 0.5 8t0.5 9q0 18 -2 58t-2 65q0 38 8 56t32 18q26 0 34.5 -16.5t8.5 -53.5q0 -5 -0.5 -15t-0.5 -15v-21q0 -36 1 -55q2 -40 2 -61 q0 -45 -2 -115z" />
<glyph unicode="i" horiz-adv-x="254" d="M94 1001q43 9 83.5 -15.5t47.5 -66.5q3 -24 -6.5 -51.5t-30.5 -39.5q3 0 4 1q-7 -7 -13 -9q-11 -7 -20 -7q-35 -7 -76.5 7t-56.5 36q-12 17 -12 45q0 34 24 64t56 36zM141 885v1q-1 0 -1 -2v-2v1q1 1 1 2zM147 887l-6 -1q4 0 6 1zM94 905q-1 -12 13 -16t34 -3l1 3 q2 12 -3.5 23.5t-14.5 12.5q-12 2 -20 -4.5t-10 -15.5zM155 739v-498q0 -6 -0.5 -18t-0.5 -18q0 -7 -0.5 -19t-0.5 -17q0 -40 10 -69q3 -8 23 -33l-1 2l11 -10h-1q23 -23 23 -38t-12 -25.5t-21 -13.5q-42 -9 -84 61q-27 44 -30 97q-1 15 -1 48q0 44 1 67q0 11 0.5 34t0.5 34 q0 20 -0.5 58.5t-0.5 57.5v104q0 125 6 199q2 19 21 27.5t37.5 0.5t19.5 -31z" />
<glyph unicode="j" horiz-adv-x="252" d="M95 1000q44 8 84 -16t47 -67q4 -24 -4 -51.5t-29 -37.5l-2 -2l-6 -5l-1 -1q-9 -6 -29 -8q-34 -7 -73.5 7t-54.5 36q-13 21 -13 45q0 34 24.5 64t56.5 36zM142 883h-1v-3l1 1v2zM142 883l7 3q-2 -1 -7 -1v-2zM95 904q-3 -23 47 -19v1q3 13 -2.5 24.5t-14.5 13.5 q-11 2 -19.5 -4.5t-10.5 -15.5zM113 774h19q11 -5 18.5 -16t8.5 -18q3 -40 3 -90q0 -45 -4 -137q-4 -78 -5 -120q0 -8 -0.5 -22.5t-0.5 -21.5q0 -27 5 -144q1 -7 1 -24t1 -24q0 -9 0.5 -19.5t1.5 -23t1 -20.5q5 -87 3 -109q-5 -59 -36 -106q-21 -31 -57 -50q-49 -23 -90 -30 q-41 -6 -67 5t-23 43q0 5 2 9t4 7t6.5 5.5t7.5 3.5t9.5 2.5t10 2t11.5 1.5t11 1q42 5 49 7q39 13 49 23q30 28 30 111q0 33 -5 80q-2 25 -2 78v38q-4 108 -4 173q0 11 2 33q2 18 2 26q0 49 2 149q3 138 3 139q-2 21 5.5 29.5t27.5 8.5z" />
<glyph unicode="k" horiz-adv-x="715" d="M180 592q-2 -35 -4 -105h1q172 0 263 137q40 57 53 102l-1 -2q0 2 1 8.5t2 8.5q2 19 4.5 28t13.5 18t32 9q16 0 24.5 -8t9.5 -16t1 -22q0 -72 -67 -165q-5 -7 -12 -18v1q-3 -4 -4 -6t-1 -2.5t-0.5 -1.5t-1.5 -2.5t-5 -4.5q32 -12 59 -39q24 -24 43.5 -62t19.5 -70 q0 -57 1 -82q0 -13 0.5 -38t0.5 -39v-29q0 -9 0.5 -24.5t0.5 -22.5v-58q0 -2 0.5 -7t0.5 -9q1 -7 1 -27q0 -28 -8 -41.5t-32 -13.5q-16 0 -27.5 8.5t-11.5 22.5q-5 108 -5 231q0 8 0.5 24t0.5 24v42q0 63 -38 107q-30 36 -59 36q-12 0 -45 -20q-42 -23 -55 -28l-12 -4 t-14 -4q-68 -24 -122 -24h-12q-6 -78 -6 -152q0 -35 2 -107q0 -18 0.5 -56.5t0.5 -58.5q0 -39 -42 -39q-40 0 -40 85v18q0 9 -0.5 33t-0.5 38q-1 27 -1 89q0 69 2 103q10 178 12 476q0 11 -0.5 33t-0.5 34v67q0 7 -2 33q-2 30 -2 50q0 35 9 51t34 16q39 0 39 -57v-26 q0 -4 -0.5 -12.5t-0.5 -13.5q0 -46 3 -96q4 -70 4 -111q0 -75 -6 -209z" />
<glyph unicode="l" horiz-adv-x="252" d="M161 1051v-627q0 -4 -0.5 -18t-0.5 -24q0 -13 -0.5 -47t-0.5 -54q0 -134 11 -162h-1q5 -9 24 -33l-1 2l10 -10h-1q24 -22 24 -38q0 -14 -13 -25t-23 -13h4q-38 -9 -86 60q-24 38 -30 97q-2 30 -2 72q0 6 3 180q1 40 1 94q0 16 -0.5 58t-0.5 66q0 23 -0.5 74t-0.5 78 q0 181 7 272q1 15 13 24t26 9.5t25.5 -9t12.5 -26.5z" />
<glyph unicode="m" horiz-adv-x="857" d="M78 791h2q20 5 33 -2t18 -17.5t10 -28.5q67 52 147 52q22 0 39 -5q75 -21 111 -83q31 31 79 53.5t96 22.5q35 0 69 -14q32 -15 55 -55.5t28 -88.5q1 -16 -1 -75q-1 -15 -1 -45q0 -34 -2 -100q-3 -114 -3 -119q0 -107 -2 -141q-1 -7 2 -50q2 -30 1 -46q-1 -21 -14.5 -39.5 t-39.5 -12.5q-29 11 -29 62v23q-1 28 -1 98v96q0 66 3 138q4 86 4 129q0 87 -11 116v-1q-8 18 -32.5 27t-53.5 7q-55 -6 -116 -77q7 -56 7 -153q0 -14 -0.5 -41.5t-0.5 -41.5q0 -9 -0.5 -27t-0.5 -27v-117q0 -48 1 -69q0 -13 1 -21q2 -24 2 -37q0 -74 -50 -76 q-16 0 -24.5 11.5t-9.5 23.5t0 33v19q0 31 1 45q0 6 0.5 16t0.5 15t-0.5 15.5t-0.5 16.5q-2 58 -2 94q-1 17 -1 60q0 41 1 62v22q0 9 0.5 27t0.5 28q0 81 -12 132q-8 34 -35.5 61t-63.5 27q-13 0 -25 -3q-63 -18 -75 -34q-4 -8 -7 -11q-12 -15 -16 -35q2 -40 4 -60 q1 -12 2.5 -35.5t1.5 -34.5q2 -52 2 -163q0 -135 3 -200q0 -7 2 -23q3 -48 3 -51q0 -15 -2 -35q-6 -18 -29 -23.5t-36 5.5q-17 14 -17 64q0 24 -1 34q-2 23 -2 84v73q0 5 0.5 16t0.5 17q0 186 -15 351q-2 24 -6 54q-3 12 -8 22q-12 21 -10.5 39t25.5 27z" />
<glyph unicode="n" horiz-adv-x="652" d="M567 583v-1q0 -40 -8 -132q-7 -82 -7 -137q0 -22 2 -84q4 -64 4 -96v-19q0 -4 0.5 -13.5t0.5 -14.5q0 -85 -42 -85t-42 69q0 16 2 36q1 8 1 21q-2 56 -3 83q-4 84 -4 132q0 39 6 105q5 52 5 93q0 65 -12 90q-17 33 -52.5 55.5t-75.5 22.5q-63 0 -117 -46q-48 -43 -63 -80 q2 -62 2 -94q0 -30 -5 -167q-4 -110 -4 -164q0 -6 0.5 -18.5t0.5 -19.5q1 -12 1 -43v-6q0 -16 -0.5 -22t-3.5 -18.5t-12.5 -18t-24.5 -5.5q-24 0 -33 13.5t-9 41.5v19q0 4 0.5 12t0.5 11t-0.5 9t-0.5 9v19q0 28 2 80.5t2 70.5q5 88 5 160v51q0 11 0.5 31t0.5 30q0 75 -8 131 v-1q-3 15 -8 25q-8 16 -8 31q0 14 9.5 24.5t28.5 10.5q24 0 34 -16t17 -45q0 -1 1 -3.5t2 -6.5t2 -9q86 84 189 84q91 0 154 -56t70 -149z" />
<glyph unicode="o" horiz-adv-x="627" d="M563 502q4 -28 4 -76q1 -86 -41 -225l-6 -18q-27 -81 -45 -109q-55 -79 -182 -79q-75 0 -124 32q-59 40 -96 133t-37 194q0 96 42 220q34 96 102 158t168 62q162 0 215 -292zM490 406q0 31 -6 76t-20 101t-45.5 94.5t-73.5 38.5q-150 0 -201 -205q-2 -5 -4.5 -15 l-3.5 -14q-23 -92 -23 -126q0 -116 45.5 -200.5t118.5 -84.5q69 0 98.5 16.5t48.5 55.5q1 2 6.5 16.5t7.5 20.5q49 122 52 207v19z" />
<glyph unicode="p" horiz-adv-x="679" d="M66 139v-91q0 -329 36 -336q30 0 40.5 18t10.5 64q0 13 -2 61q-3 102 -3 122v112q36 -41 93 -67.5t105 -26.5q34 0 77.5 13t69.5 30q52 35 86 136l1 2q15 43 17 55v-4q7 31 5.5 118t-7.5 125q-55 324 -312 324q-51 0 -91 -21q-35 -19 -72.5 -58.5t-46.5 -77.5 q-8 -39 -8 -86q0 -42 1 -59q2 -40 2 -57q0 -3 -0.5 -9t-0.5 -10v-19q0 -35 1 -52q2 -34 2 -50q0 -24 -2 -76t-2 -80zM148 213l-4 14q2 -4 4 -7v-7zM148 220v24q0 5 0.5 16t0.5 17q0 5 -0.5 15.5t-0.5 15.5v50q0 4 0.5 14.5t0.5 15.5q-1 8 -1 23q0 19 -2 61q0 11 -0.5 31 t-0.5 30q0 71 20 104q54 81 139 81q35 0 85 -30t73 -63q66 -106 66 -275q0 -97 -19 -155.5t-61 -94.5l-11 -5l2 2q-56 -26 -87 -26q-23 0 -58 12.5t-67 36.5q-23 18 -52 62q-3 4 -12.5 18t-14.5 20z" />
<glyph unicode="q" horiz-adv-x="692" d="M637 -208l1 -1q7 -9 7 -22q0 -17 -12.5 -28.5t-28.5 -11.5q-95 0 -95 360q-36 -41 -92.5 -67.5t-104.5 -26.5q-36 0 -79.5 13t-68.5 30q-50 33 -85 133q-17 42 -19 61l-7 30q-4 74 6 214q6 44 19.5 85.5t39 85t59.5 75t85 52t112 20.5q52 0 91 -21q35 -19 72.5 -58.5 t46.5 -77.5q8 -39 8 -86q0 -21 -2 -59q-1 -17 -1 -57v-19q0 -3 0.5 -9.5t0.5 -9.5q0 -9 -0.5 -26t-0.5 -26q-1 -17 -1 -50q0 -11 0.5 -32.5t0.5 -32.5q2 -42 2 -67q0 -7 -0.5 -20t-0.5 -20v-35q0 -65 5 -115q1 -6 2 -17.5t1 -17.5q3 -39 5 -58t10.5 -44.5t23.5 -43.5z M430 120q23 18 52 62q3 4 12 17.5t15 21.5q0 5 -0.5 16.5t-0.5 17.5v43q0 3 0.5 10t0.5 11v39q0 4 -0.5 14.5t-0.5 15.5q1 8 1 23q0 19 2 61t2 61q0 72 -21 104q-19 32 -54.5 56.5t-84.5 24.5q-36 0 -86 -29.5t-73 -63.5q-64 -99 -64 -275q0 -180 82 -251l6 -2 q54 -26 87 -26q63 0 125 49z" />
<glyph unicode="r" horiz-adv-x="398" d="M73 741q23 0 47 -37q70 103 192 103q26 0 55.5 -13t29.5 -35q0 -13 -14 -28.5t-32 -15.5q-14 0 -29 5h1q-7 3 -18 3q-58 0 -100 -43.5t-42 -93.5q0 -20 8 -58q1 -3 7 -47q5 -60 5 -124q0 -44 -1 -66q0 -8 -0.5 -31.5t-0.5 -31.5v-18q0 -2 0.5 -8t0.5 -9q0 -38 -1 -56 q-2 -34 -2 -56q0 -19 1 -30q2 -20 2 -33q0 -19 -13 -29.5t-30 -10.5q-10 0 -18 4.5t-12 15.5t-6.5 18t-3.5 24t-1 21v21v7q0 40 1 59q2 36 2 61v110q0 235 -44 333l-8 14l-1 1h1q-14 22 -14 37q0 18 13.5 27.5t24.5 9.5z" />
<glyph unicode="s" horiz-adv-x="587" d="M427 390l1 -1q82 -64 82 -171q0 -70 -53 -150q-60 -83 -177 -83h-4q-59 0 -112.5 32t-86.5 79q-26 35 -26 58q0 14 11 28t31 14q5 0 9 -1t8 -4l6 -4.5t5.5 -7t4.5 -7t4.5 -8.5t3.5 -8q3 -5 6 -11l-1 1q18 -31 56 -53.5t75 -22.5q73 0 114.5 41t41.5 108q0 2 -0.5 5.5 t-0.5 6.5q-1 5 -1 19q-5 21 -14.5 38.5t-27.5 31t-30 22t-41 19t-40.5 14.5t-47.5 15q-4 2 -12.5 4t-12.5 3h1q-67 22 -82 32q-26 19 -47 58.5t-21 77.5q0 49 21 86t62 75q14 13 35 27.5t63 30.5t84 16t87 -27q25 -16 55.5 -58t30.5 -65q0 -15 -11.5 -27t-23.5 -12 q-15 0 -29 18l-2 1q-11 13 -26 34q-13 18 -21.5 27.5t-27.5 19t-44 9.5q-42 0 -87.5 -32.5t-64.5 -71.5l-2 -4q-2 -3 -4 -7.5t-3 -6.5q-7 -12 -7 -22q0 -27 10 -49.5t26 -29.5q34 -12 51 -17q143 -48 206 -90z" />
<glyph unicode="t" horiz-adv-x="306" d="M128 981q47 0 47 -82v-59q-2 -27 -1 -39q7 -1 20 -1q2 0 6.5 0.5t8.5 0.5q6 1 26 1t32 -1t24.5 -4.5t18 -12t5.5 -22.5q0 -26 -24.5 -36t-75.5 -10q-33 0 -42 1v-66q0 -50 2 -160q0 -29 0.5 -88t0.5 -90v-36q0 -6 -0.5 -18.5t-0.5 -18.5q0 -156 46 -175q3 -1 14 -1 q15 -2 23 -4.5t15 -11.5t7 -24q0 -39 -52 -39q-102 0 -125 143q-8 60 -8 208q0 37 -2 115q-2 74 -2 112v164q-3 1 -9.5 1.5t-9.5 0.5q-24 4 -32.5 5.5t-26 6.5t-25.5 13.5t-10 21.5q3 44 51 44q15 0 52 -7q4 -1 7 -3t6 1v22q0 6 -0.5 17.5t-0.5 16.5v37v4q0 16 0.5 25 t3.5 22t11 19.5t20 6.5z" />
<glyph unicode="u" horiz-adv-x="692" d="M588 77v-2l4 -8q9 -18 9 -29q0 -19 -12.5 -30t-29.5 -11t-28.5 12.5t-16.5 26.5t-10 36q-24 -19 -53 -38h1q-5 -3 -14.5 -9t-11.5 -8h1q-41 -29 -96 -29q-70 -1 -132 33.5t-86 78.5q-23 43 -29.5 99t-6.5 141q0 51 -1 76q0 10 -1 33t-2 33q-4 120 -4 188v16v7v26t1 25.5 t3.5 26t6 19.5t10 15t15.5 5q14 0 23 -4t13.5 -8t6.5 -15t2 -15.5v-18.5t-2 -32q-1 -9 -1 -23q0 -18 2 -60q3 -66 3 -67v-40q0 -29 2 -55q3 -53 3 -105q2 -160 27 -221v1q16 -31 57 -55t81 -24q42 0 93 39q5 4 50 46q3 3 10 9l14 12q-4 44 -4 100q0 33 2 101q2 62 2 102 q0 15 -5 108q-5 67 -5 135v20q0 68 39 68q45 0 45 -59q0 -3 -0.5 -9t-0.5 -9v-15q-1 -35 4 -140v1q5 -67 5 -130q0 -34 -2 -98q-2 -66 -2 -97q0 -109 21 -175z" />
<glyph unicode="v" horiz-adv-x="593" d="M542 795q14 -14 14 -37q0 -19 -12 -53l-2 -4q-14 -46 -32 -93q-50 -139 -66 -215q-22 -100 -86 -275v1q-1 -3 -3.5 -9.5t-3.5 -9.5q-1 -5 -4 -13.5t-4 -12.5q-12 -55 -44 -75h-21q-32 21 -46 77l-6 24q-69 191 -91 293q-12 46 -42 140l-6 18q-6 23 -26 73 q-40 100 -40 134q0 32 28 46q16 0 27 -5.5t18 -18t10.5 -21t8.5 -26.5v1q1 -3 3.5 -11.5t4.5 -13.5q37 -102 99 -315q54 -180 68 -220q9 28 69 220q62 213 99 315l1 2l7 21q5 18 8 26.5t9.5 21t16 18.5t22.5 6t22 -9z" />
<glyph unicode="w" horiz-adv-x="804" d="M188 783l2 -6q2 -5 2 -16q0 -19 -17 -79q-4 -14 -10 -36q-26 -118 -26 -243q0 -321 132 -321h-1q37 2 67 78q14 34 16 116v20v14q0 22 1.5 35.5t10.5 26.5t26 13q28 0 38 -22.5t10 -76.5q0 -74 -24 -149q9 -23 31.5 -37t50.5 -14q39 0 66.5 28t40.5 75t18 93t5 97 q0 106 -37 289v-1q-6 28 -11 55l-1 1v1q-6 14 -6 31q0 12 8.5 24t23.5 15q60 0 96 -239q13 -81 13 -170q0 -377 -232 -377q-56 0 -110 52q-43 -61 -102 -61q-58 0 -100.5 33.5t-66 91.5t-34 125t-10.5 144q0 247 66 394q14 16 28 16q19 0 36 -20z" />
<glyph unicode="x" horiz-adv-x="629" d="M285 501q4 -8 12 -22.5t12 -21.5q18 29 28 50q2 4 11 20.5t14 24.5q12 21 33 51q7 11 21 32.5t21 31.5q3 6 14 27q2 4 8 15t9 16l9 15t9.5 15.5t9.5 14t10.5 13t10 9t10.5 7t10 2.5q15 0 28.5 -13t13.5 -27q-10 -29 -37 -76q-2 -2 -5 -6.5t-4 -7.5q-6 -11 -19 -32 t-20 -32q-8 -13 -27 -44t-29 -48q-14 -21 -18 -31q-6 -10 -20.5 -34.5t-25 -41t-23.5 -33.5q110 -201 185 -293q28 -35 28 -56q0 -13 -10 -26.5t-29 -13.5q-31 0 -105 114h1q-7 6 -8 11q-2 3 -10 15.5t-13 19.5q-71 109 -91 150q-12 -17 -34.5 -55t-29.5 -48 q-49 -80 -114 -165l-1 -1q-23 -34 -46 -34q-18 0 -29 14t-11 25q0 17 21 42q1 2 4.5 6t4.5 6q13 19 37 52h-1q33 45 51 76q16 29 53 82q29 38 53 81q-7 12 -18 34.5t-18 34.5q-78 151 -146 266v2q-21 30 -21 48q0 34 37 34q18 0 40.5 -26t36.5 -51t37 -70q4 -8 10.5 -21.5 t9.5 -19.5v1q5 -10 27.5 -50t32.5 -59v1z" />
<glyph unicode="y" horiz-adv-x="712" d="M600 611q-2 -70 -2 -102q0 -57 2 -171q0 -28 1 -85t1 -86q0 -131 -31 -216q-36 -96 -115 -133.5t-203 -37.5q-18 0 -56 9t-53 17q-57 21 -44 58q4 18 25.5 24t40.5 2.5t24 -7.5q7 -3 14 -7h-1q30 -15 60 -15q106 0 152 23v-1q93 51 106 211q-95 -110 -207 -110 q-53 0 -102 25t-81 66q-14 20 -25 56q-1 2 -2 5l-1 5q-39 103 -39 214q0 41 6 123v-1v10q22 314 71 314q16 0 27.5 -12t11.5 -29q0 -7 -2 -17q-2 -6 -2 -7q-30 -190 -30 -373q0 -96 18 -156q48 -147 161 -147q24 0 56 15t49 34q72 80 92 143q0 47 -4 115q-4 100 -4 155 q0 19 2 59q2 38 2 65q0 5 -4 37q-5 47 -5 63q0 30 9.5 43.5t34.5 13.5q15 0 25.5 -7.5t10.5 -22.5q1 -20 5 -53q6 -62 6 -94v-15z" />
<glyph unicode="z" horiz-adv-x="639" d="M493 86h5q16 0 25 -1t22 -4t19 -12t6 -23q0 -24 -21 -34.5t-49 -10.5q-35 0 -52 1q-5 0 -17.5 0.5t-16.5 0.5q-8 -1 -28 -2t-26 -1q-75 -5 -92 -5q-81 0 -183 6q-19 2 -26 9.5t-7 21.5q-2 16 16 57l1 2l2 4t1 3q30 77 105 228q10 19 40 65q6 8 15 23q99 154 213 293h-24 q-9 0 -28.5 0.5t-29.5 0.5q-19 0 -59 -2t-62 -2q-29 0 -42 1q-7 0 -19 0.5t-18 0.5q-4 0 -10 -0.5t-9 -0.5h-19q-51 0 -56 35v10q4 22 19 28t45 6q16 0 42 -2q13 -1 37 -1q12 0 24.5 0.5t27.5 1.5t24 1q39 3 81 3q8 0 25.5 -0.5t26.5 -0.5q17 -1 53 -1q14 0 23 1 q4 0 13.5 0.5t13.5 0.5q47 0 47 -47q0 -21 -28 -47h1l-10 -9q-23 -23 -43 -53q-15 -20 -34 -42q-71 -80 -173 -247l-14 -22q-70 -113 -117 -241q17 -1 50 -1q31 0 88.5 2t77.5 2q32 2 124 4z" />
<glyph unicode="{" horiz-adv-x="341" d="M211 615q-7 -58 -36 -107q43 -44 46 -128q1 -34 -5 -106q-7 -70 -7 -89v-19q0 -47 1 -71t6.5 -55.5t17.5 -47.5q4 -6 16 -12q31 -17 33 -35q3 -19 -10.5 -32.5t-29.5 -15.5q-13 0 -39 16.5t-39 29.5q-10 14 -20.5 42.5t-12.5 47.5q-1 3 -1.5 11t-0.5 11q0 5 -2 21 q-2 20 -2 63v41q0 16 4 40v-1q0 3 1 16l2 18v-5q1 13 1 36q0 28 1 40v-1q2 30 2 43q0 53 -16 76q-1 1 -14 9q-21 9 -29 25q-12 25 25 73q2 2 5.5 6.5t5.5 7.5t2 4q6 15 12 53q4 24 4 71v140q0 35 1 52q1 11 1 34q1 43 3.5 65.5t13.5 52t32 46.5q25 19 52 22q32 5 53 -4.5 t21 -34.5q-1 -33 -61 -42q-12 -3 -15 -3l1 1q-19 -11 -19 -120v-135q0 -7 0.5 -23t0.5 -23q0 -49 -5 -104z" />
<glyph unicode="|" horiz-adv-x="252" d="M105 -101l-8 4q-22 22 -20 79v4q1 64 1 263q0 201 2 267q1 16 -4 190q-3 81 -3 139v77q0 33 -1 47q-4 32 -4 47q0 56 35 63q16 2 26.5 -1.5t14.5 -12.5t5.5 -20t2.5 -25v-6t0.5 -4.5t0.5 -5.5q1 -3 2 -11.5t1 -12.5v1q2 -8 2 -19q1 -35 1 -184q0 -123 1 -148q2 -32 2 -53 q0 -8 -0.5 -25.5t-0.5 -26.5t-0.5 -29t-0.5 -31v-219q0 -195 -2 -250q0 -2 0.5 -10.5t0.5 -12.5q4 -43 -8 -59q-21 -25 -46 -15z" />
<glyph unicode="}" horiz-adv-x="342" d="M73 -82l-4 11q-3 23 5 32.5t26 14.5l-1 -1q6 2 12 6l-1 -1q18 13 18 65q0 23 -1 36q0 4 -0.5 14t-0.5 15q0 10 0.5 32t0.5 32q1 23 1 72v99q0 126 29 178q-1 1 -4 7v-1q-21 26 -27 47q-1 2 -1.5 7.5t-0.5 7.5q0 3 -2 13q-1 3 -3 22q0 2 -0.5 5.5t-0.5 4.5q0 4 -0.5 14.5 t-0.5 16.5q0 5 0.5 18t0.5 19q2 14 2 19q1 18 1 55v122q0 6 0.5 17t0.5 17q0 63 -23 86q-10 3 -16 5q-1 0 -24 7h1q-22 9 -30.5 25.5t1 31.5t36.5 19q45 4 86 -23q53 -39 55 -153v-63q0 -105 -5 -167q-2 -26 -2 -38q0 -58 17 -82q4 -6 14 -14q21 -19 22 -26q3 -24 -21 -48 q-7 -9 -7 -10q-17 -34 -17 -116q0 -44 1 -67q2 -48 2 -73q0 -56 -1 -82q0 -8 -0.5 -31t-0.5 -31q2 -116 -48 -161q-22 -19 -45.5 -22.5t-43.5 17.5z" />
<glyph unicode="~" horiz-adv-x="788" d="M695 590v-2q0 -4 -1 -8t-3.5 -8t-4.5 -7t-6 -7l-6 -6t-7.5 -7t-6.5 -6h1q-3 -3 -7.5 -7t-5.5 -5v1q-155 -166 -178 -166q-7 0 -14 2t-14.5 7.5t-11 8t-11.5 10.5l-8 8l-3 3l-1 2h1q-73 69 -113 117q-56 -52 -118 -115l-5 -5q-38 -38 -56 -40q-15 0 -29 11t-15 26 q0 21 42 58l4 5v-1q35 36 121 122l39 39l39 7q50 -61 152 -161q78 72 121 116l6 5q37 40 57 40q14 0 27 -12t15 -25z" />
<glyph unicode="&#xde;" horiz-adv-x="916" d="M823 244v-41q0 -5 0.5 -13.5t0.5 -12.5q0 -55 -16 -111q-12 -41 -42 -69q-55 -49 -116 -49q-13 0 -43.5 6t-69 17t-67 34t-28.5 52q0 16 11.5 28t31.5 12q16 0 46 -26q5 -9 11 -11q43 -30 105 -30h8q44 11 63.5 37.5t19.5 91.5q0 1 -0.5 5t-0.5 6q-55 -44 -128 -44 q-43 0 -75 15t-50 39t-29 61t-14.5 72t-3.5 81q0 13 0.5 41t0.5 42v80q0 52 -3.5 86t-13.5 66.5t-30.5 53t-53.5 30.5q-30 10 -71 10q-49 0 -92.5 -24t-43.5 -57q0 -13 13 -54q6 -18 11 -35q16 -63 16 -142q0 -54 -10 -162q-3 -31 -5 -106q-3 -106 -14 -165t-44 -59 q-42 0 -42 62q0 15 2 31q26 247 26 385q0 75 -13 136l-2 5q-2 5 -5 13t-5 13l1 -1q-17 40 -17 67q0 30 11.5 60t28.5 47h-1q26 26 84.5 49t108.5 23q41 0 104 -19h-1q84 -26 116.5 -95.5t32.5 -177.5q0 -9 -0.5 -29t-0.5 -29q-1 -19 -1 -56v-26v-48.5t1 -44t3.5 -43 t6.5 -35.5t10.5 -32.5t16 -22.5t22.5 -16.5t30 -4.5q69 0 126 86q4 105 4 219q0 90 -1 138q-2 104 -2 167q0 60 40 60q30 0 39.5 -47t9.5 -131v-109q0 -160 -7 -349z" />
<glyph unicode="&#xe0d;" horiz-adv-x="916" d="M823 244v-41q0 -5 0.5 -13.5t0.5 -12.5q0 -55 -16 -111q-12 -41 -42 -69q-55 -49 -116 -49q-13 0 -43.5 6t-69 17t-67 34t-28.5 52q0 16 11.5 28t31.5 12q16 0 46 -26q5 -9 11 -11q43 -30 105 -30h8q44 11 63.5 37.5t19.5 91.5q0 1 -0.5 5t-0.5 6q-55 -44 -128 -44 q-43 0 -75 15t-50 39t-29 61t-14.5 72t-3.5 81q0 13 0.5 41t0.5 42v80q0 52 -3.5 86t-13.5 66.5t-30.5 53t-53.5 30.5q-30 10 -71 10q-49 0 -92.5 -24t-43.5 -57q0 -13 13 -54q6 -18 11 -35q16 -63 16 -142q0 -54 -10 -162q-3 -31 -5 -106q-3 -106 -14 -165t-44 -59 q-42 0 -42 62q0 15 2 31q26 247 26 385q0 75 -13 136l-2 5q-2 5 -5 13t-5 13l1 -1q-17 40 -17 67q0 30 11.5 60t28.5 47h-1q26 26 84.5 49t108.5 23q41 0 104 -19h-1q84 -26 116.5 -95.5t32.5 -177.5q0 -9 -0.5 -29t-0.5 -29q-1 -19 -1 -56v-26v-48.5t1 -44t3.5 -43 t6.5 -35.5t10.5 -32.5t16 -22.5t22.5 -16.5t30 -4.5q69 0 126 86q4 105 4 219q0 90 -1 138q-2 104 -2 167q0 60 40 60q30 0 39.5 -47t9.5 -131v-109q0 -160 -7 -349z" />
<glyph unicode="&#xff;" horiz-adv-x="1942" d="M1620 1414q-28 32 -80.5 82t-59.5 50q-5 0 -13 -2t-12 -2q12 -13 45.5 -44t53.5 -53t28 -38q-24 -64 -75 -185t-70 -170q-20 -58 -69 -170.5t-69 -172.5q-1 -8 -8 -20t-9 -18q-7 -21 -29 -75t-26 -71q-16 -31 -40.5 -94.5t-35.5 -88.5q-3 -9 -15.5 -38t-18.5 -46t-6 -24 h40q16 47 52 129.5t43 100.5q5 10 13 33.5t15 35.5q58 175 126 325q14 31 28 77q3 9 11 25.5t10 21.5q7 18 18.5 49.5t18.5 51t17.5 45t21.5 46.5q15 44 48 122.5t47 117.5zM711 1225q-5 -2 -15.5 -2.5t-14.5 -2.5q15 -14 45 -46.5t46 -47.5q2 -2 13 -11.5t16 -16t5 -13.5 q0 -6 -10 -28q-17 -56 -57 -150t-58 -153q-11 -31 -20 -45q-28 -74 -33 -92q-2 -5 -7.5 -12.5t-6.5 -11.5q-10 -30 -38.5 -91.5t-37.5 -93.5q4 0 17 1t21 1q33 106 53 153q37 62 61 140q34 68 82.5 201.5t70.5 184.5q-33 39 -55 61q-13 10 -37 38t-40 37zM984 583 q-35 -5 -44 -5q-10 0 -15 0.5t-9 5t-4 13.5t12 35q17 52 38 100q6 13 24 60t30 69q-12 16 -27 31.5t-34.5 33.5t-29.5 29q-19 21 -29 27q-17 -54 -35 -88.5t-20 -52.5q-6 -12 -13.5 -30.5t-13.5 -31.5t-10 -16q-13 -41 -44.5 -118.5t-35.5 -86.5q-63 -165 -75 -165 q-8 0 -8 6q0 4 3 10t3 7q14 41 48 123.5t50 128.5q14 42 48.5 118.5t47.5 112.5q4 14 23 58q18 45 27 56q13 0 31 3t29 3q19 -13 44.5 -39.5t31.5 -31.5q18 -15 44.5 -45.5t26.5 -35.5q0 -6 -16 -35q-33 -92 -41 -108q-10 -21 -27.5 -70.5t-29.5 -70.5zM979 967 q9 -9 44.5 -45t51.5 -55q-18 -44 -52.5 -133.5t-52.5 -133.5q-4 1 -13 1q-4 0 -11.5 -0.5t-11.5 -0.5q3 15 8.5 30t14.5 34t13 30q8 21 24 61t23 61l8 18q8 19 8 29q0 12 -18.5 33.5t-57 57t-44.5 41.5q4 0 13.5 2t14.5 2q9 0 38 -32zM1075 867q-34 41 -78.5 86.5 t-55.5 45.5q-5 0 -14.5 -2t-13.5 -2q4 -4 13.5 -12.5t17 -16t12.5 -15.5q25 -19 51 -46t26 -42q0 -8 -3 -16t-7 -17t-6 -14q-7 -21 -23 -61t-24 -61q-31 -71 -36 -94q4 0 11.5 0.5t11.5 0.5q9 0 13 -1q18 44 52.5 133.5t52.5 133.5zM1222 221q0 16 15 53t18 50 q12 26 48 117.5t61 136.5q16 10 17 10q8 0 30 -21t42 -43l20 -23q85 -79 177 -178q10 -11 33.5 -32t38 -36t14.5 -25q0 -5 -14 -12.5t-21 -7.5q-12 0 -40.5 2.5t-38.5 2.5h-61q-23 0 -73.5 2t-74.5 2q-30 0 -87.5 -3t-84.5 -3q-12 0 -19 8zM1365 536q9 13 14 27 q6 -5 16 -14.5t18.5 -17.5t15.5 -15q42 -42 123.5 -124t109.5 -110q5 -5 16 -14.5t18 -17t11 -16.5q-39 0 -40 13q-18 15 -47 45t-39 40q-22 13 -43 36q-9 17 -28 27q-49 56 -114 114l-12.5 12.5t-18.5 14.5zM1246 234q4 1 12 1q4 0 13 -1t14 -1q23 0 65.5 3.5t63.5 3.5 q39 0 116 -3t116 -3q-32 38 -95 95.5t-86 81.5q-76 81 -109 105q-90 -223 -110 -282zM1379 563q-5 -14 -14 -27q8 -4 18.5 -14.5l12.5 -12.5q15 -13 40 -38.5t31 -30.5q4 -4 13 -14t15.5 -16.5t14 -13t13.5 -7.5q3 -9 22.5 -28.5t35.5 -28.5q10 -10 39 -40t47 -45 q1 -13 40 -13q-4 9 -11 16.5t-18 17t-16 14.5q-29 29 -89 90.5t-105.5 106.5t-88.5 84zM880 374q-24 0 -34 2q-10 -21 -20 -46.5t-21 -56.5t-17 -46q3 1 17.5 1t18.5 1q4 11 24 65t32 80zM1587 127h-8q-27 0 -27 -17q0 -9 14 -9.5t16 -5.5q0 -9 -3 -14t-5.5 -5.5t-11 -1 t-11.5 -0.5q-2 -18 -2 -25q0 -9 1 -27t1 -28q0 -22 -20 -22q-3 0 -5 8.5t-3 23t-1 27t0.5 27t0.5 16.5h-10.5t-8.5 1v9.5t1 6t1.5 4t3 2.5t3 1t5.5 0.5t7 0.5q2 6 4 19t4 18t10 10t22 5q25 0 25 -12zM1538 133q-4 -6 -5 -22.5t-8 -21.5q-2 1 -8 1q-4 0 -5.5 -0.5t-1.5 -2 v-3.5v-3q18 -2 19 -7v-6q0 -88 5 -88q2 0 4 1t4 1h2v46.5t-1 46.5q3 7 12 7q2 0 8 -0.5t9 -0.5q3 5 3 9v4q-4 -2 -14 -2q-17 0 -17 6q0 17 9 25t18.5 10.5t10.5 5.5q-8 5 -21 5q-17 0 -23 -11zM337 142q-1 -4 -2.5 -11.5t-3.5 -12.5t-6 -8q-6 3 -11 3q-11 0 -11 -12 q0 -5 3.5 -5.5t7.5 0t7.5 -3.5t3.5 -13q0 -7 -3.5 -10t-10.5 -4t-11 -3q-1 -11 -1 -33v-26q0 -3 0.5 -11.5t0 -11t-2.5 -7t-7.5 -5.5t-14.5 -1q-15 0 -15 40q0 7 0.5 21.5t0.5 22.5v15q-1 0 -5 -0.5t-6 -0.5q-4 0 -7 3v6v7t1 5.5t3 4.5t6 2.5t10 1.5q0 1 -0.5 3t-0.5 3 q0 20 15.5 33t35.5 13q14 0 24 -5zM283 131q-7 -7 -9.5 -18.5t-6.5 -18.5t-16 -7q-1 -2 -1 -7v-8h8q8 0 10 -3q0 -97 4 -97q2 0 6.5 1t7.5 1q5 0 7 -1q0 9 -0.5 27t-0.5 26v10.5v10.5t1 9t3 8.5t6 5t10 2.5h4q1 1 1 4q0 6 -3.5 8t-7.5 1.5t-7.5 2.5t-3.5 10q0 9 5 15.5 t13 6.5q3 0 9 -2q6 8 6 21q-8 2 -12 2q-6 0 -33 -10zM1582 139q-8 5 -21 5q-17 0 -22.5 -11t-6.5 -25.5t-7 -18.5q-2 1 -8 1t-7 -1q0 -9 9.5 -8.5t9.5 -6.5v-6q0 -88 5 -88q2 0 4 1t4 1h2v46.5t-1 46.5q3 7 12 7q2 0 8 -0.5t9 -0.5q3 5 3 9v4q-4 -2 -14 -2q-8 0 -17 3 q0 20 9 28t18.5 10t10.5 6zM328 139q-8 2 -12 2q-20 0 -29.5 -7.5t-15 -26t-6.5 -20.5q-7 0 -10 -1t-4 -1.5t-1 -5v-7.5h8q12 0 10.5 -50t3.5 -50q2 0 6.5 1t7.5 1q5 0 7 -1q0 9 -0.5 27t-0.5 26v10.5v10.5t1 9t3 8.5t6 5t10 2.5h4q1 1 1 4q0 13 -11 13t-11 9t5 15.5t13 6.5 q3 0 9 -2q6 8 6 21zM1704 129v-9v-21h4h13q5 0 7.5 -1.5t2.5 -3v-5.5q0 -6 -0.5 -9.5t-3.5 -5l-4 -2t-6.5 0t-6.5 0.5q-6 0 -9 1q0 -5 -1 -19.5t-1 -21.5q0 -37 24 -37h10q0 -2 0.5 -6t0.5 -7q0 -11 -22 -11q-7 0 -13 2t-10 6.5t-7 9t-4.5 12.5t-3 13.5t-1.5 15v15v15v13.5 h-1q-1 0 -4 -0.5t-5 -0.5t-3 1q0 6 6.5 16t19.5 24.5t14 16.5q1 -2 4 -2zM1672 81q1 0 3 0.5t3 0.5q2 0 4 -2q0 -8 -1 -24.5t-1 -24.5q0 -36 18 -49h2l2 1q1 0 4 -1t5 -1q16 0 16 7q-21 0 -27.5 11.5t-6.5 36.5q0 46 10 46q3 0 9 -0.5t9 -0.5q2 0 3 1t1 3.5v3.5q-1 0 -7 1.5 t-10 1.5q-5 0 -8 -1q-2 3 -2 13t-3 12q-3 -6 -11.5 -17t-11.5 -18zM866 99h5.5t6.5 -0.5t6.5 -1t5 -2t1.5 -4.5t-0.5 -9t-0.5 -8q0 -4 1 -6q-5 -1 -12 -1t-9 -1t-4 -5.5t-2 -15.5q0 -44 17 -44q6 0 13 4q0 -23 2 -34q-5 -5 -18 -5q-33 0 -41.5 14t-8.5 46v24q0 15 -5 15h-4 q-5 0 -7 3q4 5 13 19.5t17 24t17 17.5q1 0 2 -2t3 -2q-1 -3 -1 -8q0 -9 3 -18zM824 72q5 0 8.5 -1t4.5 -4.5t1 -5v-8.5t-1 -21t-1 -20q0 -25 12.5 -32t39.5 -7q0 4 -0.5 9t-0.5 7q0 4 1 7q-2 0 -4 -0.5t-3 -0.5q-9 0 -14.5 4.5t-7 12t-2.5 17t-0.5 20t-0.5 20.5q24 0 30 20 q-4 2 -11 2h-7q-11 0 -11 10q0 1 0.5 5t0.5 6q0 4 -2 6q-6 -7 -11.5 -14.5t-11 -17t-9.5 -14.5zM856 118q-9 -10 -32 -46q5 0 8.5 -1t4.5 -4.5t1 -5v-8.5t-1 -21t-1 -20q0 -24 12.5 -31.5t39.5 -7.5q0 4 -0.5 9t-0.5 7q0 4 1 7q-2 0 -4 -0.5t-3 -0.5q-9 0 -14.5 4.5t-7 12 t-2.5 17t-0.5 20t-0.5 20.5q2 0 3 1l1 2q22 4 23 8q1 0 3 9q-4 2 -11 2h-7q-11 0 -11 10q0 1 0.5 5t0.5 6q0 4 -2 6zM1695 116q-3 -6 -11.5 -17t-11.5 -18q1 0 3 0.5t3 0.5q2 0 4 -2q0 -8 -1 -24.5t-1 -24.5q0 -36 18 -49h2l2 1q1 0 4 -1t5 -1q16 0 16 7q-21 0 -27.5 11.5 t-6.5 36.5q0 46 10 46q3 0 9 -0.5t9 -0.5q2 0 3 1t1 3.5v3.5q-1 0 -7 1.5t-10 1.5q-5 0 -8 -1q-2 3 -2 13t-3 12zM721 -29q-5 -1 -16 -1q-13 0 -15.5 3t-2.5 16q0 6 1 21t1 22q0 30 -15 30q-13 0 -17.5 -17t-4 -42t-1.5 -32q-10 -2 -21 -2q-6 0 -9.5 2t-4.5 6t-1 7.5 t0.5 9.5t0.5 8q0 12 0.5 34.5t0.5 32.5v20q18 9 25 9q9 0 9 -13q13 15 35 15q40 0 40 -42q0 -13 -2 -35q0 -5 0.5 -14t0.5 -13q0 -14 -4 -25zM719 74q-1 0 -2.5 1.5t-2.5 3.5l-1 2q-24 13 -32 13q-7 -1 -17.5 -10t-16.5 -9q-2 3 -2 16q-8 -2 -20 -6q0 -10 -1 -36t-1 -40 q0 -3 -0.5 -7t-0.5 -6.5v-5t1 -4.5t2.5 -3.5t4.5 -2.5t7 -1.5t10 -0.5v16v25q0 50 22 50q26 0 26 -33q0 -7 -1.5 -20.5t-1.5 -19.5q0 -10 3 -18q7 3 21 3q3 28 3 93zM1073 87q0 -8 -6 -18q-14 6 -24 6q-18 0 -28 -12.5t-10 -29.5t11 -26t24.5 -10t24.5 -3.5t11 -9.5 q0 -17 -33 -17q-61 0 -61 63q0 24 11.5 44.5t33.5 23.5q2 1 2 3q4 -1 14.5 -2t18 -3.5t11.5 -8.5zM1043 91q-56 0 -56 -66q0 -50 60 -50q16 0 20 9q-6 1 -19 3t-19.5 3.5t-15 6t-12 13.5t-3.5 23q0 25 13 38t33 13q12 0 21 -6v2q0 11 -22 11zM1411 -24q-19 -8 -41 -8 q-54 0 -54 41q0 43 56 43h13q2 6 2 8q0 16 -30 16q-14 0 -30 -4q-2 8 -2 10q0 19 39 19q49 0 49 -52q0 -12 -1 -37t-1 -36zM1394 85q-12 6 -27 6q-34 0 -34 -11q14 4 27 4q35 0 35 -26q0 -15 -23 -15h-10q-18 0 -29.5 -11t-11.5 -30q3 -26 46 -26q22 0 38 8q-1 4 -1 14 q0 8 1.5 25t1.5 26q0 27 -13 36zM511 -18q-19 -18 -44 -18q-26 0 -43 18t-17 48t15 49.5t46 19.5q56 -4 56 -66q0 -31 -13 -51zM506 -12q13 14 13 42q0 60 -54 60q-23 0 -37.5 -17t-14.5 -46q0 -28 18.5 -41t37.5 -13q23 0 37 15zM1190 95q3 -1 3 -3q0 -1 -0.5 -3.5 t-0.5 -3.5q27 9 31 9q12 0 12 -10q0 -7 -2 -15q-4 1 -10 1q-11 0 -17 -6t-8.5 -17.5t-3.5 -22.5t-1 -25.5t-1 -22.5q-3 -3 -20 -3q-4 16 -4 41q0 12 1 34.5t1 32.5v14q8 2 12 2t8 -2zM1179 87v-9q0 -10 -2 -32.5t-2 -33.5q0 -19 4 -31q5 0 10 1q-2 18 -2 32q0 64 35 64h6v9 q-5 -1 -12 -2t-9 -1l-4 -4t-5.5 -4.5t-5.5 -1.5q-4 0 -5 7.5t-4 7.5zM716 -19q3 28 3 93q-1 0 -2.5 1.5t-2.5 3.5l-1 2q-24 13 -32 13q-7 -1 -17.5 -10t-16.5 -9q-2 3 -2 16q-8 -2 -20 -6q0 -10 -1 -36t-1 -40q0 -21 1 -31q3 0 7.5 -0.5t6.5 0t4.5 1.5t3.5 5t1 10v25 q0 50 22 50q26 0 26 -33q0 -7 -1.5 -20.5t-1.5 -19.5q0 -10 3 -18q7 3 21 3zM1405 -16q-1 4 -1 14q0 8 1.5 25t1.5 26q0 42 -40 42q-34 0 -34 -11q14 4 27 4q35 0 35 -26q0 -15 -23 -15h-10q-17 0 -29 -11t-12 -28q0 -28 46 -28q22 0 38 8zM1346 31q-9 -6 -9 -17 q0 -27 29 -27q14 0 24 9q-1 3 -1 12v14q0 10 -1.5 12t-10.5 2q-22 0 -31 -5zM1065 78v2q0 11 -22 11q-56 0 -56 -66q0 -50 60 -50q16 0 20 9q-6 1 -19 3t-19.5 3.5t-15 6t-12 13.5t-3.5 23q0 25 13 38t33 13q12 0 21 -6zM441 -22q15 -5 28 -5q23 0 36.5 15t13.5 42 q0 60 -54 60q-23 0 -37.5 -17t-14.5 -46q0 -15 4.5 -23t12.5 -14t11 -12zM436 37q0 -46 25 -49q15 0 24 15t9 33q0 15 -7.5 25t-20.5 10q-11 0 -19.5 -9.5t-10.5 -24.5zM1189 74q-1 2 -1.5 6t-1.5 6.5t-3 2.5l-4 -2v-9q0 -10 -2 -32.5t-2 -33.5q0 -19 4 -31q5 0 10 1 q-2 18 -2 32q0 64 35 64h6v9q-5 -1 -12 -2t-9 -1l-4 -4t-5.5 -4.5t-5.5 -1.5h-3zM486 63q-11 8 -20 8q-11 0 -19.5 -9.5t-10.5 -24.5q0 -46 25 -49q15 0 24 15t9 33q0 14 -8 27zM463 -4q25 0 25 35q0 32 -20 32q-25 0 -25 -34q0 -31 20 -33zM461 62q-18 -4 -18 -33 q0 -12 5.5 -22.5t14.5 -10.5q25 0 25 35q0 32 -20 32q-5 0 -7 -1zM1388 36q-14 0 -19.5 -0.5t-15 -2t-13 -6.5t-3.5 -13q0 -27 29 -27q14 0 24 9q-1 3 -1 12v14q0 11 -1 14zM1346 18v-2l-1 -2q0 -9 7 -14.5t16 -5.5q15 0 15 34h-7h-7.5h-6t-5.5 -1t-4.5 -2t-4 -2.5 t-2.5 -4.5zM1383 28h-6.5h-7h-7t-7 -1t-5 -2.5t-4 -4t-1.5 -6.5q0 -9 7 -14.5t16 -5.5q15 0 15 34zM1640 1420q-5 -20 -12.5 -40t-19.5 -46.5t-17 -37.5q-65 -185 -146 -368q-2 -5 -2 -15q-33 -96 -52 -123q-3 -16 -6 -21q-9 -24 -40.5 -109.5t-51.5 -133.5q-6 -8 -9.5 -17 t-6.5 -20.5t-5 -16.5q-15 -44 -53.5 -125.5t-52.5 -120.5q-9 -14 -25 -14q-17 0 -50.5 1t-50.5 1q-19 0 -54 -2.5t-53 -2.5q-40 0 -40 14q0 6 5 19t6 17q38 98 46 115q-6 0 -16 0.5t-15 0.5q-10 0 -15 -1q-16 -26 -36.5 -84t-32.5 -81q-19 -2 -56 -2q-19 0 -55 1t-55 1 t-58 -1t-59 -1q-41 0 -113 1.5t-105 1.5q-4 0 -13 -0.5t-15 -0.5q-55 0 -55 13q0 10 12 32q7 18 37.5 102t53.5 131q50 128 55 138q52 129 107 254q11 26 35.5 94.5t40.5 100.5q-16 1 -51 1h-42h-14h-16h-14.5t-14 1.5t-11 3.5t-8 6t-2.5 9q0 6 20 18t49 28t41 25 q18 11 56.5 34t57.5 34q11 0 33 6t33 6q13 0 28.5 -13.5t36.5 -38t29 -32.5q59 -59 59 -73q0 -9 -14 -34q-14 -45 -24 -66q-7 -20 -31.5 -76.5t-31.5 -84.5q-8 -34 -10 -38q-20 -58 -104 -235q-30 -64 -57 -158q-4 -1 -11 -7q-3 1 -10 1q-5 0 -17.5 -1t-18.5 -1q-11 0 -13 4 t-2 14q0 15 14 45q67 147 77 170q13 39 46.5 119.5t46.5 122.5q1 3 43 111q31 84 43 111q-27 23 -70 69.5t-61 63.5q-58 -32 -169 -103q-22 -7 -32 -20q32 -1 126 -1q4 0 10 0.5t9 0.5q14 0 14 -8t-3 -18.5t-6.5 -18t-10.5 -21t-10 -20.5q-9 -20 -19.5 -47t-20 -55 t-12.5 -36q-8 -22 -26.5 -63t-22.5 -51q-8 -19 -32 -72t-38.5 -90.5t-23.5 -70.5q-7 -18 -23.5 -55.5t-24.5 -58.5q-24 -68 -43.5 -115.5t-25.5 -63.5q12 -1 39 -1q13 0 41 0.5t42 0.5q30 0 86.5 -2t84.5 -2q25 0 73 1t71 1q34 0 51 -1q15 24 31 68.5t28.5 72t26.5 27.5 q7 0 21.5 -1.5t19.5 -1.5t15 0.5t14 0.5q3 0 8 -0.5t8 -0.5q2 0 11.5 1.5t17.5 1.5q14 0 14 -10t-6 -24t-14 -28t-10 -19q-7 -17 -12 -31.5t-9.5 -29t-7.5 -23.5q17 0 64 1.5t70 1.5q25 0 36 -1q8 19 35 87.5t44 104.5q22 46 67 164q19 55 39 104q2 6 5.5 18.5t6.5 19.5 q2 9 11 25.5t11 20.5q12 27 33.5 79.5t31.5 74.5q11 25 30 79t32 81q7 14 29 79q20 32 32 81q11 29 34.5 81t32.5 74q-68 69 -124 123q-28 -61 -78 -189q-145 -363 -169 -428q-4 -13 -23.5 -56.5t-21.5 -65.5q-20 -20 -44 -97q-5 -9 -15 -39.5t-20 -50.5t-20 -20q-5 0 -5 7 q0 4 1.5 9.5t4 10.5t2.5 6q7 14 17.5 45t18.5 47q27 55 75 178q60 156 70 187q7 21 25 61.5t25 59.5q22 68 47 122q10 22 27 65t23 56q4 9 13 29.5t13 30.5q15 46 26 59q36 10 64 10q12 -11 47.5 -44t58 -56t41.5 -47zM1504 1530q-19 16 -24 16t-13 -2t-12 -2 q12 -13 45.5 -44t53.5 -53t28 -38q-27 -73 -96 -235.5t-98 -248.5q-4 -10 -16.5 -39t-18.5 -45q-2 -4 -13 -27.5t-15 -35.5q-3 -12 -12.5 -33.5t-13.5 -33.5q-1 -8 -8 -20t-9 -18q-12 -37 -27 -77t-28 -70.5t-15 -37.5q-21 -44 -54 -129t-38 -98q-1 -2 -5 -11t-4 -14h40 q14 42 30.5 83t43 102t34.5 80q2 10 6.5 21.5t11 26.5t10.5 24q11 27 50 130.5t63 156.5q12 27 28 77q3 9 11 25.5t10 21.5q32 87 115 295q6 15 26.5 62.5t29.5 74.5q-16 18 -57 56.5t-59 59.5zM681 1220q4 2 14.5 2.5t15.5 2.5q9 -5 17.5 -13.5t17.5 -20t15 -17.5 q10 -10 39.5 -40t42.5 -45q-52 -121 -68 -172q-16 -33 -41.5 -106t-43.5 -108q-4 -13 -50 -125q-11 -15 -21.5 -39t-15.5 -39t-15 -49.5t-12 -40.5q-8 0 -21 -1t-17 -1q13 47 27 76.5t44.5 96t71.5 173.5q3 10 10.5 28.5t10.5 27.5q13 26 64 165q4 11 15 37.5t18 45.5t7 27 q0 7 -5 13.5t-16 16t-13 11.5q-16 15 -46 47.5t-45 46.5zM846 376q-10 -21 -20 -46.5t-21 -56.5t-17 -46q3 1 17.5 1t18.5 1q4 11 24 65t32 80q-24 0 -34 2z" />
<glyph unicode="&#x152;" d="M-226 1112q-2 -9 -6 -21q95 19 139 78q18 19 47.5 9t29.5 -35q-4 -31 -48 -65l-4 -4q-31 -23 -63 -35h1q-76 -36 -142 -36q-35 0 -56 8q-14 7 -19.5 14t-2.5 16.5t5.5 13.5t11.5 17q4 6 5 9q16 30 16 47q0 5 -8 4q-4 0 -10 -6l2 1q-18 -14 -37 -16q-35 0 -36 33 q-1 34 32.5 55.5t72.5 16.5q31 -5 53.5 -34.5t16.5 -69.5z" />
<glyph unicode="&#xf70b;" d="M-226 1112q-2 -9 -6 -21q95 19 139 78q18 19 47.5 9t29.5 -35q-4 -31 -48 -65l-4 -4q-31 -23 -63 -35h1q-76 -36 -142 -36q-35 0 -56 8q-14 7 -19.5 14t-2.5 16.5t5.5 13.5t11.5 17q4 6 5 9q16 30 16 47q0 5 -8 4q-4 0 -10 -6l2 1q-18 -14 -37 -16q-35 0 -36 33 q-1 34 32.5 55.5t72.5 16.5q31 -5 53.5 -34.5t16.5 -69.5z" />
<glyph unicode="&#x153;" d="M-349 1298q-3 -13 -7 -21q93 19 137 76q17 19 46 9.5t29 -34.5q-4 -29 -47 -64q-4 -3 -5 -4q-24 -17 -60 -34h1q-78 -35 -140 -35q-34 0 -54 8q-14 7 -19.5 14t-3 16t5.5 13.5t12 15.5l5 10q15 26 15 45q0 5 -7 4q-1 0 -11 -5h2q-18 -13 -36 -15q-13 0 -23.5 8t-11.5 25 q-1 32 32 53.5t71 16.5q30 -5 52.5 -34.5t16.5 -67.5z" />
<glyph unicode="&#xf714;" d="M-349 1298q-3 -13 -7 -21q93 19 137 76q17 19 46 9.5t29 -34.5q-4 -29 -47 -64q-4 -3 -5 -4q-24 -17 -60 -34h1q-78 -35 -140 -35q-34 0 -54 8q-14 7 -19.5 14t-3 16t5.5 13.5t12 15.5l5 10q15 26 15 45q0 5 -7 4q-1 0 -11 -5h2q-18 -13 -36 -15q-13 0 -23.5 8t-11.5 25 q-1 32 32 53.5t71 16.5q30 -5 52.5 -34.5t16.5 -67.5z" />
<glyph unicode="&#x160;" d="M-186 1311l7 -1q37 -12 37 -39t-67 -65h1q-8 -4 -19 -10q-3 -2 -9.5 -6t-9.5 -6q-54 -32 -90 -64h1q-2 -2 -11 -8h1q-24 -17 -24 -23q-2 -5 3 -7q4 -3 27 -1q17 0 31.5 0.5t25.5 -8t13 -26.5q5 -47 -68 -47q-39 0 -65 11q-24 12 -40 38.5t-9 60.5q4 19 36 49q2 0 7 5 q11 9 19 18q21 19 35 30q7 5 19.5 12.5t15.5 9.5q4 2 39 23q4 3 10.5 8t8.5 6q30 24 47 31h-1l6 2h-1q14 7 24 7z" />
<glyph unicode="&#xf709;" d="M-186 1311l7 -1q37 -12 37 -39t-67 -65h1q-8 -4 -19 -10q-3 -2 -9.5 -6t-9.5 -6q-54 -32 -90 -64h1q-2 -2 -11 -8h1q-24 -17 -24 -23q-2 -5 3 -7q4 -3 27 -1q17 0 31.5 0.5t25.5 -8t13 -26.5q5 -47 -68 -47q-39 0 -65 11q-24 12 -40 38.5t-9 60.5q4 19 36 49q2 0 7 5 q11 9 19 18q21 19 35 30q7 5 19.5 12.5t15.5 9.5q4 2 39 23q4 3 10.5 8t8.5 6q30 24 47 31h-1l6 2h-1q14 7 24 7z" />
<glyph unicode="&#x161;" d="M-456 1087q-32 -10 -46 -19q-13 -13 -13 -34q0 -14 13 -29q10 -7 24 -11.5t20 -0.5l4 18q1 3 2.5 11t2.5 11q6 14 23.5 19.5t35.5 -5.5q7 -6 20 -28q12 -21 22 -18q6 2 15 13q0 2 4 14q3 13 5 19.5t9.5 13.5t20.5 8q14 2 27 -5t17 -24q5 -47 -34 -88t-87 -34 q-18 3 -34 19q-34 -28 -77 -24q-33 6 -59 21q-56 41 -56 108q0 61 45 94q19 13 52 25t58 14q31 2 86 -6h-1q4 0 13 -1.5t14 -2.5q12 -2 22 -2q5 1 25 10t32 10q20 1 34 -9t16 -25q4 -30 -41 -50.5t-89 -18.5l-42 6q-48 5 -54 5q-17 0 -29 -4z" />
<glyph unicode="&#xf712;" d="M-456 1087q-32 -10 -46 -19q-13 -13 -13 -34q0 -14 13 -29q10 -7 24 -11.5t20 -0.5l4 18q1 3 2.5 11t2.5 11q6 14 23.5 19.5t35.5 -5.5q7 -6 20 -28q12 -21 22 -18q6 2 15 13q0 2 4 14q3 13 5 19.5t9.5 13.5t20.5 8q14 2 27 -5t17 -24q5 -47 -34 -88t-87 -34 q-18 3 -34 19q-34 -28 -77 -24q-33 6 -59 21q-56 41 -56 108q0 61 45 94q19 13 52 25t58 14q31 2 86 -6h-1q4 0 13 -1.5t14 -2.5q12 -2 22 -2q5 1 25 10t32 10q20 1 34 -9t16 -25q4 -30 -41 -50.5t-89 -18.5l-42 6q-48 5 -54 5q-17 0 -29 -4z" />
<glyph unicode="&#x178;" d="M-186 1476l7 -1q37 -12 37 -39t-67 -65h1q-8 -4 -19 -10q-3 -2 -9.5 -6t-9.5 -6q-54 -32 -90 -64h1q-2 -2 -11 -8h1q-24 -17 -24 -23q-2 -5 3 -7q4 -3 27 -1q17 0 31.5 0.5t25.5 -8t13 -26.5q5 -47 -68 -47q-39 0 -65 11q-24 12 -40 38.5t-9 60.5q4 19 36 49q2 0 7 5 q11 9 19 18q21 19 35 30q7 5 19.5 12.5t15.5 9.5q4 2 39 23q4 3 10.5 8t8.5 6q30 24 47 31h-1l6 2l-1 -1q13 8 24 8z" />
<glyph unicode="&#xf717;" d="M-186 1476l7 -1q37 -12 37 -39t-67 -65h1q-8 -4 -19 -10q-3 -2 -9.5 -6t-9.5 -6q-54 -32 -90 -64h1q-2 -2 -11 -8h1q-24 -17 -24 -23q-2 -5 3 -7q4 -3 27 -1q17 0 31.5 0.5t25.5 -8t13 -26.5q5 -47 -68 -47q-39 0 -65 11q-24 12 -40 38.5t-9 60.5q4 19 36 49q2 0 7 5 q11 9 19 18q21 19 35 30q7 5 19.5 12.5t15.5 9.5q4 2 39 23q4 3 10.5 8t8.5 6q30 24 47 31h-1l6 2l-1 -1q13 8 24 8z" />
<glyph unicode="&#x17d;" d="M-163 1148v-12q2 6 15 8q5 0 16 0.5t18 0.5q54 0 54 -38q-4 -57 -101 -50h-1q-4 -38 -18.5 -60t-44.5 -11q-30 12 -24 63q1 6 1 7h-61q-19 4 -27 14t-8 30q2 21 14 31t28 10h36h1q6 0 9 -2t7 1q2 40 19.5 65.5t51.5 -1.5q17 -20 15 -56z" />
<glyph unicode="&#xf70d;" d="M-163 1148v-12q2 6 15 8q5 0 16 0.5t18 0.5q54 0 54 -38q-4 -57 -101 -50h-1q-4 -38 -18.5 -60t-44.5 -11q-30 12 -24 63q1 6 1 7h-61q-19 4 -27 14t-8 30q2 21 14 31t28 10h36h1q6 0 9 -2t7 1q2 40 19.5 65.5t51.5 -1.5q17 -20 15 -56z" />
<glyph unicode="&#x17e;" d="M-308 1333v-13q2 6 15 8q22 2 34 2q53 0 53 -38q-5 -55 -99 -48h-2q-4 -37 -18 -59t-43 -11q-29 12 -23 62q1 6 1 7h-60q-19 3 -26.5 12.5t-7.5 29.5q2 21 13.5 31t27.5 9.5t35 -0.5h1q6 0 8.5 -2t7.5 1q2 40 19 65t50 -2q16 -19 14 -54z" />
<glyph unicode="&#xf716;" d="M-308 1333v-13q2 6 15 8q22 2 34 2q53 0 53 -38q-5 -55 -99 -48h-2q-4 -37 -18 -59t-43 -11q-29 12 -23 62q1 6 1 7h-60q-19 3 -26.5 12.5t-7.5 29.5q2 21 13.5 31t27.5 9.5t35 -0.5h1q6 0 8.5 -2t7.5 1q2 40 19 65t50 -2q16 -19 14 -54z" />
<glyph unicode="&#x192;" d="M-265 949v-1l-2 -1zM-690 951l5 -4q-26 20 -31 34.5t14.5 24.5t30.5 13t44 10q2 1 3 1q2 0 6 1t5 1q25 4 63 4q58 0 122 -11q2 31 20 61t40 41q26 12 51 12q27 0 43 -11q45 -27 45 -94q0 -55 -39 -87h1q-31 -23 -55 -23q-26 1 -98 16q-84 18 -130 18q-26 0 -49 -4 q-14 -2 -22 -4q-58 -15 -69 1zM-319 1063l1 -1q0 1 -1 1zM-351 1030v-1q1 -8 13.5 -17t20.5 -7q4 2 4 26q0 27 -5 31l-6 -2q-11 -2 -19.5 -11.5t-7.5 -18.5z" />
<glyph unicode="&#xf703;" d="M-265 949v-1l-2 -1zM-690 951l5 -4q-26 20 -31 34.5t14.5 24.5t30.5 13t44 10q2 1 3 1q2 0 6 1t5 1q25 4 63 4q58 0 122 -11q2 31 20 61t40 41q26 12 51 12q27 0 43 -11q45 -27 45 -94q0 -55 -39 -87h1q-31 -23 -55 -23q-26 1 -98 16q-84 18 -130 18q-26 0 -49 -4 q-14 -2 -22 -4q-58 -15 -69 1zM-319 1063l1 -1q0 1 -1 1zM-351 1030v-1q1 -8 13.5 -17t20.5 -7q4 2 4 26q0 27 -5 31l-6 -2q-11 -2 -19.5 -11.5t-7.5 -18.5z" />
<glyph unicode="&#x2c6;" d="M-480 1196h-1h1zM-400 1228q47 0 84 -39t39 -92q18 6 31 17q9 7 19 12.5t23.5 9.5t24 -4t14.5 -29q4 -22 -27.5 -49t-57.5 -35q-18 -6 -45 -6q-47 0 -58 27v-1q-9 16 -7 44q0 17 -1 20q-4 17 -16 28.5t-27 10.5q-13 -2 -18 -9q-2 -5 -5 -15h1q-3 -14 -5.5 -20.5t-12 -14 t-24.5 -8.5q-10 0 -19 5.5t-12.5 9.5t-12.5 16q-10 17 -16 19q-25 8 -42 -8t-14 -41q1 -6 4 -12q9 -17 9 -37t-20 -30q-30 -9 -52.5 24.5t-22.5 69.5q1 48 38.5 83.5t88.5 35.5q26 0 58 -14q1 -2 3 -4q2 0 2 2q2 2 3 4.5t2 4.5t4 4t10 4q26 17 57 17z" />
<glyph unicode="&#xf707;" d="M-480 1196h-1h1zM-400 1228q47 0 84 -39t39 -92q18 6 31 17q9 7 19 12.5t23.5 9.5t24 -4t14.5 -29q4 -22 -27.5 -49t-57.5 -35q-18 -6 -45 -6q-47 0 -58 27v-1q-9 16 -7 44q0 17 -1 20q-4 17 -16 28.5t-27 10.5q-13 -2 -18 -9q-2 -5 -5 -15h1q-3 -14 -5.5 -20.5t-12 -14 t-24.5 -8.5q-10 0 -19 5.5t-12.5 9.5t-12.5 16q-10 17 -16 19q-25 8 -42 -8t-14 -41q1 -6 4 -12q9 -17 9 -37t-20 -30q-30 -9 -52.5 24.5t-22.5 69.5q1 48 38.5 83.5t88.5 35.5q26 0 58 -14q1 -2 3 -4q2 0 2 2q2 2 3 4.5t2 4.5t4 4t10 4q26 17 57 17z" />
<glyph unicode="&#x2dc;" d="M-252 1135q19 5 35 -3t19 -25l-1 1q4 -16 -13.5 -43.5t-30.5 -39.5h1q-3 -3 -27 -23q-47 -41 -74 -53q-56 -28 -96 -28q-27 0 -48 10q-24 11 -39 40.5t-15 60.5q0 38 21 63q31 31 58 37q23 3 42.5 -7.5t10.5 -37.5l1 1q-3 -16 -31 -28q-4 -2 -6 -4q-13 -11 -16 -19v1 q-5 -17 6 -27.5t30 -9.5q29 6 77 39q33 24 48 44q1 2 10 14h-1q18 30 39 37z" />
<glyph unicode="&#xf710;" d="M-252 1135q19 5 35 -3t19 -25l-1 1q4 -16 -13.5 -43.5t-30.5 -39.5h1q-3 -3 -27 -23q-47 -41 -74 -53q-56 -28 -96 -28q-27 0 -48 10q-24 11 -39 40.5t-15 60.5q0 38 21 63q31 31 58 37q23 3 42.5 -7.5t10.5 -37.5l1 1q-3 -16 -31 -28q-4 -2 -6 -4q-13 -11 -16 -19v1 q-5 -17 6 -27.5t30 -9.5q29 6 77 39q33 24 48 44q1 2 10 14h-1q18 30 39 37z" />
<glyph unicode="&#xe01;" horiz-adv-x="649" d="M556 602q0 -4 0.5 -12t0.5 -12q1 -23 1 -81v-114q0 -73 1 -110q2 -74 2 -118v-25q0 -28 -0.5 -44.5t-4 -34.5t-12.5 -26t-24 -8q-35 0 -38 39q-7 106 -7 300q0 211 -5 305q-4 43 -25.5 65.5t-63.5 40.5q-51 21 -88 21q-62 0 -119 -26q-23 -11 -43 -28t-20 -36 q0 -13 12 -37v1q1 -4 4.5 -12.5t5.5 -15.5v1q12 -43 12 -114q0 -21 -2 -65q0 -4 -0.5 -16t-0.5 -15q-4 -105 -4 -245v-113q0 -44 -33 -49q-53 0 -50 92v72q0 12 0.5 36.5t0.5 37.5v34q0 5 -0.5 17t-0.5 18q0 47 3 94q3 87 3 89q0 75 -11 106q-1 6 -7 18q-17 34 -17 68 q0 72 84.5 121.5t183.5 49.5q48 0 121 -27q65 -26 98 -61t40 -106q1 -15 2 -43.5t1 -31.5z" />
<glyph unicode="&#xe02;" horiz-adv-x="589" d="M490 855l8 -1q30 -12 30 -89q0 -62 -1 -87q0 -7 -0.5 -27.5t-0.5 -26.5v-25q0 -23 -1 -33q-2 -20 -2 -34v-53q0 -9 0.5 -29t0.5 -29q0 -50 -5 -103q-4 -40 -6.5 -60t-8 -56.5t-12 -56t-17 -48t-24.5 -44t-33 -31t-44 -22.5t-56 -7q-48 0 -82 21t-52.5 58.5t-27 81.5 t-8.5 97q0 71 19 202q20 146 20 219q0 15 -3 33.5t-16 39.5t-34 21q-11 0 -15.5 -12.5t-7.5 -36.5q-5 -39 -15 -47q-8 -6 -20 -6q-50 0 -50 58q0 50 32 89t80 39q55 0 93 -49.5t41 -115.5q0 -46 -15 -164q-12 -74 -15 -112l-2 -32q-9 -97 -9 -130q0 -171 95 -171 q30 0 49.5 21t27.5 46.5t16 68.5q20 116 20 188q0 40 -1 60q0 10 -0.5 28t-0.5 27q0 31 2 91q3 93 3 117q0 16 -1 25q-2 22 -2 39q0 70 41 70q9 0 15 -2l-7 1h1z" />
<glyph unicode="&#xe03;" horiz-adv-x="639" d="M546 730v-28q1 -15 1 -46q0 -40 -3 -73q-3 -63 -3 -67v-24q0 -4 0.5 -12t0.5 -12q0 -5 -0.5 -16t-0.5 -17v-100q0 -57 -3.5 -100t-15.5 -91t-33 -79t-58.5 -51.5t-88.5 -20.5q-191 0 -191 295q0 70 23 198q5 25 13 73q2 24 3 35q2 24 4 36t4.5 23t3.5 16t2 14.5t1 23.5 q-42 -24 -83 -24q-57 0 -96.5 42t-39.5 88q0 43 38 43q13 0 22.5 -7.5t13 -14.5t10.5 -23q16 -49 52 -49q28 0 48 18l12 19q9 17 14 25t16 17t24 9q30 0 43 -36.5t13 -75.5q0 -44 -12 -118q-7 -51 -7 -53q-3 -26 -15 -79v1q-2 -10 -8 -39.5t-8 -44.5q-6 -38 -6 -108 q0 -47 4 -82t14.5 -69.5t34 -53t58.5 -18.5q30 0 52 17.5t33 41.5t17.5 61.5t8 65.5t1.5 65v51q0 12 -0.5 35.5t-0.5 36.5q-1 21 -1 73q0 21 4 65q4 50 4 81q0 29 -3 64q-4 46 -4 71q0 53 42 53q16 0 26.5 -10t14 -31.5t4.5 -36t1 -41.5v-6z" />
<glyph unicode="&#xe04;" horiz-adv-x="698" d="M610 504q3 -70 3 -205q0 -88 3 -178q0 -11 1 -19q0 -4 0.5 -15t0.5 -18q0 -67 -43 -67q-29 0 -38.5 54t-9.5 145v160q0 12 0.5 36.5t0.5 36.5q0 106 -11 187q-13 74 -61 114t-121 40q-61 0 -103.5 -25t-65 -71.5t-32.5 -103.5t-10 -131v-23q2 1 14 9q25 19 45 28 q24 9 68 19l-1 -1q21 6 36 8q49 11 69 11q54 0 54 -39q0 -37 -61 -46q-5 -1 -27 -3q-13 -2 -20 -3q-67 -14 -120 -39t-53 -56q0 -4 3 -64q2 -30 2 -47v-32q0 -6 2 -24v1q1 -7 1 -24q0 -43 -11 -83.5t-36 -40.5q-42 0 -42 57q0 25 2 69q1 23 1 69q0 36 -4 118q-5 67 -5 126 q0 72 7.5 130t27 113.5t51 93t83.5 60.5t120 23q97 0 165.5 -42.5t93.5 -118.5q17 -49 21 -189z" />
<glyph unicode="&#xe05;" horiz-adv-x="748" d="M577 813h1q47 -33 63 -88t16 -141q0 -22 -0.5 -49t-1.5 -60.5t-1 -53.5q-3 -88 -3 -173q0 -60 1 -90q0 -14 0.5 -43t0.5 -44q0 -64 -42 -64q-45 0 -45 72q0 21 2 51q2 20 2 35q-3 42 -3 91q0 18 0.5 39t1.5 46.5t1 40.5q2 90 2 136q0 3 -0.5 11.5t-0.5 12.5v54 q0 5 0.5 15t0.5 16q0 51 -22.5 93t-69.5 42q-15 0 -40 -10.5t-34 -21.5q-4 -4 -11 -25q-7 -20 -12.5 -31.5t-17.5 -22.5t-26 -11q-16 0 -26 12t-20 35q-10 22 -16.5 32.5t-22.5 23.5t-36 13q-26 0 -50 -13h1q-48 -26 -48 -151q0 -18 5 -106q1 -14 3 -44q2 1 5 4 q88 48 183 48h7q84 3 88 -43q-5 -47 -49 -47q-12 0 -32 4q-17 3 -30 3q-69 0 -119.5 -33.5t-50.5 -82.5q0 -14 2 -64q4 -50 4 -73v-12q0 -31 -0.5 -44.5t-4.5 -40t-14.5 -38.5t-27.5 -12q-42 0 -42 64q0 7 3 37v2v2q0 30 -2 78q-2 38 -2 126q0 110 -6 187q-4 52 -4 84 q0 129 47.5 189t141.5 60q67 -3 114 -62q23 29 62.5 47t79.5 18q51 0 95 -30z" />
<glyph unicode="&#xe06;" horiz-adv-x="801" d="M600 849l2 1q14 7 29 7q33 0 38 -26q20 -162 20 -451v-13q0 -175 -34 -238h1q-32 -63 -97.5 -102t-159.5 -39q-104 0 -184 84q-4 -32 -15.5 -51t-44.5 -24q-15 0 -23 7t-9 14t-1 19q0 20 9 81q6 34 6 61q1 101 4 159.5t19.5 137.5t48.5 140v1l3.5 7t4.5 7q40 73 40 117v1 q-54 -35 -110 -35q-42 0 -87 30.5t-45 71.5q0 15 11 25t26 10q29 0 48 -32q1 -2 6 -6l-1 -2q18 -16 52 -16q30 0 60 34q32 34 59 34q28 0 46.5 -34.5t18.5 -74.5q0 -75 -54 -164q-23 -38 -32 -61q-23 -48 -27 -194q0 -5 -0.5 -12.5t-0.5 -11.5q0 -21 -1 -28q-2 -24 -2 -36 q0 -28 8 -45q59 -131 184 -131q110 0 158 95q16 31 25 125q9 2 28 4h-27q0 21 2 69q3 102 3 112q0 147 -13 290q0 1 -0.5 4t-0.5 5q-4 24 -4 39q0 23 13 35z" />
<glyph unicode="&#xe07;" horiz-adv-x="539" d="M400 835h1q35 -17 54 -64.5t19 -102.5q0 -71 -25 -187q-8 -41 -21 -125q-23 -126 -42 -200q-1 -4 -3.5 -12.5t-3.5 -12.5q-7 -33 -12.5 -49.5t-18 -38.5t-33.5 -31.5t-53 -9.5q-28 0 -51.5 12t-43 35.5t-32 44.5t-28.5 52q-80 184 -84 283q0 17 12.5 26.5t28.5 9.5 q23 0 34 -19q9 -30 24 -90q9 -36 23 -79q34 -98 92 -180q11 -14 28 -14q24 0 35 64v-1q2 21 3 24q10 57 26 132q6 28 9 43q5 39 18 108v-1q29 133 29 202q0 21 -0.5 31t-3 28.5t-8 27.5t-17 17t-28.5 8q-39 0 -48 -17l1 1q-2 -4 -5 -14l1 1q-3 -14 -6.5 -21.5t-13 -14 t-24.5 -6.5q-16 0 -29 11q-2 2 -6.5 14.5t-4.5 19.5q0 52 40.5 80t102.5 28q36 0 64 -13z" />
<glyph unicode="&#xe08;" horiz-adv-x="615" d="M246 840q2 2 11 4q17 3 36 3q123 0 186 -79t63 -215q0 -118 -31 -329v1q-3 -33 -5.5 -52.5t-8.5 -49.5t-14 -48t-20.5 -36.5t-31 -27t-42.5 -8.5q-30 0 -60.5 25.5t-43.5 57.5q-13 34 -26 138q-13 118 -27 151q-13 27 -32 35q-3 1 -9 1.5t-9 0.5q-19 2 -28.5 4t-20 11 t-10.5 24q0 44 55 44q113 0 144 -118q8 -32 16 -112q4 -41 7 -65t9.5 -55t16 -45.5t22.5 -14.5q16 0 22 75q1 5 3 13l-1 -2q5 35 14 91q1 8 7 43.5t8 55.5t2 33q0 28 1 39q2 36 4 50q5 35 5 67q0 43 -16.5 95.5t-38.5 86.5q-47 36 -102 36q-44 0 -94 -28t-78 -61 q0 -1 -4 -6.5t-5 -7.5l1 1q-7 -12 -11 -17.5t-12.5 -11.5t-18.5 -6q-13 0 -25.5 12t-12.5 30q0 48 66 96t139 71z" />
<glyph unicode="&#xe09;" horiz-adv-x="660" d="M562 208v-19q0 -67 15 -113q0 -2 6 -8q13 -13 13 -31q0 -13 -12 -25.5t-26 -14.5q-25 0 -46.5 38t-29.5 88q-27 -21 -51 -50q-24 -28 -39 -42t-46 -27t-70 -13q-41 0 -83.5 21.5t-61.5 49.5q-19 26 -28.5 71t-10.5 75t-2 93v32q0 50 -6 68q-2 4 -13 13q-23 21 -23 40 q0 17 12 27.5t28 10.5q22 0 46 -21.5t31 -43.5q10 -35 10 -104q0 -3 -0.5 -9.5t-0.5 -9.5v-18q0 -52 3.5 -87t14.5 -66.5t33.5 -47t57.5 -15.5q43 0 79 47q52 66 119 99v31q0 60 5 143q6 102 6 152q0 162 -34 211q-17 23 -65.5 34t-104.5 11q-119 0 -167 -97l-1 -4 q-1 -4 -2.5 -9t-2.5 -7v2q-5 -19 -12 -27.5t-23 -8.5q-43 0 -43 46q0 19 10 44q74 141 244 141q70 0 134.5 -19t94.5 -52q31 -32 45 -143q8 -61 8 -142q0 -91 -8 -239q0 -9 -1 -36t-2 -39z" />
<glyph unicode="&#xe0a;" horiz-adv-x="645" d="M538 498q6 -67 6 -182v-90q0 -36 -3 -63q-2 -12 -2 -15q-2 -22 -3.5 -30t-8 -25t-18.5 -31q-23 -27 -62.5 -46t-79.5 -19h-6q-1 0 -4 1h-3q-31 3 -56.5 10.5t-44.5 16.5t-33.5 26.5t-24 31t-16 39t-9.5 42.5t-5 50t-2 52v58v5q-1 41 7 125q5 95 5 110q0 40 1 62 q2 44 2 71q0 82 -37 82q-33 0 -49 -56q-4 -10 -4.5 -12t-4 -9.5t-6.5 -10t-8 -6.5t-12 -5q-41 3 -41 48q0 56 36.5 94.5t92.5 38.5q62 0 89.5 -45t27.5 -117q0 -25 -1 -34q-2 -22 -2 -32v-23q0 -4 0.5 -13t0.5 -14q-1 -33 -5 -114q-6 -110 -6 -163v-66q0 -80 19 -111 q12 -21 39.5 -33t58.5 -12q47 0 75 28q20 26 20 123q0 9 0.5 29t0.5 30v57q0 59 -4.5 101t-16.5 84t-38.5 67t-66.5 31q-2 0 -5 0.5t-4 0.5q-14 1 -17.5 1.5t-9.5 4.5t-7.5 11.5t-3.5 22.5q0 22 12 34.5t39 21.5q15 5 34 13l-1 -1q49 27 69 78q6 23 7 34q2 38 4 46 q5 16 10 21t17 9l-2 -1q9 3 14 5q11 -2 19.5 -7t12 -10.5t5.5 -15.5t2.5 -15.5t0 -17t-0.5 -13.5q0 -60 -23 -95.5t-72 -71.5q90 -52 102 -191z" />
<glyph unicode="&#xe0b;" horiz-adv-x="612" d="M549 910v-2q3 -21 3 -40q0 -34 -7 -58.5t-22.5 -41t-27.5 -25.5t-34 -21q-6 -3 -9 -5q50 -34 72.5 -75.5t22.5 -124.5q0 -32 -4 -94q-1 -7 -1 -21.5t-1 -21.5q-2 -42 -2 -60q-2 -122 -20 -175q-21 -63 -73.5 -105t-114.5 -42q-49 0 -97.5 27.5t-70.5 71.5q-33 65 -33 241 q0 7 0.5 21t0.5 21q1 14 1 45q0 19 -1 29q0 6 -0.5 17t-0.5 15q0 57 42 147q19 40 27 69q-33 -25 -75 -25q-39 0 -88.5 45t-49.5 90q0 17 12 33.5t28 16.5q11 0 20.5 -8t14 -16t12.5 -24q25 -55 51 -55q19 0 41 18.5t23 39.5q-1 0 -1 1t-1 6v5q0 14 14 24t24 10 q23 0 38.5 -27t20 -51t4.5 -38q0 -60 -38 -142q-34 -72 -34 -121q0 -4 0.5 -12t0.5 -12v-24q0 -27 -1 -39q0 -5 -0.5 -16t-0.5 -17q0 -45 0.5 -72.5t4.5 -66t11 -61.5t21 -44.5t34 -30.5q32 -14 54 -14q35 0 67 37q21 22 32.5 62.5t14 72.5t4.5 93q0 5 0.5 16t0.5 17v29 q4 70 4 105q0 162 -133 162q-3 0 -6 1t-4.5 2t-3.5 3l-3 3t-1.5 4t-1 4t-0.5 4.5v4.5v5v5q0 39 38 44l-2 -1q2 0 4 1t4 1q51 16 70 32q5 4 10 10l-1 -1q5 5 15 17l-1 -1q1 1 3 4q18 28 19 49v21q0 56 45 56q29 0 36 -27z" />
<glyph unicode="&#xe0c;" horiz-adv-x="952" d="M871 803v-2q5 -48 5 -115v-77q0 -56 -5 -126q-6 -86 -6 -127v-66q0 -45 -3 -79.5t-13 -75t-28.5 -67t-51.5 -44.5t-79 -18q-65 0 -115 25q-26 13 -55 41q-6 -57 -43 -57q-40 0 -40 56q0 37 5 65q0 3 2 17q13 118 13 258q0 14 -0.5 42t-0.5 43v74q0 134 -65 190 q-17 14 -46 24.5t-43 10.5q-75 0 -132 -38.5t-57 -98.5q0 -19 12 -53q10 -30 13 -48q8 -50 8 -100q0 -100 -19 -341l-3 -32q-2 -25 -4 -36t-11.5 -22t-27.5 -11t-27.5 10t-11 20.5t-1.5 27.5q0 55 11 189q9 104 9 175q0 18 -2 56q-1 23 -14 73q-16 68 -16 101q0 86 78 148 t186 62q57 0 105 -23q77 -41 108 -102.5t34 -165.5q0 -16 -2 -42v1q-2 -28 -2 -43q0 -33 1 -48q0 -8 0.5 -23.5t0.5 -22.5q0 -68 -3 -125q-2 -60 -2 -88v-6q6 -29 51 -66.5t117 -37.5q43 0 62.5 50.5t19.5 122.5q0 23 -1 35q-2 24 -2 41q0 86 5 199q4 130 4 196q0 19 -3 41 q-4 36 -4 60q0 53 39 53q30 0 39 -18.5t10 -51.5q0 -5 1 -10z" />
<glyph unicode="&#xe0e;" horiz-adv-x="636" d="M562 288v-111q0 -12 -0.5 -36.5t-0.5 -35.5q0 -4 0.5 -12.5t0.5 -11.5v-21q0 -146 -46 -197q-37 -39 -104 -60t-141 -21q-49 0 -94.5 10t-45.5 36q0 19 10.5 31t21 15t19.5 3q30 0 56 -4h-1q2 0 9 -1l17 -2h-2q94 0 137 15q51 19 64.5 59.5t13.5 115.5v37q0 23 0.5 74 t0.5 78q1 57 1 178q0 144 -6 234q-4 42 -25 65.5t-62 40.5q-51 21 -88 21q-38 0 -78.5 -9.5t-72.5 -31.5t-32 -50q0 -10 12 -36q4 -7 6.5 -12.5t2.5 -6.5q14 -52 14 -121q0 -23 -2 -67q0 -4 -0.5 -15t-0.5 -15q-4 -71 -4 -223q0 -77 -1 -113v-9q0 -2 0.5 -6.5t0.5 -6.5 q0 -48 -36 -48q-51 0 -48 85v6q0 12 0.5 34.5t0.5 33.5q1 25 1 79v33q0 6 -0.5 18t-0.5 18q0 47 3 94q3 87 3 89q0 76 -11 106q-5 15 -6 17q-18 38 -18 68q0 71 83 121.5t181 50.5q51 0 124 -27q66 -26 99.5 -61.5t39.5 -106.5q5 -60 5 -170v-63q0 -11 -0.5 -35t-0.5 -35 q0 -57 1 -85z" />
<glyph unicode="&#xe0f;" horiz-adv-x="660" d="M581 64v-1q0 -56 -2.5 -92t-12.5 -80.5t-34.5 -67.5t-62.5 -23q-58 0 -97 17q-26 11 -56 34v-1h-1q-67 -50 -167 -50q-37 0 -72.5 19.5t-35.5 52.5q0 18 13 27t24 9q15 0 37 -16q11 -11 26 -11q69 0 127 32h-1q7 3 13 11q23 23 43 23q9 0 18.5 -4.5t13 -8t15.5 -14.5 q40 -40 88 -40q13 0 20 14q19 102 19 169v37q0 23 0.5 74t0.5 78q1 57 1 176q0 158 -5 233q-3 42 -24.5 64.5t-64.5 41.5h1q-54 21 -89 21q-60 0 -121 -24.5t-61 -65.5q0 -14 12 -38v1q8 -22 10 -28v1q13 -42 13 -113q0 -23 -2 -67q0 -4 -0.5 -15t-0.5 -15q-5 -107 -5 -335 v-7q0 -44 -13 -56q-8 -7 -20 -8q-53 0 -50 91v73q0 12 0.5 36.5t0.5 37.5v33q0 6 -0.5 18t-0.5 18q0 47 3 94q3 87 3 89q0 73 -10 106q-1 5 -8 18q-17 40 -17 68q0 69 84 120t181 51q55 0 124 -26q66 -26 99 -61.5t39 -107.5q5 -54 5 -154v-139q0 -10 0.5 -30.5t0.5 -30.5 v-56q0 -10 -0.5 -36t-0.5 -39q-1 -29 -1 -84q0 -29 1 -43z" />
<glyph unicode="&#xe10;" horiz-adv-x="615" d="M556 873v1q3 -6 3 -15q0 -11 -8.5 -23t-14 -16t-20.5 -15q-1 0 -5.5 -3t-5.5 -4l2 1q-13 -9 -21 -16l-12 -9l-7 -5q58 -75 58 -181q0 -92 -33 -218l1 1q-1 -5 -6 -25t-7 -30q-20 -117 -51 -187l1 -1l-5 -10v1q-10 -22 -17 -36t-20.5 -33t-31 -28.5t-38.5 -9.5 q-29 0 -53.5 24.5t-35.5 49t-14 42.5l1 -3q-15 52 -25 124q-3 34 -10 69l1 -1q-20 89 -84 153v-1l-3 4q-3 4 -5.5 7.5t-5 9.5t-2.5 12q0 16 12 25t27 9q19 0 41 -15q52 -41 74.5 -107t38.5 -174q4 -39 17.5 -93t29.5 -54q29 0 84 263q32 148 32 246q0 79 -40 128t-110 49 q-47 0 -98.5 -32.5t-77.5 -79.5l1 1q-18 -33 -42 -33q-16 0 -26 11.5t-10 26.5q0 20 18 50.5t30 42.5v-1q37 39 93.5 66t121.5 27q60 0 115 -34q4 3 7.5 6t8.5 8l9 9q18 16 26.5 23.5t24.5 15.5t30 8q29 0 37 -21zM426 -67v-1q1 27 38 27q15 0 24 -5.5t12.5 -16.5t4.5 -18 t1 -19q0 -57 -34.5 -86t-90.5 -29q-63 0 -110 32q-5 5 -8 10q-13 -13 -17 -15l2 2q-46 -33 -128 -33q-41 0 -79.5 13.5t-38.5 41.5q0 18 13.5 28.5t25.5 10.5q7 0 23 -7q2 -1 3.5 -1t3.5 -0.5t4 -0.5q21 -4 46 -4q69 0 94 33q6 8 6 9q4 11 8 17t12.5 11.5t21.5 5.5 q14 0 24.5 -7t14 -13t11.5 -21q6 -15 9 -16q23 -18 60 -18q17 0 26.5 9t11.5 18.5t4 28.5q0 3 1 7.5t1 6.5z" />
<glyph unicode="&#xe11;" horiz-adv-x="804" d="M266 863q37 0 68 -73q72 58 143 58q101 0 155 -73t54 -183q0 -53 -3 -107q-4 -68 -4 -102v-44q0 -7 0.5 -21.5t0.5 -21.5q0 -19 -2 -63q-1 -22 -1 -59v-88v-15.5t-1 -15.5t-3 -17.5t-6 -12.5t-11 -11.5t-16 -4.5q-16 0 -25.5 6t-13.5 20.5t-5 26.5t-1 35v28q-1 9 -1 30 q0 11 0.5 37t0.5 38q2 44 2 58q0 9 -0.5 28t-0.5 29q-1 19 -1 63q0 113 8 170q0 3 -0.5 10.5t-1.5 10.5q-8 78 -22 103h1q-34 65 -107 65q-56 0 -115.5 -67.5t-73.5 -165.5l-6 -32q-8 -40 -8 -56q0 -4 0.5 -12t0.5 -11v-19q0 -73 -1 -112t-5 -117t-16 -118t-32 -40l-7 1 q-4 1 -9.5 2.5t-15 11t-9.5 22.5q14 163 14 306q0 6 -0.5 17.5t-0.5 17.5v36q0 161 80 284q-1 4 -6 22q-2 6 -3 10q-48 -37 -99 -37q-54 0 -93 32.5t-39 79.5q0 20 12 30.5t24 10.5t20.5 -6t11.5 -11.5t10 -19.5q5 -11 9.5 -17.5t15.5 -13t26 -6.5q24 0 45.5 13t26.5 29 q2 13 11.5 22.5t24.5 9.5z" />
<glyph unicode="&#xe12;" horiz-adv-x="1108" d="M981 826l1 -3q18 -153 18 -262q0 -25 -2 -77q-3 -78 -3 -81v-45q0 -8 0.5 -24.5t0.5 -24.5q0 -115 -17 -176q-17 -58 -64.5 -95.5t-109.5 -37.5q-60 0 -99 24t-74 66q-6 -65 -46 -65q-17 0 -26 11.5t-10 21t-1 26.5q0 10 5 52q0 7 1.5 21.5t2.5 22.5q2 46 2 74l-3 114 q-2 76 -2 116q0 35 4 97q4 60 4 84q0 130 -86 130q-17 0 -40 -18h1q-17 -15 -37 -54q-12 -21 -17.5 -29.5t-16.5 -18t-23 -9.5q-10 0 -16 2q-19 14 -38 54q-9 18 -15.5 28t-22 20.5t-35.5 10.5q-18 0 -31.5 -11t-21.5 -33t-13.5 -44t-7.5 -56t-2.5 -57t-0.5 -57q0 -19 2 -61 v1q2 -20 2 -38q1 -22 1 -69q0 -76 1 -93q145 12 173 137q2 10 2 15q0 19 1.5 27.5t12.5 16.5t33 8q39 0 39 -44q0 -27 -15 -69q-30 -86 -91.5 -125.5t-155.5 -44.5v-86q0 -4 0.5 -11.5t0.5 -10.5q0 -65 -43 -65q-38 0 -38 47q0 3 0.5 7.5t0.5 7.5v11q0 44 -5 219 q-5 107 -5 194q0 22 2 60q0 4 1 13t1 13v-1q2 38 3.5 59.5t6 55t11.5 53t19 43.5t29 36.5t41.5 21.5t56.5 9q42 0 67.5 -16.5t50.5 -48.5q25 34 63.5 55.5t82.5 21.5q88 0 121.5 -57.5t33.5 -156.5q0 -52 -3 -102q-4 -68 -4 -97q0 -25 2 -71q1 -23 1 -68v-58q0 -10 -0.5 -26 t-0.5 -26q9 -10 31 -39q22 -30 35.5 -45t41 -30.5t61.5 -16.5q26 0 45 12t29.5 30.5t16 48t7 56t1.5 63.5v72q0 69 1 105q2 72 2 104q0 40 -6 120q-5 62 -5 105q0 23 10 41.5t33 18.5q28 0 37 -29z" />
<glyph unicode="&#xe13;" horiz-adv-x="943" d="M772 838l14 9q7 2 14 2q20 0 30 -13t11.5 -26t0.5 -35v-71q0 -10 0.5 -32.5t0.5 -33.5q0 -27 -0.5 -56.5t-1.5 -65t-1 -55.5q-4 -122 -4 -188q0 -100 11 -167q1 -2 2 -8t1 -8l-1 1q6 -30 6 -31q0 -37 -42 -54q-36 11 -43 52l-2 -3q-69 -63 -145 -63q-51 0 -94.5 32 t-61.5 77h1q-18 44 -18 153v51q0 89 -1 132q0 21 -0.5 63t-0.5 62q0 4 0.5 13t0.5 13v24q0 168 -160 168q-76 0 -124.5 -29.5t-48.5 -88.5q0 -27 18 -56v1q12 -16 19 -37v1q9 -26 9 -68q0 -25 -4 -63q0 -3 -0.5 -8t-0.5 -7q-9 -122 -11 -154q-4 -84 -12 -175q0 -3 -0.5 -7 t-0.5 -6q-2 -19 -3 -27.5t-5 -20.5t-12.5 -17t-21.5 -5q-21 0 -31 19t-10 44q0 84 12 194q14 136 14 221q0 43 -19 85q-21 50 -21 91q2 58 37.5 106t86.5 67l-1 -1q50 22 133 22q68 0 121.5 -22t79.5 -66q41 -63 41 -149q0 -7 -0.5 -23t-0.5 -25q-1 -16 -1 -47q0 -40 2 -112 q2 -60 2 -94q0 -7 -0.5 -21.5t-0.5 -22.5q-1 -15 -1 -47q0 -160 97 -160q56 0 112 76q17 22 17 27t-2 21q-2 20 -2 31q0 14 -2 48q-2 60 -2 99q0 26 4 68q3 30 3 58q0 34 -2 100q-1 30 -1 99v50q0 64 16 89z" />
<glyph unicode="&#xe14;" horiz-adv-x="692" d="M561 23l-21 21q0 27 -4 91t-4 96q0 8 0.5 21.5t0.5 19.5q1 14 1 44l-3 147v-1q-1 11 -1 35q-2 43 -4 64.5t-11.5 56t-31 61t-56.5 51.5q-5 5 -13 9q-19 13 -29 19t-30.5 12t-44.5 6q-34 0 -60 -13t-43.5 -31.5t-29 -52.5t-18 -62.5t-9.5 -76t-3.5 -77t-0.5 -81.5v-23 q0 -3 0.5 -10t0.5 -11q0 -21 -1 -29q0 -4 -0.5 -11t-0.5 -10q0 -29 1 -43v-21q154 13 183 138q2 10 2 15q0 19 1.5 27.5t12 16.5t32.5 8q39 0 39 -44q0 -40 -24.5 -93t-57.5 -83q-69 -59 -186 -64v-39v-38q0 -55 -37 -55q-46 0 -46 105q0 5 0.5 12.5t0.5 10.5v14q0 21 -2 65 q-2 38 -2 61q0 12 2 32q2 24 2 36v25q0 89 8 174q6 92 21.5 155t52.5 95q27 25 75.5 42.5t78.5 17.5q40 0 72 -9t47.5 -18t49.5 -31q2 -2 6.5 -4.5t6.5 -3.5h-1q86 -59 116 -151q10 -31 14 -120q0 -11 2 -33q6 -110 6 -330v-49q0 -94 -43 -94q-13 0 -24 9q1 -1 7 -1z" />
<glyph unicode="&#xe15;" horiz-adv-x="754" d="M650 629q3 -49 3 -102q0 -54 -4 -166q-6 -110 -6 -172q0 -11 2 -45q3 -60 3 -64q0 -66 -42 -66q-45 0 -45 62v24q0 40 -1 62q-1 23 -1 68q0 64 1 95q1 11 2.5 35t1.5 34q4 79 6 173q0 70 -8 118q-6 37 -28.5 66.5t-66.5 29.5q-18 0 -30 -12t-16.5 -26.5t-8.5 -39.5 q-1 -5 -4 -17.5t-3 -14.5q-23 -16 -35 -16q-18 0 -26.5 11.5t-17.5 37.5q-27 85 -86 85q-17 0 -30.5 -6t-22.5 -20t-16 -27.5t-11 -37.5t-6.5 -40t-3.5 -45.5t-1 -43v-43.5v-20q0 -51 2 -151q0 -7 1.5 -55t1.5 -75q91 4 147 65q13 14 24 50v-1q16 42 26 50q11 8 24 8 q37 0 37 -51q0 -45 -30 -87q-32 -46 -92.5 -76.5t-130.5 -37.5q1 -27 1 -88q0 -57 -40 -57t-42 77v6l-3 63q-11 224 -11 370q0 201 39 273q22 36 63 57.5t82 21.5q72 0 118 -55q41 49 104 49q51 0 97.5 -30.5t62.5 -69.5v1q14 -34 18 -104q0 -5 1 -15t1 -15z" />
<glyph unicode="&#xe16;" horiz-adv-x="680" d="M541 2l-17 1q-16 9 -24 31t-8.5 36t-0.5 45v12q0 22 2 62t2 57v296q-2 117 -51.5 181t-167.5 64q-62 0 -102 -21.5t-40 -67.5q0 -23 11 -52q3 -8 7 -13q11 -19 12 -24q7 -22 7 -68q0 -50 -20 -163q-19 -95 -19 -150q0 -69 14 -107t53 -38q12 0 29 4q4 0 0 -2q36 9 39 9 q40 0 40 -35q0 -16 -19.5 -29t-39.5 -18.5t-33 -6.5h-12q-36 0 -63.5 10t-43.5 31.5t-25.5 41.5t-13.5 54t-5 54.5t-1 55.5q0 46 19 141q18 92 18 133q0 31 -4 50q-8 28 -16 44q-20 49 -20 70q0 88 66.5 133.5t167.5 45.5q110 0 187.5 -52.5t97.5 -157.5q13 -73 13 -171v-74 q0 -10 0.5 -33t0.5 -35q1 -22 1 -73q0 -4 -3 -49q-2 -30 -2 -46q0 -15 2 -49q3 -51 3 -52q0 -58 -41 -75z" />
<glyph unicode="&#xe17;" horiz-adv-x="683" d="M135 6l-16 2q-13 7 -18 13.5t-6.5 13.5t-2.5 28q0 1 -0.5 5t-0.5 6q-1 28 -1 92q0 48 2 160q3 99 3 215q0 153 -33 202q-3 5 -14 14q-31 21 -31 48q0 38 36 38q33 0 59.5 -29.5t42.5 -74.5q26 35 49 59t66 45.5t92 21.5q102 0 162.5 -62t60.5 -175q0 -195 -3 -278 q-2 -42 -2 -127q0 -96 -3 -140q-2 -39 -10.5 -55.5t-31.5 -16.5q-42 0 -42 64q0 81 3 186q5 208 5 277q0 33 -0.5 49t-2.5 47t-7 47.5t-14.5 38.5t-23.5 33.5t-36 20t-50 8.5q-32 0 -57 -9.5t-45.5 -31.5t-33 -40t-31.5 -50q-8 -14 -13 -21q-8 -14 -8 -32v-39q0 -65 -4 -213 q-4 -142 -4 -215q0 -5 2 -25t2 -33q0 -55 -40 -67z" />
<glyph unicode="&#x2219;" horiz-adv-x="683" d="M135 6l-16 2q-13 7 -18 13.5t-6.5 13.5t-2.5 28q0 1 -0.5 5t-0.5 6q-1 28 -1 92q0 48 2 160q3 99 3 215q0 153 -33 202q-3 5 -14 14q-31 21 -31 48q0 38 36 38q33 0 59.5 -29.5t42.5 -74.5q26 35 49 59t66 45.5t92 21.5q102 0 162.5 -62t60.5 -175q0 -195 -3 -278 q-2 -42 -2 -127q0 -96 -3 -140q-2 -39 -10.5 -55.5t-31.5 -16.5q-42 0 -42 64q0 81 3 186q5 208 5 277q0 33 -0.5 49t-2.5 47t-7 47.5t-14.5 38.5t-23.5 33.5t-36 20t-50 8.5q-32 0 -57 -9.5t-45.5 -31.5t-33 -40t-31.5 -50q-8 -14 -13 -21q-8 -14 -8 -32v-39q0 -65 -4 -213 q-4 -142 -4 -215q0 -5 2 -25t2 -33q0 -55 -40 -67z" />
<glyph unicode="&#xe18;" horiz-adv-x="648" d="M564 813l4 -5q4 -8 4 -15q0 -27 -40 -44.5t-59 -17.5q-36 0 -91 24v-1q-10 3 -26.5 9.5t-21.5 8.5q-25 6 -65 6q-126 0 -163 -131v1q-3 -30 -3 -34q2 -39 23 -39q14 0 46 6q14 2 20 3q56 8 102 11q7 0 32 6q45 9 59 9q40 0 80 -16t58 -41q26 -37 26 -130v-28q0 -36 1 -57 q2 -42 2 -69q0 -74 -11.5 -120t-42.5 -79.5t-86 -47t-143 -13.5q-45 0 -98.5 23.5t-73.5 63.5l1 -1q-31 51 -31 168v72q0 3 -0.5 11.5t-0.5 12.5q0 67 40 67q41 0 41 -77q0 -9 -0.5 -25t-0.5 -22v-34q0 -127 39 -152q47 -29 99 -29q110 0 145 24q39 35 39 152v107 q0 43 -0.5 60.5t-5 43.5t-13.5 37q-12 9 -41 11q-21 2 -33 6q-44 -3 -126 -17h1q-92 -16 -142 -16q-33 0 -54 23t-27 47.5t-6 47.5q0 56 28.5 111.5t87 95.5t131.5 40q45 0 124 -23h-1q23 -6 37 -13l-1 1q26 -12 40 -12q6 0 22 8q18 10 37 10q21 0 38 -18z" />
<glyph unicode="&#xe19;" horiz-adv-x="724" d="M548 858l-1 -1q8 6 22 6t25.5 -7.5t13.5 -21.5q10 -119 10 -386v-33q0 -13 -0.5 -28.5t-1.5 -35t-1 -30.5q-3 -48 -3 -95q0 -122 17 -140q11 -16 11 -28q0 -16 -11.5 -29.5t-28.5 -13.5q-21 0 -35 14.5t-18.5 29.5t-9.5 41q-2 -2 -5.5 -5t-5.5 -5q-28 -23 -37 -28 q-86 -56 -190 -56q-199 0 -204 251q0 32 7 156q7 93 7 159q0 112 -34 179q0 1 -11 17q-24 35 -24 51q0 13 9 25t25 12q22 0 49 -32.5t40 -62.5q32 -85 32 -208q0 -49 -6 -145q-6 -98 -6 -146q0 -172 131 -172q37 0 71.5 14t52 27t49.5 41l-1 -1q33 29 41 35v35q0 31 4 99 q2 68 2 89q0 4 -0.5 10.5t-0.5 9.5v53q0 6 0.5 18t0.5 19q0 1 -3 142q-4 82 -4 125q0 39 22 52z" />
<glyph unicode="&#xe1a;" horiz-adv-x="689" d="M559 851l21 -17q14 -87 14 -291q0 -95 2 -141q0 -3 0.5 -9t0.5 -10q2 -62 2 -106q0 -197 -92 -246q-28 -14 -76.5 -22.5t-87.5 -8.5q-33 0 -93 14q-3 1 -10 2.5t-10 2.5h1q-26 6 -44.5 13t-34 20t-25.5 26.5t-17.5 40t-11 51t-6 68t-3 84t-0.5 105.5q0 29 2 93q2 60 2 86 q0 83 -30 155q-1 6 -9 16q-19 29 -19 52q0 14 11.5 22.5t24.5 8.5q19 0 33 -10t23.5 -29.5t13 -30.5t8.5 -30l2 -4q24 -79 24 -139v-49q0 -9 -0.5 -26t-0.5 -24v-269q0 -111 30 -136q35 -31 159 -31q114 0 135 51q18 40 18 123q0 28 -5 175q-4 106 -4 156v46q0 8 0.5 25.5 t0.5 26.5q0 24 -3 51q-4 40 -4 70q0 50 38 50l19 -5h1z" />
<glyph unicode="&#xe1b;" horiz-adv-x="671" d="M537 1020l20 -15q12 -46 12 -129q0 -44 2 -65q3 -48 3 -148q0 -42 -1 -62q0 -7 -0.5 -27t-0.5 -26q0 -33 1 -46q0 -4 0.5 -14t0.5 -16v-17q0 -3 -0.5 -8.5t-0.5 -9.5q0 -24 2 -80q1 -23 1 -74q0 -68 -3 -105.5t-20.5 -79.5t-52.5 -62q-56 -31 -193 -31q-49 0 -85 6.5 t-69.5 24.5t-52.5 55.5t-22 93.5q-2 42 -2 64q0 81 3 170q4 118 4 170q0 40 -4 72q-2 14 -4 18l-5 25q0 2 -0.5 7.5t-0.5 7.5q-2 21 -5 28v-1q-1 3 -13 24l1 -2q-20 24 -18 45q0 35 35 35q20 0 41 -23.5t33 -47.5q4 -11 6 -37l2 -22q16 -90 16 -131q0 -15 -2 -47 q0 -7 -0.5 -22.5t-0.5 -23.5q0 -7 0.5 -19.5t0.5 -18.5v-36q0 -29 -4 -93q-4 -62 -4 -87q0 -99 36.5 -128t135.5 -29q120 0 142 31t22 113q0 93 -3 188q0 22 -1 59t-1.5 66.5t-0.5 53.5q0 27 2 77t2 73q0 45 -4 133q-3 63 -3 143l14 -1q8 6 21 6q12 -3 17 -4q0 -1 2 -1h-1z " />
<glyph unicode="&#xe1c;" horiz-adv-x="710" d="M494 821q5 27 29 27q27 0 41 -21.5t28 -74.5q0 -2 1 -5.5t1 -5.5v-1.5t1 -1.5q21 -91 24 -147q1 -5 1 -14.5t1 -14.5q0 -3 1 -13t2 -15v1q1 -7 1 -22q7 -84 7 -117q0 -88 -9 -175q-4 -36 -9.5 -62t-17 -55.5t-27.5 -48t-42 -31t-60 -12.5q-67 0 -120 71q-51 -65 -115 -65 q-50 0 -85 22t-53.5 63t-26 89t-7.5 111v33q0 24 -2 74v71q0 136 23 215q4 9 5 16q0 4 3 10q7 25 11 39t13.5 34t20.5 30.5t29 18.5t41 8q33 0 71 -31t38 -70q0 -15 -10 -26.5t-28 -11.5q-32 0 -52 38l-2 2q-16 21 -17 22q-55 -6 -55 -332v-81v-47.5t1 -44.5t3.5 -45.5 t6 -39t10.5 -35.5t16 -25.5t22 -19t29 -5.5q44 0 72 127v-2q0 1 0.5 3t0.5 4q0 12 1 15q2 18 5 28.5t14 19t30 8.5q39 0 39 -47q0 -17 -4 -35q0 -1 -0.5 -3l-0.5 -2q-2 -12 -3 -19q2 -32 23 -67.5t59 -35.5q19 0 39 28q7 9 13 49q0 1 0.5 2t0.5 2t0.5 5t0.5 5q0 2 1 12l2 13 q0 3 1 4q0 3 1 6t1 4q7 40 7 70v41q0 21 2 57q1 18 1 53q0 28 -5 68v3q-1 2 -1 3v-1v2v-1v1q-5 35 -5 67q-2 62 -15 111l-8 28v-1q-17 51 -17 80q0 8 2 16z" />
<glyph unicode="&#xe1d;" horiz-adv-x="719" d="M262 791l1 -1zM477 13q-81 0 -125 69q-40 -68 -106 -68q-34 0 -73 24t-58 49q-36 58 -54 158.5t-19 202.5q0 28 4 80q0 6 2 22q0 4 1 13t1 13q2 38 3.5 54.5t6 51t9.5 51t15.5 40.5t23.5 35t33.5 20t45.5 9q20 0 35 -7.5t22 -15t21 -26.5v-1q16 -21 16 -35 q0 -17 -12 -30.5t-28 -13.5q-24 0 -41 30q-17 19 -21 19q-49 0 -49 -273q0 -49 1 -82.5t4.5 -83.5t11.5 -84t20.5 -67t34 -50t49.5 -17q24 0 41.5 43t21.5 97q2 14 2 21q1 21 2 31t5.5 23.5t14.5 19t26 5.5q39 0 39 -46q0 -16 -3 -37q-1 -2 -1 -11q-4 -28 -4 -36 q0 -32 17.5 -67t38.5 -44q9 -6 30 -6q12 0 23 4q21 8 33 53.5t14 77t2 56.5q0 37 -2 95v6q-2 42 -2 67v51q0 3 0.5 9.5t0.5 9.5q0 20 -2 62v31q-2 58 -2 93v33q0 40 -21 143l1 -2q0 2 -1 6.5t-2 5.5q-1 5 -4.5 17.5t-4.5 20.5q-1 3 -1 11q0 1 -1 3l1 -5q-5 23 -5 41 q0 49 40 49q23 0 31 -14t12 -43q1 -16 3 -21v2q0 -2 1 -6.5t2 -5.5q4 -20 6 -33q1 -2 1 -6t1 -5q22 -96 21 -148v-10q0 -33 4 -85q3 -35 3 -78q-5 -50 -3 -87v-14q0 -3 0.5 -9t0.5 -10q0 -23 2 -81t2 -89q0 -58 -6 -102t-21.5 -86t-48.5 -64.5t-82 -22.5z" />
<glyph unicode="&#xe1e;" horiz-adv-x="760" d="M622 812q7 -36 19.5 -187t12.5 -272q2 -54 2 -86q0 -54 -4.5 -94.5t-18 -82.5t-43 -65t-73.5 -23q-76 0 -131 60q-20 -26 -40.5 -39.5t-53.5 -13.5q-36 0 -71 21.5t-52 43.5q-34 48 -34 150q0 58 14 217q0 2 0.5 7t0.5 8t0.5 8.5t1.5 8.5q1 8 2 17t2 20t2 17 q12 116 12 167q0 68 -31 68q-28 0 -42 -42q-13 -47 -43 -47q-38 0 -38 48q0 43 38 85t91 42q56 0 82.5 -42.5t26.5 -99.5q0 -39 -5 -92q-2 -14 -3 -22q-4 -40 -6 -59t-4 -61q0 -20 -1 -29v-7q-4 -72 -8 -101v1q-8 -70 -8 -110q0 -60 18.5 -97.5t54.5 -37.5q20 0 32.5 19 t17.5 41t9 59q2 8 2 16q0 2 0.5 7t0.5 7q2 27 5 42.5t13.5 29.5t29.5 14q23 0 31 -14.5t8 -41.5q0 -21 -7 -68q-6 -28 -6 -43q0 -34 32 -56t61 -22q50 0 50 202q0 2 -0.5 7t-0.5 8v62q0 20 -5 133v-1q-1 5 -1 15.5t-1 15.5q-1 12 -3 34q-10 128 -17 194l-1 8q-2 18 -2 35 q0 62 38 62q14 0 26 -14t18 -30z" />
<glyph unicode="&#xe1f;" horiz-adv-x="690" d="M554 1001l4 -8q4 -12 18.5 -159t21.5 -240q8 -99 8 -302v-28q0 -53 -5 -93.5t-18 -82t-42 -64t-72 -22.5q-79 0 -130 62q-14 -18 -24.5 -28t-29 -18.5t-41.5 -8.5q-35 0 -70.5 21.5t-53.5 43.5q-34 50 -34 150q0 88 18 252v-1q17 145 17 220q0 69 -32 69q-29 0 -43 -43 q-12 -46 -40 -46q-38 0 -38 47q0 45 37.5 85.5t92.5 40.5q54 0 80.5 -45.5t26.5 -94.5q0 -46 -9 -114q-1 -3 -6 -61q0 -2 -6 -89q-4 -78 -8 -108q-6 -70 -6 -108q0 -63 18 -101t55 -38q21 0 34 20.5t17.5 42t9.5 62.5v-1q1 5 1.5 14.5t0.5 14.5q1 25 4 40.5t14 29t30 13.5 q38 0 38 -55q0 -21 -7 -68q-6 -34 -6 -44q0 -34 31.5 -56.5t62.5 -22.5q50 0 50 202q0 289 -27 538q-1 14 -8 53q-9 72 -9 98q0 61 36 61q19 0 37 -27h-1z" />
<glyph unicode="&#xe20;" horiz-adv-x="642" d="M185 502q0 -3 0.5 -9t0.5 -8q1 -39 3 -92q5 -133 5 -162q0 -109 -14 -150q-24 -72 -99 -72q-25 0 -56.5 20.5t-31.5 38.5q0 16 17 28t28 12q13 0 37 -13q12 -6 16 -6q17 0 17 108q0 32 -2 96q-2 34 -2 59q0 7 -0.5 22.5t-0.5 24.5q-2 122 -14 164q-2 7 -21 42l1 -1 q-27 50 -27 73q0 35 14 65t26.5 43t35.5 33q22 19 38 29.5t45 18.5t67 8q139 0 243 -105q18 -21 38.5 -69t20.5 -79q0 -19 -1 -29q-2 -26 -2 -44q0 -39 6 -127q5 -98 5 -117q0 -14 0.5 -42.5t0.5 -42.5q2 -98 2 -156q0 -60 -42 -60q-44 0 -44 96q-1 34 -1 116q0 144 -7 230 q-3 27 -3 88q0 104 -17 136q-25 53 -74.5 88.5t-125.5 35.5q-28 0 -58 -11q-33 -12 -57.5 -43t-23.5 -58q0 -15 17 -41q19 -30 24 -44v1q13 -34 16 -95z" />
<glyph unicode="&#xe21;" horiz-adv-x="674" d="M594 294q0 -5 0.5 -15t0.5 -14q0 -265 -208 -265q-109 0 -194 56q-15 10 -41 32q-4 2 -10 8q-4 -26 -9 -42t-19 -30t-35 -14q-18 0 -30 13t-12 29t9 27l-1 -3q21 30 21 149q0 47 -3 97l-3 96q0 298 11 430q2 14 13.5 21.5t25.5 7.5q45 0 45 -62q0 -37 -4 -129 q-5 -118 -5 -149q0 -5 0.5 -16.5t0.5 -17.5v-73q0 -17 1.5 -53t1.5 -44q3 -51 3 -103v-25q8 -6 23.5 -19.5t16.5 -14.5q31 -27 50.5 -41.5t55.5 -29.5t73 -15q36 0 61.5 12t39 30t21 49t9.5 58t2 68q0 29 -2 56q0 4 0.5 12t0.5 11q2 32 2 49v75q0 6 0.5 19t0.5 20 q0 50 -4 146q0 15 -1 41.5t-1.5 47.5t-0.5 37q0 30 8.5 45.5t34.5 15.5q36 0 40 -29q11 -132 11 -430v-29q0 -5 -0.5 -14.5t-0.5 -15.5q0 -9 0.5 -16t0.5 -8v-41z" />
<glyph unicode="&#xe22;" horiz-adv-x="683" d="M529 867h10q29 0 43 -22q19 -130 19 -284l-3 -54q-2 -34 -2 -50q0 -54 1 -82q0 -14 0.5 -41.5t0.5 -40.5q0 -140 -23 -179q-31 -57 -105.5 -84t-151.5 -27q-122 0 -189 66t-67 198q0 147 59 231q-77 71 -77 161q0 27 7.5 59t23 66.5t46.5 57.5t72 23q45 0 74 -26t29 -77 q-9 -27 -39 -27q-11 0 -19 5t-11.5 11t-9.5 17q-11 24 -22 24q-31 0 -48 -42.5t-17 -88.5q0 -42 20.5 -71t66.5 -53l6 -3q22 -13 45 -17q9 -5 39 -11l-1 1q25 -5 36.5 -8t23.5 -14t12 -29q0 -42 -42 -42q-11 3 -52 10q-62 10 -87 25q-23 -27 -36.5 -78t-13.5 -107 q0 -81 31 -124q16 -22 61 -40t80 -18q53 0 107 19.5t68 45.5q18 35 18 103q0 33 -2 107t-2 109q0 2 3 47q2 30 2 44q0 49 -6 143q-5 115 -5 141q2 12 7.5 16.5t16.5 7.5q-1 0 1 1z" />
<glyph unicode="&#xe23;" horiz-adv-x="562" d="M502 808v-2q-5 -56 -107 -56q-22 1 -70 19l1 -1q-1 1 -5 2.5t-5 1.5q-46 20 -63 20q-61 0 -94.5 -38.5t-33.5 -91.5q0 -31 9.5 -51.5t31 -32.5t38.5 -17.5t48 -11.5q233 -44 233 -245q0 -81 -29 -162.5t-78 -118.5q-47 -26 -104 -26q-88 0 -142 41t-54 103q0 20 11 38.5 t31 18.5q29 0 44 -53l1 -2q3 -15 6 -19v1q25 -44 98 -44q65 0 95 54.5t30 145.5q0 95 -38 132q-21 20 -144 56h1q-175 43 -175 180q0 116 62 170.5t158 54.5q42 0 90 -14q2 -1 11 -6t14 -7q15 -11 28 -11t30 5q30 5 31 5q40 0 40 -38z" />
<glyph unicode="&#xe24;" horiz-adv-x="704" d="M627 512q2 -40 4 -64q6 -74 6 -111q0 -33 -3 -62q-15 -149 -15 -321q0 -2 0.5 -6.5t0.5 -7.5v-14q0 -18 -2 -46q-2 -20 -2 -26v-15q0 -16 -2 -26t-12 -20.5t-28 -14.5q-21 0 -32.5 13t-11.5 32q0 9 1 13q0 2 0.5 6t0.5 7q0 14 2 38t2 33q0 5 -0.5 14.5t-0.5 13.5v22 q0 144 8 267q1 6 2 19t2 20q3 27 3 56q1 48 -4 121q-2 29 -3 54q-6 130 -28 200t-86 97q-50 21 -100 21q-81 0 -135.5 -36.5t-54.5 -90.5q0 -13 14 -43q2 -3 6 -14l6 -14q17 -48 17 -111q0 -42 -10 -122q-11 -92 -11 -129q0 -184 52 -184q13 0 35 6h-1q18 6 32 6 q29 0 33 -27q0 -31 -28.5 -47.5t-65.5 -16.5q-141 0 -141 266q0 32 3 62q2 15 6 47t5 47q1 4 1 12t1 12q0 9 2 36.5t2 41.5q0 38 -11 74v-1q-3 7 -9 22q-22 48 -22 81q0 9 2 21q18 92 99 138.5t184 46.5q45 0 115 -24q29 -10 51.5 -22.5t39 -31.5t29 -35t21 -44.5 t13.5 -46.5t8.5 -54.5t5 -56.5t3.5 -63q1 -12 1 -18z" />
<glyph unicode="&#xe25;" horiz-adv-x="645" d="M542 0h-6q-14 2 -24.5 11t-16.5 26t-9.5 31t-4.5 39.5t-1.5 37.5t-0.5 37v14q0 33 2 97q2 60 2 99v10q-79 11 -132 11q-123 0 -170 -43q-20 -20 -34.5 -61t-14.5 -83q0 -47 31 -121l3 -9t3 -8q0 1 2 -2l2 -2q18 -33 18 -43q0 -15 -12.5 -27t-32.5 -12q-28 10 -42.5 33.5 t-27.5 61.5v2l-2.5 5t-1.5 4q-27 79 -27 131q0 48 24 106t57 88q74 66 231 66q60 0 124 -8q2 32 2 58q0 106 -33 166t-120 78h1q-20 3 -34 3q-56 0 -104 -26t-65 -65v1q-1 -1 -1.5 -3.5t-0.5 -3.5q-5 -17 -8.5 -26t-13 -17.5t-24.5 -8.5q-19 0 -29 14.5t-10 34.5 q0 40 29 77.5t69 62.5q63 41 154 41q139 0 206.5 -78t67.5 -241q0 -6 -0.5 -16t-0.5 -16v-31q0 -22 2 -64q1 -19 1 -62q0 -24 -2 -64q-2 -42 -2 -59v-78q0 -79 14 -122v-7q0 -1 0.5 -2t0.5 -2q0 -17 -8.5 -24.5t-29.5 -10.5z" />
<glyph unicode="&#xe26;" horiz-adv-x="724" d="M621 125q0 -19 -4 -41q-4 -26 -4 -39q0 -26 1 -39q2 -28 2 -42q0 -6 -0.5 -20.5t-0.5 -22.5v-42q0 -5 0.5 -13t0.5 -12q1 -7 1 -30q0 -53 -39 -53q-51 0 -48 104v5q0 5 0.5 16.5t0.5 17.5v24q0 32 -1 49q-2 36 -2 56q0 32 4 100q4 72 4 111q0 1 -3 94q-4 58 -4 92 q0 41 1 62q2 40 2 60q0 129 -55.5 190t-178.5 61q-58 0 -132 -22q-18 -9 -34 -34.5t-16 -45.5q0 -21 37 -58h-1q36 -32 47 -66q7 -25 7 -69q0 -13 -3 -97q-2 -48 -2 -67q0 -66 1 -99q2 -66 2 -101q0 -70 -21 -111t-79 -41q-37 0 -67.5 21.5t-30.5 48.5q0 20 10.5 29t24.5 9 q8 0 36 -16q16 -12 28 -12q11 0 11 54q0 43 -1 65q0 10 -0.5 30.5t-0.5 29.5q0 47 2 131t2 123q0 30 -5 50q-2 6 -15 19q-9 7 -16 16q-50 60 -50 120q0 36 28.5 79t75.5 65q68 32 165 32q173 0 245 -85t72 -251q0 -10 -0.5 -30t-0.5 -29q-1 -20 -1 -60q0 -59 3 -121 q0 -14 1 -39t1.5 -45t0.5 -38q0 -50 -1 -73z" />
<glyph unicode="&#xe27;" horiz-adv-x="538" d="M456 403v-14q0 -35 2 -73v1q1 -11 1 -31q0 -257 -111 -275q-3 -1 -7 -2t-7 -1h-2q-3 -1 -4 -1q-28 -5 -43 -5q-61 0 -61 42q0 13 6 22t20 13t24.5 6t29.5 3q26 2 29 3q28 6 33 104q0 2 0.5 7.5t0.5 6.5q1 3 1.5 8.5t0.5 8.5v-1q3 24 3 52q0 30 -2 78q-1 18 -1 43 q0 23 2 57q3 51 3 58q-4 141 -23 200q-14 36 -64 55q-9 3 -11 4q-43 15 -62 14q-84 0 -109 -86v1q-2 -11 -2 -43q0 -18 -0.5 -26.5t-4 -20t-11.5 -16t-22 -4.5q-45 0 -45 81q0 71 56 137q48 60 145 60q31 0 83.5 -13.5t81.5 -37.5q25 -20 40.5 -55.5t22 -85t8.5 -89t2 -96.5 q0 -30 -1 -43q-2 -28 -2 -46z" />
<glyph unicode="&#xe28;" horiz-adv-x="766" d="M658 977v-4q-3 -111 -76 -168q1 -1 3 -4l2 -3q15 -21 19 -27q30 -58 42 -177q1 -10 5 -40q4 -35 4 -82q0 -32 -2 -88q-2 -54 -2 -78q0 -25 7 -109q5 -85 5 -105v-9v-21.5t-2 -19t-6.5 -19t-14 -11t-22.5 -5.5q-28 0 -36 31.5t-8 90.5v37q0 17 -4 61q-5 67 -5 82 q0 11 0.5 35t0.5 37q1 27 1 83q0 67 -4 116t-16.5 96.5t-33.5 77t-57 47.5t-86 18q-62 0 -103.5 -20t-63 -59t-30 -85t-8.5 -109q0 -31 4 -95q0 -6 2 -28q85 71 186 71q67 0 67 -44q0 -42 -72 -42h-9q-90 -2 -171 -107v-32v-54q0 -9 0.5 -27t0.5 -28v-16q0 -33 -0.5 -47 t-4.5 -39t-14.5 -37t-27.5 -14q-19 0 -28 10.5t-10.5 20.5t-1.5 29v45q0 7 0.5 22.5t0.5 23.5q0 68 -4 210q-3 96 -3 194q0 69 17.5 140.5t50.5 113.5q32 38 94.5 60.5t129.5 23.5q84 0 144 -33q41 31 49 65l-1 -1q2 10 2 14q1 20 2.5 30t13 21t34.5 11q15 0 26.5 -8 t13.5 -22z" />
<glyph unicode="&#xe29;" horiz-adv-x="710" d="M604 570v-20q18 14 38 14q35 0 35 -36q0 -8 -3 -15.5t-13.5 -17.5t-13.5 -13t-19 -16q-16 -12 -23 -19q-1 -10 -1.5 -30.5t-0.5 -31.5q-7 -131 -11 -179v1q-6 -110 -77.5 -157t-196.5 -47q-95 0 -159 30q-89 48 -89 244q0 13 5 88q5 53 5 98q0 7 -0.5 21.5t-0.5 22.5v87 q0 6 0.5 20t0.5 21q0 103 -22 150l1 -1q-4 7 -23 31q-28 34 -28 50q0 17 12.5 25t24.5 8q11 0 29 -8q44 -25 67.5 -85.5t23.5 -133.5v-82q0 -13 -0.5 -41t-0.5 -43v-42q0 -46 -5 -96q-4 -58 -4 -88q0 -137 42 -171q69 -24 137 -24q60 0 105.5 18t58.5 53q14 47 16 155 q0 36 2 94q-28 -7 -52 -7q-50 0 -86.5 30t-36.5 71q0 27 13 48t32 21q38 0 38 -42v-14q0 -34 45 -34q29 0 48 12q-1 28 -1 84v69q0 12 0.5 35.5t0.5 34.5q0 91 -5 156q0 17 15 27.5t29 10.5q50 0 50 -129v-47q0 -58 -1 -86q0 -10 -0.5 -37.5t-0.5 -36.5z" />
<glyph unicode="&#xe2a;" horiz-adv-x="680" d="M623 945v-1q-6 -106 -94 -162l2 -2t1 -2q26 -36 38 -76q22 -110 20 -238q0 -44 -1 -64q0 -8 -0.5 -30t-0.5 -29q0 -106 14 -276q0 -3 0.5 -12.5t0.5 -12.5q-19 -32 -44 -32q-12 0 -21 7.5t-14 22.5t-8.5 29t-4.5 36.5t-1.5 35t-0.5 34.5v24q0 5 -0.5 11t-1.5 13.5 t-1 11.5q-4 32 -4 55q0 35 2 99v10q-24 -2 -80 -4q-67 -3 -104 -7t-83.5 -19.5t-71.5 -43.5q-43 -45 -43 -107q0 -55 44 -128l7 -7q17 -19 17 -36q0 -19 -13 -29t-25 -10q-40 0 -77.5 72t-37.5 144q0 77 43 132t110 87q60 28 206 34q86 5 108 9q-3 71 -7 113.5t-21 92 t-47 75.5l2 -2q-40 26 -115 26q-102 0 -155 -54q-24 -25 -42 -100q-10 -24 -42 -24q-33 5 -36 29q0 62 28.5 111.5t74.5 80.5q31 21 90.5 31t109.5 10q69 0 127 -25q13 1 32.5 23.5t25.5 40.5q1 3 3 13q3 17 6 26.5t14 18t30 8.5q17 0 29 -8.5t12 -24.5z" />
<glyph unicode="&#xe2b;" horiz-adv-x="671" d="M174 603v-14q123 9 204 71t117 164q2 7 4 19q2 17 5 27t14.5 17.5t30.5 7.5q17 0 29 -10t12 -29q-14 -109 -100 -207q62 -38 90.5 -102.5t28.5 -171.5q0 -30 -2 -86q-2 -54 -2 -79v-17q0 -2 -3 -56q-2 -38 -2 -54v-15q0 -2 0.5 -7t0.5 -8q0 -38 -47 -38q-23 0 -32.5 20.5 t-9.5 44.5q0 44 4 142q4 100 4 156q0 64 -10 102.5t-37 74.5q-10 12 -26 24.5t-25 12.5q-3 0 -13 -10q-11 -9 -14 -10v1q-112 -60 -222 -68q-1 -20 -1 -56v-60q0 -55 -5 -123q-6 -80 -6 -125q0 -54 4 -95q-2 -13 -17 -26t-32 -13q-25 0 -32 17t-7 45v17q0 8 -0.5 21.5 t-0.5 21.5q-1 14 -1 48q0 30 4 92q0 10 2 44t2 52q0 37 2 107q1 33 1 100q0 155 -34 234q0 1 -6.5 11t-11 17t-8.5 17.5t-4 18.5q0 33 36 33q28 0 51.5 -29.5t37 -76t20.5 -97t7 -97.5z" />
<glyph unicode="&#xe2c;" horiz-adv-x="795" d="M681 471q0 -12 0.5 -25.5t1.5 -29.5t1 -25q4 -58 4 -92q0 -50 -3 -88.5t-13 -77t-26.5 -63.5t-45 -40.5t-67.5 -15.5q-38 0 -62 20t-48 57q-1 1 -2.5 3.5t-2.5 3.5q-25 -40 -51.5 -61t-71.5 -21q-39 0 -67 19q-49 33 -65.5 73.5t-16.5 102.5v45q0 10 -0.5 28.5t-0.5 27.5 v204q0 6 -0.5 19t-0.5 20v42q0 7 0.5 21t0.5 21q0 169 -42 169q-2 0 -10 -24q-5 -16 -9 -25t-14 -17.5t-24 -8.5t-27 11t-14 30q2 57 28 85.5t71 28.5q35 0 64.5 -22.5t42.5 -53.5q19 -47 19 -177v-17q0 -17 -0.5 -54t-0.5 -56q-1 -37 -1 -114q0 -41 1 -60q0 -10 0.5 -28 t0.5 -28q0 -39 1.5 -61.5t7.5 -55t21.5 -48.5t40.5 -16q36 0 57 55.5t27 120.5v5q-2 66 50 66q23 0 30 -10t7 -38q0 -20 -7 -57q-6 -30 -6 -40q0 -33 29.5 -66.5t56.5 -33.5q11 0 19.5 5t14 16.5t10 22t7 29.5t4 31t2 35t0.5 32.5v31.5q0 45 -4 143q-4 96 -4 134 q0 7 0.5 18.5t0.5 17.5v28q0 30 -10 66.5t-22 51.5q-10 11 -56 21q-18 4 -28.5 7.5t-22 9t-17 14.5t-5.5 22q0 23 10 27q6 1 23 8q35 13 53 21.5t43 24.5t37 37.5t13 50.5l-1 4q0 4 -1 10.5t-1 9.5q-3 12 -3 30q0 29 40 29q52 0 52 -78q0 -118 -108 -172q31 -15 50 -42 q39 -70 39 -195v-75q0 -9 0.5 -27t0.5 -27z" />
<glyph unicode="&#xe2d;" horiz-adv-x="675" d="M198 569l6 -9q5 -13 5 -23q0 -18 -15 -42l1 1l-8 -16q-32 -87 -32 -203q0 -60 24 -113.5t71 -69.5q32 -10 73 -10q112 0 147 58q17 30 31 86t15 93v38q0 42 1 63q2 42 2 65q0 43 -6 87v-1q-5 26 -6 29q-5 20 -7 30l1 -1q-1 4 -3 10q-9 45 -19.5 66t-45.5 46 q-34 23 -55 29.5t-61 6.5q-74 0 -149 -40q-14 -7 -36 -31q-40 -40 -63 -40q-11 0 -26 9.5t-15 28.5q0 26 48.5 68.5t98.5 63.5q75 29 160 29q103 0 198 -93q24 -24 33 -49t19 -78q19 -101 19 -168v-116q0 -69 -17 -159t-57 -132q-41 -43 -85 -63q-72 -16 -126 -16 q-129 0 -189.5 78.5t-60.5 208.5q0 132 40 221q1 3 4 13v-1q9 19 14.5 28t17 19t24.5 10q15 0 29 -11z" />
<glyph unicode="&#xe2e;" horiz-adv-x="686" d="M605 638q3 -21 7 -35q7 -42 7 -98v-36q0 -7 -0.5 -19.5t-0.5 -18.5v-51q0 -70 -17.5 -161.5t-57.5 -135.5q-6 -6 -7 -8q-12 -15 -20 -21q-54 -49 -183 -49t-189 78.5t-60 209.5q0 77 13 148q8 40 33.5 93.5t52.5 53.5q15 0 27 -9.5t12 -31.5q0 -17 -12 -41q-6 -7 -11 -24 q-30 -81 -30 -204q0 -192 169 -192q70 0 104 19q37 21 62.5 94t25.5 140v28q0 41 1 63q2 42 2 65q0 46 -14 114q-1 4 -3 15t-3 15q-8 46 -20.5 72t-45.5 50q-31 22 -54.5 29t-61.5 7q-74 0 -149 -40q-10 -5 -36 -31q-40 -40 -63 -40q-11 0 -26 9.5t-15 28.5q0 25 47.5 68 t98.5 63q81 30 160 30q72 0 129 -37q14 9 28.5 27.5t19.5 31.5q1 3 3 13q2 16 6 26t15 18.5t29 8.5q41 0 41 -33q-4 -92 -75 -148q27 -27 37 -52.5t18 -74.5q1 -3 2 -8.5t2 -10t2 -8.5z" />
<glyph unicode="&#xe2f;" horiz-adv-x="673" d="M531 -16l-3 -3q-12 -13 -39 -13q-23 11 -28.5 31t-4.5 52q0 3 0.5 10t0.5 10q0 103 -2 313v113q-6 -3 -24.5 -12.5t-23.5 -12.5h1q-32 -18 -49.5 -26t-51 -15.5t-67.5 -3.5q-54 6 -96 41.5t-71 85.5q-41 77 -41 177q0 65 19 113q41 18 75 -23q-11 -66 -11 -94 q0 -50 15 -95q26 -72 66 -102v1q30 -24 55 -25q39 -3 107 34q1 1 13.5 8t18.5 10q14 8 32 13q25 8 33 14q-1 19 -1 59.5v59.5q0 8 -0.5 23t-0.5 22q0 2 -0.5 9t-0.5 11q-2 61 10 80q18 10 31.5 11t21.5 -8t12.5 -18t6.5 -28t2.5 -29.5t0.5 -30.5v-8q0 -23 2 -59v1 q2 -16 2 -32q1 -46 1 -157q0 -143 -1 -214q-2 -134 -2 -223q0 -3 0.5 -8.5t0.5 -8.5q2 -35 -9 -53z" />
<glyph unicode="&#xe30;" horiz-adv-x="475" d="M104 321l3 -2q10 -7 12 -16t0 -15.5t-8 -18.5l-5 -10q-1 -10 17 -18t37 -10q71 -4 133 44q3 2 10 10t9 10q28 34 51 39q20 4 35.5 -6t17.5 -22q1 -7 0 -12t-4.5 -11t-5 -8t-8.5 -8.5t-8 -7.5h1l-17 -17q-13 -15 -19 -20q-34 -27 -87 -49t-102 -22q-23 0 -43 5 q-40 10 -69 37.5t-28 65.5q1 32 23 55t55 7zM91 723l6 -9q5 -13 5 -27q1 -12 3.5 -19t15 -13t36.5 -4q31 4 70 18l12 3q2 1 7 3t7 3v1q23 10 29 13q2 2 10 8.5t12 10.5q32 30 56 35q17 3 34.5 -5.5t18.5 -26.5q0 -6 -2 -12t-4.5 -10.5t-8.5 -10t-9 -8t-10.5 -8.5t-9.5 -7 t-5 -4t-5 -4q-22 -19 -59 -36q-90 -39 -139 -42q-30 -2 -67 9t-52 27q-17 19 -17 73q0 26 6 41t20.5 19t39.5 -18z" />
<glyph unicode="&#xe31;" d="M-76 1161q19 6 35.5 -2.5t20.5 -25.5l-1 1q3 -17 -15 -45.5t-31 -39.5h1q-5 -5 -27 -23q-52 -43 -76 -55q-60 -29 -99 -29q-24 0 -48 11t-40 41t-16 63q0 38 22 64q9 10 27.5 22.5t31.5 14.5q24 3 43.5 -7.5t10.5 -38.5l1 2q-3 -17 -32 -29q-4 -2 -6 -4q-14 -14 -16 -20 v1q-4 -16 6.5 -27t30.5 -10q28 5 78 39q34 25 50 45q0 1 4 7t5 8q19 31 40 37z" />
<glyph unicode="&#xe32;" horiz-adv-x="476" d="M381 27l-8 -8q-16 -8 -39 -2q-22 8 -26 51q-1 25 2 56q2 16 2 23q1 10 1 28t-2 60q-1 24 -1 80q0 17 2 51q2 20 2 30q0 6 -0.5 19t-0.5 20q-1 12 -1 42q0 29 2 81q2 63 1 94q0 60 -13 82h1q-20 30 -62.5 47t-89.5 17q-51 0 -85 -20q-3 -2 -9.5 -7t-8.5 -6h2 q-22 -22 -35 -22q-9 0 -21 7q-61 51 46 106q54 26 98 27q112 3 195 -57q7 -6 18 -15q14 -12 20 -20l-1 2q26 -33 30 -121q1 -13 1 -46q0 -44 -1 -66q-1 -23 -1 -67v-56v-30q-1 -89 -4 -167q-1 -15 1 -45q1 -16 1 -46q0 -10 -2 -24l-3 -26q0 -3 0.5 -8.5t0.5 -7.5 q2 -34 -12 -56z" />
<glyph unicode="&#xe33;" horiz-adv-x="513" d="M379 8l-8 -8q-16 -9 -40 -2q-21 8 -25 51q-1 24 2 56q2 16 2 23q1 10 1 27q0 20 -2 60q-1 25 -1 81q0 18 2 50q2 22 2 30q0 7 -0.5 20t-0.5 19q-1 13 -1 43q0 28 2 80q2 64 1 95q0 60 -14 82h1q-19 30 -61 46.5t-90 16.5q-50 0 -85 -19q-3 -1 -18 -14l2 1 q-22 -22 -35 -22q-9 0 -21 7q-19 15 -21.5 31t8.5 30t25.5 24.5t32.5 19.5q54 27 98 27q114 3 195 -57q2 -1 8.5 -6t10.5 -8q11 -10 19 -21l-1 2q25 -30 30 -120q1 -14 1 -47q0 -43 -1 -66q-1 -22 -1 -67v-56v-29q0 -28 -1 -81.5t-2 -86.5v-13.5v-16.5v-14q1 -16 1 -46 q0 -5 -0.5 -13t-0.5 -11l-3 -26q0 -3 0.5 -8.5t0.5 -7.5q2 -35 -12 -56zM-180 1182q39 2 74 -23t50 -59q15 -36 9 -73q-7 -49 -44.5 -79.5t-92.5 -30.5q-21 0 -42 6q-34 9 -64 37.5t-33 64.5t19 74.5t50 56.5l8 2q9 6 25 14q18 9 41 10zM-210 1091h-2q-11 -7 -21 -23t-9 -28 q0 -13 13 -27t26 -17l-2 1q27 -5 46.5 3t24.5 25q8 27 -8.5 53t-42.5 24q-14 -2 -25 -11z" />
<glyph unicode="&#xe34;" d="M-506 945l-3 -1q-26 -4 -37.5 13.5t-1.5 35.5q16 28 72 50q77 28 166 28q59 0 111 -13q106 -29 111 -65q1 -14 -10.5 -29.5t-24.5 -17.5q-23 -3 -45 10l1 -1l-11 6h2q-67 27 -148 27q-33 0 -69 -6q-28 -5 -63 -20q-7 -2 -19.5 -6.5t-30.5 -10.5z" />
<glyph unicode="&#xe35;" d="M-506 947h-1q-20 -2 -31.5 13.5t-4.5 35.5q5 15 37 37t49 27q38 13 100 13q81 0 166 -26q-8 62 9 71q19 8 32.5 7.5t20.5 -5t11.5 -18t5.5 -23t2 -29.5q0 -4 2 -18q2 -20 2 -33q0 -51 -39 -59q-16 -3 -47 12q-4 2 -16 6q-85 34 -166 29q-45 -2 -66 -9h1q-4 -2 -12.5 -7 t-9.5 -6l1 1q-27 -16 -46 -19z" />
<glyph unicode="&#xe36;" d="M-127 971v-1l-2 -1zM-562 973l5 -4q-66 51 16 74q14 4 47 11q1 0 5 1t6 1q25 4 65 4q58 0 124 -11q3 32 21 62.5t41 42.5q26 11 51 11q27 0 45 -10q45 -29 45 -97q0 -57 -39 -89h1q-33 -23 -57 -23q-18 1 -100 15q-80 19 -132 19q-27 0 -51 -4q-14 -2 -22 -4 q-59 -15 -71 1zM-183 1088l1 -1q0 1 -1 1zM-215 1054v-1q1 -8 13.5 -17.5t20.5 -7.5q5 2 5 27q0 28 -6 32q0 -1 -6 -2q-11 -2 -19.5 -12t-7.5 -19z" />
<glyph unicode="&#xe37;" d="M-244 1025v-3q5 -1 15.5 -2.5t14.5 -2.5l7 -1v25q-1 13 -0.5 24t3.5 25.5t9.5 20.5t18 9.5t29.5 -8.5q23 -12 23 -60q0 -4 -0.5 -13.5t-0.5 -14.5q-2 -35 2 -58q0 -14 -10 -25q-23 -21 -76 -8q-5 1 -14 2.5t-13 2.5h1q-114 17 -180 16q-19 0 -59 -6q-49 -7 -72 -6 q-9 5 -14.5 25.5t2.5 40.5q82 27 178 27q46 0 54 -1q0 13 -1 19q-2 33 6 45q13 13 23.5 20t17.5 7.5t13 -3t9.5 -11.5t6 -17.5t4 -21.5t2 -23t1.5 -23v-1z" />
<glyph unicode="&#xe38;" d="M-293 -165v3q0 28 32.5 56.5t69.5 31.5q62 4 83.5 -37.5t21.5 -118.5q0 -24 -2 -64q0 -5 -0.5 -18t-0.5 -16q-10 -29 -35 -34t-38 16q-13 18 -10 89v24q2 71 -14 73q-7 2 -20 -6q-2 -1 -5 -5t-5 -6q-7 -10 -11 -14.5t-12.5 -8.5t-19.5 -2q-30 6 -34 37z" />
<glyph unicode="&#xe39;" d="M-317 -326l-1 2q-13 29 -15 103q0 20 1 27q2 26 7 27q-5 0 -17 -14q-8 -11 -11 -14.5t-11 -8t-18 -3.5q-39 9 -39 46q0 24 16 45q13 16 41.5 24.5t51.5 8.5q25 0 44 -19t19 -54q0 -12 -2 -36t-2 -40q0 -46 16 -57q6 -5 16 -5q11 0 25 7q13 12 17 48q0 19 -2 59v-1 q-2 24 -2 37q0 26 6 38l-1 -1q6 17 29 24.5t40 -5.5q14 -12 17 -47q2 -18 2 -42q0 -35 -4 -69q-6 -45 -35 -83.5t-71 -44.5q-37 -5 -71.5 12.5t-45.5 35.5z" />
<glyph unicode="&#xe3a;" d="M-120 -133l1 -3q18 -47 -14 -88t-79 -41q-14 0 -37 9q-24 11 -37 38t-8 53q8 39 46 64.5t78 9.5q18 -7 27 -16q15 -12 23 -26z" />
<glyph unicode="&#xe3b;" />
<glyph unicode="&#xe3c;" />
<glyph unicode="&#xe3d;" />
<glyph unicode="&#xe3e;" />
<glyph unicode="&#xe3f;" horiz-adv-x="721" d="M604 428q43 -68 43 -171q0 -69 -19.5 -117t-59 -76t-88 -42t-116.5 -19q0 -31 3 -66q-3 -35 -43 -35q-15 0 -24 8t-12.5 24.5t-4.5 29.5t-1 35q-48 0 -90 3q-5 1 -20 1q-61 0 -82 8q-12 6 -20 50t-8 68q0 7 0.5 23t0.5 24q3 48 3 49q0 29 -1 44q0 7 -0.5 22t-0.5 21v15 q17 219 17 355q0 24 -4 78q-5 45 -5 86q0 53 11 91q7 30 109 30q36 0 93 -3v6q0 28 1.5 47.5t5.5 44.5t15.5 38t28.5 13q38 0 38 -42q-1 -17 -2 -23q-2 -12 -2 -13q-2 -38 -2 -56v-20q65 -7 104.5 -16.5t76.5 -32.5t53.5 -64.5t16.5 -105.5q0 -75 -38.5 -128.5t-104.5 -83.5 q87 -41 128 -100zM218 882h-56v-34q0 -35 2 -107q2 -74 2 -112v-60q0 1 19 1l19 -1h37q56 0 102 5q15 0 31 6h-1q1 1 25 7q3 0 10 2t11 3q24 4 32 6h-1q23 9 53 47q3 4 12 13q21 25 19 57v12q0 64 -11 86q-41 70 -243 70q-11 0 -31.5 -0.5t-30.5 -0.5zM142 882l21 20 q-1 -7 -1 -20h-20zM561 223q2 22 2 32q-2 88 -33 133q-10 13 -51 41q-2 2 -7 4.5t-7 4.5l2 -1q-53 38 -121 40q-14 0 -29 4q-1 0 -8.5 1.5t-11.5 1.5q-2 0 -12 -2q-4 -1 -18 -1q-98 0 -105 8q0 -37 -8 -95q-1 -7 -2.5 -21t-2.5 -27t-2 -25q0 -5 1 -10q2 -10 2 -19 q0 -8 -0.5 -24t-0.5 -24q-2 -66 -2 -94q0 -50 1 -58q25 -2 49 -5q56 -6 93 -6h23h1h1h1h1h1l1 1h1h1h1h1h1h1q124 12 164 30q65 28 72 111z" />
<glyph unicode="&#xe40;" horiz-adv-x="300" d="M157 311q0 -58 1 -88.5t8 -69t21 -58.5q0 3 17 11q17 9 28 13t26 3t26 -12q19 -20 -1 -46t-50 -39q-26 -11 -49 -11q-46 0 -67 29q-17 21 -32 88l1 -1q-14 62 -14 167v21q0 16 -0.5 47t-0.5 46q0 99 4 188q1 35 5 73q5 57 5 97q0 2 -0.5 7.5t-0.5 9.5q0 49 10 62 q8 12 26 14q25 2 36.5 -21t11.5 -58q0 -26 -1 -35q0 -2 -0.5 -5t-0.5 -4q-1 -21 -3.5 -62.5t-2.5 -51.5q-7 -176 -7 -200t2 -58q2 -38 2 -56z" />
<glyph unicode="&#xe41;" horiz-adv-x="533" d="M367 865q34 -3 34 -118q0 -41 -4 -137q-5 -138 -4 -167q0 -8 0.5 -28t0.5 -32q0 -89 2 -139q2 -63 10 -96q9 -49 20 -51l2 3q2 2 6.5 6t7.5 8q11 11 18 17t17 11.5t20 4t20 -10.5q11 -13 13 -25t-4 -22.5t-12 -17.5t-16 -16q-43 -41 -77 -41q-22 0 -42 13 q-28 17 -43.5 66t-18.5 86.5t-5 102.5q0 5 -0.5 14.5t-0.5 14.5q-2 26 -2 82q0 54 1 80q0 10 0.5 39.5t0.5 39.5q0 85 3 127q1 17 1 57q0 39 3 69q0 2 0.5 4.5t0.5 3.5q1 16 2.5 23.5t6 16t14 11t25.5 1.5zM159 311q0 -56 1.5 -88t8.5 -70t21 -58q0 3 17 11q54 29 79 4 q20 -20 0 -46t-50 -39q-26 -11 -49 -11q-46 0 -67 29q-17 19 -32 88l1 -1q-14 62 -14 167v21q0 16 -0.5 47t-0.5 46q0 99 4 188q2 35 5 73q5 85 5 97q0 2 -0.5 7.5t-0.5 9.5q-1 24 0 35.5t9 25t26 15.5q26 2 37.5 -21t11.5 -58q0 -26 -1 -35q0 -2 -0.5 -5t-0.5 -4 q-1 -21 -3.5 -62.5t-2.5 -51.5q-8 -142 -7 -200q0 -12 0.5 -31t0.5 -27q2 -38 2 -56z" />
<glyph unicode="&#xe42;" horiz-adv-x="399" d="M104 1053v1q-14 -6 -11 -17h9q3 -1 5 -1q10 -4 15 -4q58 -20 95 -70l5 -10q16 -43 18 -59q3 -23 3 -53q0 -32 -4 -102q0 -2 -3 -88q0 -26 -2 -58q-1 -26 -1 -84q0 -9 -0.5 -28.5t-0.5 -29.5v-32q0 -7 -0.5 -19t-0.5 -15q0 -30 -2 -74q-2 -42 -2 -63q0 -31 1 -49 q0 -25 -1 -36q-2 -20 -1 -29q6 -50 19 -51q4 0 4.5 0.5t1.5 3.5t5 6q36 32 61 10q26 -25 -11 -63.5t-75 -33.5q-46 4 -67 45q-15 30 -17 103q0 24 -1 36q-1 10 -1 36q0 1 3 82q3 47 3 93v29v43q0 54 2 122q0 5 0.5 20.5t0.5 20.5q0 74 3 105q2 54 2 76q0 41 -6 83 q-4 20 -15 35q-11 11 -53 26q-64 24 -70 53q-6 31 8 64q10 26 39 42t67 17q9 1 45 -6q7 -3 21 -4q5 -1 11 -1q14 0 25 -3l-3 1q-7 0 4 -3q2 0 7 -1l8 -2q31 -9 46 -7q7 1 23 7l14 6q60 15 67 -23v1q6 -27 -36 -50.5t-72 -24.5q-28 -1 -82 13q-23 7 -39 10q-1 0 -4 1h-2 q-50 7 -58 3z" />
<glyph unicode="&#xe43;" horiz-adv-x="382" d="M240 91q2 0 2.5 0.5t2 3t4.5 5.5q36 34 62 11q27 -25 -10 -63.5t-76 -34.5q-44 5 -67 47q-17 34 -17 106q0 5 -0.5 15t-0.5 16q-1 11 -1 36q0 12 0.5 26t1.5 31t1 26q3 84 3 85q0 25 -1 37v20q0 3 0.5 10.5t0.5 11.5q0 36 2 122q1 20 1 55q0 48 2 75q4 49 39 113 q35 65 52 87l1 2q33 47 29 76l-1 2v4v-2q-5 28 -6 30q-7 14 -23 30h1q-16 15 -54 15q-8 0 -35 -3q-12 -4 -31 -18t-27 -25q-32 -39 -21 -64v1q1 -2 6 -5q1 -1 5 -4t5.5 -4.5l4.5 -4.5t4 -5.5t2 -7t1 -9.5q-1 -15 -13 -25t-22 -11q-24 0 -35.5 8t-26.5 29l2 -4q-5 5 -8 15 l-2 7q-8 34 6 71q20 57 55 86q35 25 36 26q32 25 96 25q68 0 103 -28l-1 1q29 -23 43 -56v1q17 -39 19 -62q2 -29 -4 -53t-14 -37t-24 -34q-2 -2 -5 -6.5t-4 -6.5v1q-25 -36 -48 -84t-24 -72q-3 -40 -3 -73q0 -37 -1 -58q-1 -30 -1 -103v-39q0 -7 -0.5 -32t-0.5 -33 q0 -30 -2 -72q-2 -38 -2 -56q0 -16 2 -58q0 -26 -1 -36q-2 -21 -1 -30q6 -49 19 -50z" />
<glyph unicode="&#xe44;" horiz-adv-x="360" d="M249 82q2 0 3 0.5t1 1.5t1 3t4 5q36 32 62 10q27 -25 -10 -63.5t-76 -33.5q-43 4 -67 45q-17 33 -17 107q0 5 -0.5 15.5t-0.5 16.5q-1 10 -1 36q0 1 3 82q0 10 1 27t1.5 31.5t0.5 27.5q0 24 -1 36v20q0 3 0.5 11t0.5 11q1 18 1 61q0 10 0.5 31t0.5 31q1 17 1 51 q2 95 7 125q1 15 7 35l-1 -1q1 5 3.5 16.5t3.5 16.5q0 2 0.5 6.5t1.5 6.5q6 40 12 56v-1q10 28 43 81h-1q4 7 10 16t9.5 15t4.5 8q13 23 15 25q-6 0 -18 -12h1q-1 -1 -4 -3l-3 -2q-8 -6 -11 -9q-37 -29 -71 -34q-10 -2 -36 -2q-91 0 -144 69q-13 20 -17.5 40.5t5 34 t47.5 -0.5h-1q22 -7 35 -29q4 -8 7 -10q25 -27 71 -27q13 0 33 5q5 1 28 20q16 14 26.5 22t30.5 13.5t41 1.5q19 -3 39 -18t24 -40q4 -30 -32 -85q-4 -6 -10 -16l-14 -23q-25 -44 -29 -54q-4 -11 -11 -50q0 -2 -0.5 -5.5t-1.5 -5.5q-1 -6 -3.5 -17.5t-3.5 -15.5t-6 -34v2 q-4 -36 -6 -109q0 -43 -1 -64v1q-1 -47 -1 -143q0 -2 -0.5 -14t-0.5 -19q-1 -13 -1 -33q0 -29 -2 -71q-2 -38 -2 -57q0 -14 2 -58q0 -25 -1 -36q-2 -20 -1 -29q6 -50 19 -51z" />
<glyph unicode="&#xe45;" horiz-adv-x="554" d="M400 -234q0 -1 -3 1.5l-9 7.5l5 -3q5 -4 7 -6zM436 -191l-11 -18q-5 -2 -7 -5v2q-18 -26 -38 -3q4 -6 8 -10q-7 6 -12 11.5t-8 10.5t-4.5 8.5t-2.5 9t-1 7.5v8v6v7q-1 16 -3 28q-1 5 -1 44q1 47 4 206v205q0 20 2 60q1 27 1 80q-1 18 -1 60q-1 51 -2.5 77.5t-9.5 63 t-23 59.5q-14 23 -47.5 36t-73.5 13q-16 0 -33 -3q-38 -5 -68 -19l1 1q-7 -4 -22 -19q-10 -10 -15 -14.5t-19 -10t-32 -6.5q-41 66 42 113q63 36 154 36q88 0 148 -39q21 -14 40 -44q21 -34 32 -92t12.5 -99.5t1.5 -117.5v-18q1 -25 -3 -66q-3 -45 -3 -47q-1 -45 -1 -138 q0 -118 -3 -167q-2 -27 -2 -64q0 -35 1 -51q0 -6 0.5 -18t0.5 -19q0 -14 -2 -64z" />
<glyph unicode="&#xe46;" horiz-adv-x="649" d="M328 722l-6 -10l6 -27q6 -26 6 -43q0 -47 -45 -48q-36 7 -42 55q0 1 -0.5 5t-0.5 6q0 1 -0.5 3.5t-0.5 3.5q-4 21 -6.5 31.5t-8.5 25t-15 22t-21 9.5q-28 4 -60 -38q-18 -31 -25 -135q-3 -48 11 -72t51 -16q7 3 11 5h-2q27 11 49 1q30 -68 -57 -83l-15 -3q-8 -2 -17 -2 q-51 0 -85 44q-26 34 -26 100q0 17 2 53q0 1 0.5 7t0.5 8q8 117 58 168q29 29 56 38h-1q20 6 42 6q57 0 97 -40v-1q15 16 24 24.5t27 17t39 9.5q66 3 113 -39t52 -108v-16.5v-19v-15.5q-1 -12 -1 -32v-27q1 -68 1 -232q0 -140 -3 -203q0 -50 -1 -62q0 -4 -0.5 -17t-0.5 -19 q0 -45 3 -129v-14q3 -87 -35 -92q-14 -3 -23 0.5t-14 9t-7 18.5t-2.5 21.5t-0.5 24.5q0 10 -0.5 23t-0.5 18v35q0 29 -1 46q-2 49 -1 66q0 5 0.5 15.5t0.5 16.5q0 7 0.5 22t1.5 21v-1q2 35 2 101v173q0 43 1 63q2 52 1 78q-1 12 -1 41q-1 37 -1.5 53.5t-6.5 40t-17 34.5 q-27 27 -57 24q-17 -3 -48 -43z" />
<glyph unicode="&#xe47;" d="M-310 1087q-30 -9 -46 -19q-13 -13 -13 -34q0 -14 13 -29q10 -7 24 -11.5t20 -0.5l4 18q4 16 5 22q6 14 23.5 19.5t35.5 -5.5q7 -6 20 -28q13 -21 22 -18q6 2 15 13q0 2 4 14q3 13 5 19.5t9.5 13.5t20.5 8q14 2 27 -5t18 -24q4 -47 -34.5 -88t-87.5 -34q-16 3 -34 19 q-34 -28 -77 -24q-32 6 -58 21q-56 41 -56 108q0 62 44 94q19 13 52 25t58 14q31 2 86 -6h-1q4 -1 13 -2t14 -2q12 -2 22 -2q5 1 25 10t32 10q20 1 34 -9t16 -25q4 -30 -41 -50.5t-89 -18.5l-42 6q-47 5 -54 5q-17 0 -29 -4z" />
<glyph unicode="&#xe48;" d="M-151 1443v1q19 -10 19 -69q0 -23 -2 -71q-1 -25 -1 -62q1 -19 -14 -28.5t-35 -9.5q-9 0 -14 1t-10.5 7t-7.5 19q-2 11 -2 43t5 102q0 1 0.5 3t0.5 4v9q1 22 2.5 32.5t7 21t18 9.5t33.5 -12z" />
<glyph unicode="&#xe49;" d="M-262 1279q-1 -11 -6 -21q93 18 136 76q17 19 46 9t29 -35q-4 -29 -46 -63q-4 -3 -5 -4q-30 -22 -61 -34h1q-78 -35 -139 -35q-33 0 -54 7q-14 7 -19.5 14t-2.5 16.5t5 13t11 16.5l6 9q15 28 15 46q0 5 -8 4q-2 0 -10 -6l2 1q-17 -13 -36 -15q-34 0 -35 32q-1 33 32 54 t70 16q31 -4 53 -33.5t16 -67.5z" />
<glyph unicode="&#xe4a;" d="M-344 1386h-1h1zM-263 1417q47 0 83.5 -39t39.5 -92q17 6 30 17q9 7 19 13t23.5 10t24 -4t15.5 -29q3 -22 -29 -49.5t-57 -34.5q-18 -6 -44 -6q-47 0 -59 26q-9 16 -7 44q0 16 -1 20q-3 16 -14.5 28t-27.5 11q-13 -2 -18 -10q-4 -4 -6 -15h1q-4 -15 -6 -21t-11 -13.5 t-25 -7.5q-22 0 -43 31q-14 18 -16 19q-26 7 -42.5 -9t-13.5 -41q1 -7 3 -12q9 -17 9 -36.5t-20 -29.5q-30 -9 -52.5 24.5t-22.5 69.5q1 48 38.5 83.5t88.5 35.5q22 0 58 -14q1 -2 4 -5q2 2 2 3q2 2 3 5.5t4 6t12 5.5q27 16 57 16z" />
<glyph unicode="&#xe4b;" d="M-142 1362v-13q2 6 15 8q20 2 33 2q53 0 53 -38q-5 -55 -98 -48h-2q-4 -37 -18 -59t-43 -11q-30 12 -24 62q1 6 1 7h-59q-35 5 -35 42q2 21 13.5 31t27.5 9.5t35 -0.5h1q6 0 9 -2t7 1q2 40 19 65t51 -2q16 -19 14 -54z" />
<glyph unicode="&#xe4c;" d="M-68 1491l6 -1q36 -12 36 -38q0 -27 -65 -63h1q-4 -2 -10.5 -6t-7.5 -5q-7 -3 -19 -11q-58 -35 -88 -63h1q-2 -2 -11 -7h1q-23 -21 -23 -23q-1 -4 2 -7q7 -3 27 -1q16 0 30.5 0.5t25 -7.5t12.5 -26q5 -46 -66 -46q-40 0 -64 11t-39.5 37.5t-7.5 59.5q5 21 35 47q2 0 7 5 q1 2 8 8t11 10q12 11 34 29q13 10 34 21q13 8 38 23q4 4 19 14q26 22 45 30h-1l6 2h-1q14 7 24 7z" />
<glyph unicode="&#xe4d;" d="M-211 1155q39 2 72.5 -22t49.5 -58q14 -38 8 -71q-6 -47 -43 -77.5t-90 -30.5q-21 0 -42 6q-33 9 -62.5 37t-32.5 62q-3 36 19 73.5t49 54.5l8 3q12 8 25 13q17 9 39 10zM-240 1067l-2 -1q-10 -8 -20 -23.5t-9 -26.5q0 -13 13 -26t25 -16l-2 1q26 -6 45 2t24 24 q8 27 -8 52.5t-41 23.5q-12 -2 -25 -10z" />
<glyph unicode="&#xe4e;" d="M-326 1253q-30 24 -30 59q0 64 76.5 112t168.5 48q81 -2 127 -20l23 -9v-65q-46 15 -61.5 20t-39 9t-49.5 4q-59 0 -121.5 -31.5t-62.5 -67.5q0 -24 78 -43l22 -8v-51h-30q-3 0 -11 1t-12 1q-37 0 -80 -33.5t-43 -58.5q0 -32 28 -53t73 -21q82 0 116 61l11 17h63l-18 -45 q-51 -94 -172 -94q-71 0 -116.5 38.5t-45.5 96.5q0 81 106 133z" />
<glyph unicode="&#xe4f;" horiz-adv-x="634" d="M252 687q-2 0 -4 -2zM246 685q26 11 64 11h12q35 1 73 -16t63 -40q58 -52 73 -127q0 -9 4 -29q11 -64 13 -97q1 -13 1 -48q0 -50 -4 -68q-5 -26 -32 -71l1 1l-4 -8q-46 -80 -126 -108q-52 -18 -92 -18q-72 0 -135 59q-31 27 -55 72q-8 14 -10 18q-10 16 -14 26 q-19 54 -19 124q0 73 23 138q16 38 39 72q45 70 105 101q1 1 3 1t3 1l2 1q6 5 14 5h-2zM261 616h-1q-25 -9 -54 -40q-76 -85 -76 -211q0 -15 4 -47q5 -43 39 -100q23 -41 61 -63q30 -18 59 -18q13 0 39 6q65 16 108 78q2 4 12 18l-1 -1q5 8 6 12v-1q16 33 16 90q0 12 -2 40 q-8 117 -24 156q-17 35 -52 62.5t-73 26.5q-47 -2 -61 -8zM296 494q14 2 23 2q45 0 67.5 -30t22.5 -74q0 -37 -18 -72.5t-46 -49.5q-15 -7 -35 -7q-31 0 -62 18t-41 40q-9 19 -9 45q0 31 13 61.5t32 44.5q22 17 53 22z" />
<glyph unicode="&#xe50;" horiz-adv-x="696" d="M363 753q43 1 89.5 -20t74.5 -48q71 -66 87 -153q0 -2 0.5 -4t0.5 -4q16 -96 20 -148q3 -27 3 -62q0 -46 -7 -80q-8 -34 -43 -95q-59 -100 -150 -130q-61 -22 -114 -22q-88 0 -163 71q-43 39 -67 87q-5 10 -9 15q-11 17 -19 38q-24 70 -24 152q0 93 30 170h-1 q15 39 45 86q58 89 129 123q3 1 7 3l3 1l2 1q6 5 14 6h-2q27 10 72 12q3 0 11 0.5t11 0.5zM285 664q-40 -18 -70 -52q-42 -46 -68 -116.5t-26 -148.5q0 -29 4 -56q6 -55 49 -126q31 -53 77 -79q37 -22 77 -22q22 0 46 6q90 23 139 100q0 2 1 3q13 16 19 32q19 38 19 114 q0 30 -2 47q-9 145 -30 194q-22 44 -66.5 79.5t-91.5 33.5q-59 -2 -77 -9z" />
<glyph unicode="&#xe51;" horiz-adv-x="634" d="M542 477q24 -67 24 -152q0 -67 -15 -109q-2 -6 -7 -25q-11 -37 -16 -48v1q-28 -80 -83 -124l2 1l-7 -7q-8 -3 -15 -12l-1 -1v-1q-50 -50 -118 -82q-3 -1 -46 -24l-3 -3q-36 -27 -69 0q-11 48 45 78q3 2 10 4h-3q12 5 20 9q64 32 98 64h-1q2 2 8.5 8t9.5 9q53 47 69 79 q5 8 12 35v-1l3 12q5 19 11 28q1 4 3.5 10t3.5 9q6 23 6 84v9q-2 148 -90 228q-74 59 -145 59q-31 0 -58 -14v1q-77 -42 -86 -134q-8 -70 41 -164q44 -38 79 -39q23 -1 50 15l11 10q25 25 51 20q20 -7 21 -23.5t-9 -32t-23 -26.5h1q-1 -1 -19 -17q-33 -22 -77 -22 q-39 0 -77.5 16.5t-62.5 41.5q-29 32 -47 88.5t-18 113.5q0 60 21 108q24 54 74 92l-1 -1q72 56 155 51q49 -4 108 -38q60 -32 83 -55h-1q48 -45 78 -129z" />
<glyph unicode="&#xe52;" horiz-adv-x="812" d="M624 438q0 129 -19 192q-18 9 -38 9q-27 0 -44 -15q-19 -17 -21 -41q-1 -11 4 -41q0 -7 2 -23l3 -24q0 -3 1 -8q2 -18 2 -35q0 -26 -9.5 -41t-34.5 -14q-39 4 -39 85v11q0 1 -0.5 4t-0.5 4q-7 59 -12 73q-9 27 -28.5 45t-46.5 11h1q-23 -6 -37.5 -32.5t-17.5 -58.5 q-1 -7 1 -34q2 -26 2 -41q0 -27 -9 -42l-2 -3q-2 -3 -3 -4l-3.5 -3.5t-4 -3.5t-5 -2.5t-6.5 -1.5t-7 0.5t-9 2.5q-30 11 -32 63q-2 24 -2 37q0 112 57 166h-1q34 34 81 40q68 7 112 -46q1 1 2 3l1 2q14 16 41.5 31.5t53.5 18.5q33 2 69 -10t52 -34q15 -21 22 -66 q11 -77 11 -222q0 -111 -13 -198q0 -1 -0.5 -3.5t-0.5 -4.5q-3 -42 -11 -65q-14 -41 -42.5 -72t-69.5 -40q-9 -3 -37 -5q-12 -2 -27 -4q-39 -7 -111 -7q-61 0 -89 2q-88 5 -135 36q-78 61 -83 180q-1 21 -1 76t1 83q1 32 1 110q0 53 -1 79q-7 208 -88 288q-2 1 -8 5.5t-11 8 t-9 6.5l-1 1q-2 0 -2 1q-21 8 -24 29q0 8 -0.5 17.5t10 17t31.5 6.5q28 -1 62.5 -30.5t54.5 -57.5q64 -93 64 -291q0 -37 -1 -56q0 -69 1 -86q2 -50 2 -80v-64q0 -70 10 -112.5t41 -64.5q24 -17 130 -23q50 -2 71 -2q52 0 94 9q3 1 9.5 2t8.5 1q37 4 47 14q24 19 33 99 q0 2 0.5 8t1.5 8v-1q7 51 7 125v45q0 9 -0.5 28.5t-0.5 29.5z" />
<glyph unicode="&#xe53;" horiz-adv-x="729" d="M592 4h1q-25 -3 -36 5t-10.5 22t2.5 31l2 9q0 7 -2 50q-2 30 -2 48q0 13 2 41q1 8 1 24t1 24v237q0 112 -48 135q-12 6 -23 6q-24 0 -46 -20.5t-35 -46.5q5 -18 9 -67q1 -2 1.5 -8.5t0.5 -8.5v-3q1 -3 1 -4q1 -19 1 -36.5t-10.5 -32.5t-33.5 -21q-18 3 -27 13t-10 17 t-2 23v6q-7 111 -25 147q-8 15 -25.5 25.5t-36.5 10.5q-24 0 -38 -14q-28 -25 -32 -102q-2 -32 -7 -123q-1 -10 -1.5 -31t-0.5 -31q-1 -12 -2.5 -38t-1.5 -36q-4 -78 -3 -110q6 -62 33 -72q8 -4 42 5q21 8 39.5 7t26.5 -21q7 -37 -19.5 -54t-65.5 -18q-30 0 -60.5 12.5 t-44.5 31.5v-1q-29 36 -31 145q0 60 5 138q1 12 1 37q0 8 1 25t2 25q0 5 2 48.5t4 64.5v-1q5 66 31.5 117t72.5 69q24 8 51 8q77 0 120 -54q50 54 104 61h-1q79 9 142 -77q21 -45 21 -151q0 -32 1 -49q2 -48 2 -74q0 -35 -5 -183q0 -2 -0.5 -7t-0.5 -7q-1 -13 1 -40v1 q0 -6 0.5 -18t0.5 -19v-13q0 -16 -0.5 -26t-3.5 -22.5t-12 -20t-23 -8.5z" />
<glyph unicode="&#xe54;" horiz-adv-x="682" d="M733 729v1v-1zM424 134q24 19 30 22q-4 27 -4 81v28q0 1 -0.5 4t-0.5 5q-1 13 -1 23.5t1 24.5t4.5 22.5t10 17t16.5 7.5t24 -5h1q27 -10 25 -55q0 -2 -0.5 -6.5t-0.5 -6.5q7 -132 10 -159q5 -44 17 -57v1l-1 1q21 -16 23 -28q1 -15 -11.5 -31t-19.5 -19q-20 -6 -44 13.5 t-33 41.5q-4 6 -5 10q-1 -1 -4 -3q-119 -81 -203 -75q-49 6 -90.5 31.5t-66.5 63.5q-33 69 -33 246v117q0 60 25 106h-1q13 26 40.5 54.5t53.5 43.5q58 31 120 37q9 1 34 1q28 0 76 -4q21 -2 60 -2q40 0 62 7q76 23 125 88q22 31 42 34q15 2 30.5 -7t19.5 -17q9 -20 -22 -59 v-1v2q-18 -24 -49 -50.5t-57 -39.5q-75 -36 -150 -37q-28 -1 -79 3q-44 4 -66 4q-18 0 -27 -1q-32 -2 -80 -26v1q-30 -16 -54 -51t-28 -75q-3 -16 1 -50q2 -14 2 -20v-52v-24q0 -48 11 -110l-1 1q0 -2 1 -7t2 -7q0 -1 0.5 -3t0.5 -4q9 -53 15 -61q29 -46 96 -54q17 -2 29 1 h-1q48 12 104 47l-1 -1q12 8 22 18z" />
<glyph unicode="&#xe55;" horiz-adv-x="731" d="M769 770q9 -24 -20 -56l-3 -3l-1 -2q-18 -24 -48 -49t-55 -38q-71 -35 -153 -38q-32 0 -94 6h-11q-39 4 -65 1q-37 -2 -80 -25q-29 -15 -53.5 -51.5t-30.5 -75.5q0 -28 2 -46q1 -3 1.5 -11t0.5 -11v-52v-25q0 -36 10 -100q0 -2 1 -6.5t1.5 -8t0.5 -6.5v1q1 -5 1 -14 q8 -43 16 -57v1q31 -48 95 -56h-1q13 -2 31 2h-1q43 9 102 47q13 7 24 18q19 17 27 22q-3 26 -3 79v43q-1 12 -1 20t1 20t3 20t6 16t10 11t15.5 3t21.5 -5q27 -11 23 -53v-15q3 -80 10 -159q5 -44 17 -56q1 -1 5.5 -5t7.5 -7t6 -8.5t4 -11.5q1 -13 -12 -26.5t-24 -19.5 q-20 -3 -42.5 16.5t-30.5 39.5q-2 4 -4 10q-2 -1 -4 -3q-36 -25 -60 -38.5t-65.5 -27t-78.5 -9.5q-98 9 -155 93q-34 69 -34 243v122q0 63 22 106q13 26 41 54.5t54 43.5q41 24 88 33q-4 15 -4 35q0 44 29.5 76.5t70.5 37.5q63 8 106 -30q38 -33 38 -88q0 -17 -4 -30 q14 0 29 5q76 23 125 87q1 1 1 2q16 28 40 33q14 2 30.5 -7t20.5 -17zM419 668q3 0 7 2q13 10 16.5 16t1.5 17h1q-3 8 -11 18.5t-17 13.5q-26 10 -44 -7t-10 -42v1q5 -12 18 -16q2 0 7.5 -0.5t6.5 -0.5q4 0 12 -0.5t12 -1.5zM426 670q2 0 3 1l-4 -2q1 0 1 1z" />
<glyph unicode="&#xe56;" horiz-adv-x="681" d="M159 688q14 -42 19 -62q80 24 146 20q53 -3 132 -40h-1q70 -28 106 -70q48 -62 48 -219q0 -19 -2 -55v-18q0 -50 -7 -78q-10 -36 -40.5 -76.5t-60.5 -64.5q-65 -50 -146 -51q-82 -1 -153 41.5t-92 111.5q-7 27 -7 71q0 18 2 56q0 2 0.5 6t0.5 5q5 79 26 112l-1 -1l3 6 q11 23 17 29h1q5 7 9 10.5t11.5 7.5t17.5 3t22 -7q15 -13 16.5 -26.5t-3.5 -21t-16 -21.5q-5 -5 -9 -11q-8 -14 -14 -82q0 -1 -0.5 -4t-0.5 -4q-2 -30 -2 -42q0 -55 17 -88h-1q15 -30 60.5 -51t95.5 -21q27 0 55 10q33 14 66 48t44 65q4 18 6 32q3 34 3 77q0 138 -32 196 q-13 20 -45.5 40t-65.5 32q-47 14 -91 14q-25 0 -52 -6q-18 -3 -43 -14q-13 -6 -48 -17q-18 4 -26.5 11t-16.5 23q-4 17 -23 77q-10 28 -15 45t-9 37.5t-0.5 33t13.5 18.5h-2q15 9 27 9.5t19.5 -4.5t14.5 -18t10.5 -23t8.5 -27l9 -24h-1z" />
<glyph unicode="&#xe57;" horiz-adv-x="920" d="M877 813l4 -12q0 -21 -18 -45l-6 -8q-18 -41 -27 -105.5t-10 -107t-2 -131.5q0 -114 -4 -166q-3 -52 -26 -118v1q-16 -58 -56 -95h1q-51 -53 -114 -53q-33 0 -60 15q-12 21 -12 69v12q-1 31 -1 108q0 17 -0.5 53t-0.5 54q0 23 2 69t2 69q0 69 -18 105q-11 23 -26 31 q-9 5 -25 5q-26 0 -45 -11v1q-13 -10 -24 -32q-16 -29 -18 -42q-3 -21 5 -68q7 -66 6 -78q-4 -16 -21.5 -28t-31.5 -5h1q-11 4 -18 11t-10.5 17t-4.5 17.5t-1 20.5q0 8 -1 12q-1 6 -2 19.5t-1 19.5q-2 25 -3 34.5t-4 31.5t-7 32t-11 23.5t-17.5 20t-24.5 7.5q-45 7 -83 -40 q-16 -61 -16 -166q0 -31 2 -83v-116q0 -76 11 -97q5 -4 19 -9t21 -5t25 6q24 8 45 4q11 -11 13.5 -28t-5.5 -30q-8 -8 -18 -12q-24 -17 -61 -17q-29 0 -59.5 12t-43.5 29q-25 37 -27 108q-2 23 -2 79v170q0 95 14.5 154.5t61.5 91.5h-1q40 29 97 29q85 0 121 -53 q46 51 125 51q66 0 101 -45q23 -29 33 -64v1q10 -31 10 -101v-84q0 -98 -1 -148q-1 -49 -1 -149q51 8 79 74l-10 -20q0 2 4 11q3 8 3 9q0 2 2 8t2 8q20 58 20 127q0 20 2 64q4 53 3 82q-1 18 2 98q1 14 1 42q4 84 18 143q27 104 56 123l-1 -1q16 13 36.5 10t31.5 -19z" />
<glyph unicode="&#xe58;" horiz-adv-x="693" d="M705 779l8 -19q-7 -51 -61 -98q-16 -13 -22 -17q-4 -3 -19 -15q-2 -1 -13 -10q-26 -19 -35 -23q-36 -12 -96 -12q-29 0 -89 4q-62 4 -92 4q-78 0 -119 -21q-20 -13 -26 -22q-5 -10 -13 -32q-2 -8 -4 -13v2q-5 -13 -8 -23q-2 -24 -2 -43q0 -6 0.5 -18t0.5 -17 q0 -7 0.5 -20t0.5 -18q0 -76 3 -147q6 -98 19 -132h-1q11 -26 18 -30q18 -12 54 -6q44 11 49 84q1 5 1 17q0 13 1 20.5t3 18.5t6.5 16t11.5 9.5t18.5 3.5t27.5 -7q23 -29 16 -67v1q-2 -12 -2 -22q5 -35 25 -58v1q22 -20 67 -15q50 6 52 66q1 10 1 31q0 6 -3 84q0 2 -0.5 6 t-0.5 5t-2 11q-6 42 10 59q9 9 27.5 10t27.5 -5q22 -12 22 -85v-53v-40q0 -90 -36 -126q-37 -40 -99 -45h-9q-54 0 -74 8l1 -1q-29 12 -52 45q-44 -50 -99 -52q-68 0 -99 25h1q-15 11 -40 58q-24 60 -24 214v170q0 95 24 136q59 100 263 98q40 0 80 -5q48 -4 71 -4 q38 0 61 9q7 3 32 24l-1 -1l6 6l15 12l1 1q3 3 9 10q14 16 15 11q8 8 9 14q10 17 15 23.5t15 15t23 5.5t30 -16z" />
<glyph unicode="&#xe59;" horiz-adv-x="661" d="M195 675q73 0 124 -42q44 51 117 62q12 1 55 -1q26 -2 34 -2q17 0 37 5h-1q15 5 35 23l10 7q12 11 24.5 19t28 14.5t25 -3t9.5 -35.5q0 -15 -6.5 -27t-12 -16.5t-18.5 -14.5q-3 -2 -7 -6q-43 -34 -71 -42q-26 -6 -51 -6q-15 0 -39 2h-34q-36 0 -51 -8h1q-34 -22 -33 -34 q0 -2 11 -20q1 -3 6 -10l4 -7v2q15 -36 32 -83q1 -3 7 -20t10 -26q30 -82 48 -138q55 -160 80 -215v1l3 -6q9 -19 12 -27t5.5 -22.5t-7 -21.5t-30.5 -9q-21 0 -31 9t-17 27v-1l-3 6q-1 2 -10 16q-1 3 -6 10.5t-6 10.5q-3 13 -7 23v-1l-5 17q-2 6 -10 26q-3 9 -13 35.5 t-14 41.5v-1q-10 24 -21 60q-4 10 -13 35.5t-14 38.5v-1q-3 10 -10 27.5t-9 24.5q-16 46 -26.5 72t-30 62t-40.5 61l2 -1q-32 30 -84 30q-32 0 -43 -19q-16 -23 -21 -84q-4 -50 19 -155l-1 1q32 -136 81 -232q1 -1 4 -7.5t3 -7.5v2q23 -52 47 -55q12 2 21 4q19 3 30.5 3.5 t23 -6t14.5 -21.5q5 -30 -31 -45.5t-69 -12.5q-39 5 -67 35q-22 22 -40 53t-26.5 53.5t-23.5 67.5v-1q-1 3 -5.5 17.5t-7.5 22.5q-18 51 -34 121h1q-21 94 -22 134q-1 44 14 97.5t33 71.5v-1q39 43 111 43z" />
<glyph unicode="&#xe5a;" horiz-adv-x="799" d="M635 -17l-6 4q-11 10 -16.5 22.5t-5.5 25.5v30v4q1 65 1 196q0 132 2 198q1 29 -3 99q-4 62 -4 94v59q0 25 -1 38q0 1 -0.5 3t-0.5 3q-2 20 -2 39q0 60 35 65q17 2 27 -1.5t14 -16t5 -19t2 -28.5q0 -2 0.5 -4.5t0.5 -5.5q1 -4 2 -12.5t1 -11.5v1q2 -10 2 -18q1 -28 1 -88 q0 -55 2 -82q2 -40 2 -61q0 -7 -0.5 -21.5t-0.5 -22.5q0 -9 -0.5 -29.5t-0.5 -31.5v-49q0 -194 -3 -282q0 -3 0.5 -11.5t0.5 -12.5q4 -43 -8 -60q-21 -25 -46 -13zM525 4l-3 -4q-13 -12 -38 -12q-36 17 -32 81v19q0 204 -1 306q0 24 -0.5 56t-0.5 54q-5 -2 -23.5 -11.5 t-23.5 -11.5h1q-29 -17 -47.5 -25.5t-50.5 -15.5t-66 -4q-99 10 -163 124q-41 75 -41 173q0 61 19 111q42 18 73 -23q-10 -70 -10 -92q0 -48 15 -93q23 -67 64 -99v1q29 -23 54 -24q39 -4 105 33q12 7 31 17h-1q14 8 32 13q23 7 33 14q-1 22 -1.5 62.5t-0.5 53.5 q0 8 -0.5 22.5t-0.5 21.5q0 2 -0.5 9t-0.5 11q-2 59 10 78q18 9 31 10t20.5 -7.5t12.5 -17.5t6.5 -27.5t2 -29t0.5 -29.5v-8q0 -23 2 -57v1q2 -16 2 -32q1 -45 1 -153q0 -140 -1 -209q-2 -132 -2 -218q0 -4 0.5 -9t0.5 -8q2 -34 -8 -51z" />
<glyph unicode="&#xe5b;" horiz-adv-x="1352" d="M424 393q-34 -43 -80 -43q-40 0 -67 34t-27 81q0 46 26.5 79.5t67.5 33.5q32 0 53 -21q0 62 -28 97.5t-72 35.5q-61 0 -100.5 -64.5t-39.5 -168.5q0 -130 50.5 -208.5t130.5 -78.5q93 0 155 108t62 276v24l-2 36l31 39l102 -227l72 215l71 -190l64 155l72 -153l63 116 l64 -98l20 41h234l-50 -61h-145l-61 -80l-58 78l-71 -130l-64 134l-76 -170l-59 172l-66 -197l-88 191q-20 -157 -95 -250t-175 -93q-101 0 -169.5 91t-74.5 235q0 144 55 231t148 87q77 0 122 -59t45 -155q0 -90 -40 -143zM301 465q0 -25 12 -41t29 -16q20 0 31.5 16 t11.5 41t-11.5 41t-31.5 16q-17 0 -29 -16t-12 -41z" />
<glyph unicode="&#x200b;" />
<glyph unicode="&#x2013;" horiz-adv-x="621" d="M521 533h1q16 0 24 -17t2.5 -36t-22.5 -24q-59 -10 -170 -10h-95q-2 0 -7.5 -0.5t-9.5 -0.5q-44 -2 -84 -2q-46 0 -64 3q-36 3 -47 38q0 19 3.5 25t20.5 12h-1q21 6 67 6q24 0 60 -2q5 0 15.5 -0.5t12.5 -0.5q70 0 206 6q14 0 43.5 1t44.5 2z" />
<glyph unicode="&#x2014;" horiz-adv-x="885" d="M790 533h1q16 0 24 -17t2.5 -36t-22.5 -24q-65 -11 -243 -11q-16 0 -46 0.5t-42 0.5h-47q-93 -3 -215 -3q-83 0 -103 3q-35 3 -47 38q0 19 3.5 25t21.5 12h-1q16 5 128 5q28 0 78 -0.5t66 -0.5q10 0 22 -1h12q129 0 408 9z" />
<glyph unicode="&#x2018;" horiz-adv-x="272" d="M181 1017l1 -5q0 -73 -2 -110q0 -2 -0.5 -7.5t-0.5 -7.5q0 -19 -1 -31.5t-3.5 -29.5t-7 -25.5t-12.5 -15.5t-20.5 -5t-28.5 12q-9 23 -9 62q0 19 2 45v9v30q0 75 22 99q19 10 37 3.5t23 -23.5z" />
<glyph unicode="&#x2019;" horiz-adv-x="234" d="M139 1017l1 -5q0 -73 -2 -110q0 -2 -0.5 -7.5t-0.5 -7.5q0 -19 -1 -31.5t-3.5 -29.5t-7 -25.5t-12.5 -15.5t-20.5 -5t-28.5 12q-9 27 -9 62q0 19 2 45q0 1 0.5 4t0.5 5v30q0 75 21 99q19 10 37 3.5t23 -23.5z" />
<glyph unicode="&#x201a;" d="M-654 925h-1q-20 -2 -31.5 13.5t-4.5 35.5q5 14 36 35.5t48 26.5q38 13 98 13q78 0 162 -26q-8 61 9 69q19 8 32.5 7.5t20.5 -4.5t11 -17.5t5 -22.5t2 -29q0 -5 2 -17q0 -5 0.5 -16t0.5 -16q0 -52 -37 -58q-15 -2 -47 11q-6 3 -15 6q-83 33 -162 28q-45 -2 -65 -8h1 q-4 -2 -12.5 -7t-9.5 -6l1 1q-24 -16 -44 -19z" />
<glyph unicode="&#xf702;" d="M-654 925h-1q-20 -2 -31.5 13.5t-4.5 35.5q5 14 36 35.5t48 26.5q38 13 98 13q78 0 162 -26q-8 61 9 69q19 8 32.5 7.5t20.5 -4.5t11 -17.5t5 -22.5t2 -29q0 -5 2 -17q0 -5 0.5 -16t0.5 -16q0 -52 -37 -58q-15 -2 -47 11q-6 3 -15 6q-83 33 -162 28q-45 -2 -65 -8h1 q-4 -2 -12.5 -7t-9.5 -6l1 1q-24 -16 -44 -19z" />
<glyph unicode="&#x201e;" d="M-371 1025v-3q5 -1 15 -2.5t15 -2.5l7 -1v25q-1 13 -0.5 24t3.5 25.5t9.5 20.5t18 9.5t29.5 -8.5q23 -12 23 -60q0 -4 -0.5 -13.5t-0.5 -14.5q-2 -35 2 -58q0 -14 -10 -25q-23 -21 -76 -8q-4 1 -13.5 2.5t-13.5 2.5h1q-115 17 -180 16q-19 0 -59 -6q-49 -7 -72 -6 q-9 5 -14.5 25.5t2.5 40.5q82 27 178 27q46 0 54 -1q0 13 -1 19q-2 33 6 45q13 13 23.5 20t17.5 7.5t13 -3t9.5 -11.5t6 -17.5t4 -21.5t2 -23t1.5 -23v-1z" />
<glyph unicode="&#xf704;" d="M-371 1025v-3q5 -1 15 -2.5t15 -2.5l7 -1v25q-1 13 -0.5 24t3.5 25.5t9.5 20.5t18 9.5t29.5 -8.5q23 -12 23 -60q0 -4 -0.5 -13.5t-0.5 -14.5q-2 -35 2 -58q0 -14 -10 -25q-23 -21 -76 -8q-4 1 -13.5 2.5t-13.5 2.5h1q-115 17 -180 16q-19 0 -59 -6q-49 -7 -72 -6 q-9 5 -14.5 25.5t2.5 40.5q82 27 178 27q46 0 54 -1q0 13 -1 19q-2 33 6 45q13 13 23.5 20t17.5 7.5t13 -3t9.5 -11.5t6 -17.5t4 -21.5t2 -23t1.5 -23v-1z" />
<glyph unicode="&#x2020;" d="M-297 1234v1q19 -9 19 -68q0 -25 -2 -71q-2 -52 -2 -63q1 -18 -13.5 -28t-34.5 -10q-9 0 -14 1t-10.5 7.5t-7.5 19.5q-2 10 -2 42q0 31 5 103q0 1 0.5 3t0.5 3v9q1 22 2.5 32.5t7 21.5t18 9.5t33.5 -12.5z" />
<glyph unicode="&#xf705;" d="M-297 1234v1q19 -9 19 -68q0 -25 -2 -71q-2 -52 -2 -63q1 -18 -13.5 -28t-34.5 -10q-9 0 -14 1t-10.5 7.5t-7.5 19.5q-2 10 -2 42q0 31 5 103q0 1 0.5 3t0.5 3v9q1 22 2.5 32.5t7 21.5t18 9.5t33.5 -12.5z" />
<glyph unicode="&#x2021;" d="M-349 1118q-3 -14 -7 -21q92 17 137 76q17 19 46 9t29 -35q-2 -13 -10.5 -26t-15 -19t-21.5 -19q-4 -2 -5 -3q-25 -19 -60 -34h1q-76 -36 -140 -36q-34 0 -54 8q-14 7 -19.5 14t-2.5 16t5.5 13.5t11.5 16.5q1 2 2.5 4.5t2.5 4.5q15 28 15 46q0 4 -7 4q-3 0 -11 -6l2 1 q-15 -13 -36 -15q-34 0 -35 32t32 53.5t71 16.5q30 -5 52.5 -34t16.5 -67z" />
<glyph unicode="&#xf706;" d="M-349 1118q-3 -14 -7 -21q92 17 137 76q17 19 46 9t29 -35q-2 -13 -10.5 -26t-15 -19t-21.5 -19q-4 -2 -5 -3q-25 -19 -60 -34h1q-76 -36 -140 -36q-34 0 -54 8q-14 7 -19.5 14t-2.5 16t5.5 13.5t11.5 16.5q1 2 2.5 4.5t2.5 4.5q15 28 15 46q0 4 -7 4q-3 0 -11 -6l2 1 q-15 -13 -36 -15q-34 0 -35 32t32 53.5t71 16.5q30 -5 52.5 -34t16.5 -67z" />
<glyph unicode="&#x2022;" horiz-adv-x="702" d="M319 698h1q24 4 39 4q75 0 112 -50t37 -124q0 -66 -30 -125t-79 -82q-25 -11 -55 -11q-54 0 -105.5 30.5t-68.5 68.5q-15 31 -15 74q0 53 22 104.5t53 74.5q38 25 89 36z" />
<glyph unicode="&#x2026;" horiz-adv-x="978" d="M259 146l1 -3q18 -45 -13 -85.5t-78 -40.5q-13 0 -36 9q-23 11 -36 37.5t-8 51.5q8 37 45.5 62.5t75.5 9.5q18 -7 26 -15q18 -16 23 -26zM553 146l1 -3q18 -45 -13 -85.5t-78 -40.5q-16 0 -36 9q-23 11 -36 37.5t-8 51.5q8 37 45.5 62.5t75.5 9.5q18 -7 26 -15 q16 -14 23 -26zM856 146l1 -3q18 -45 -13 -85.5t-78 -40.5q-14 0 -36 9q-23 11 -35.5 37.5t-7.5 51.5q7 37 44.5 62.5t75.5 9.5q15 -5 27 -15q18 -18 22 -26z" />
<glyph unicode="&#x2030;" d="M-308 1153v-13q2 6 15 8q22 2 34 2q53 0 53 -38q-5 -55 -99 -48h-2q-4 -37 -18 -59t-43 -11q-29 12 -23 62q1 6 1 7h-60q-19 3 -26.5 12.5t-7.5 29.5q2 21 13.5 31t27.5 9.5t35 -0.5h1q6 0 8.5 -2t7.5 1q1 17 4.5 32t12 29t21 14.5t31.5 -12.5q16 -20 14 -54z" />
<glyph unicode="&#xf708;" d="M-308 1153v-13q2 6 15 8q22 2 34 2q53 0 53 -38q-5 -55 -99 -48h-2q-4 -37 -18 -59t-43 -11q-29 12 -23 62q1 6 1 7h-60q-19 3 -26.5 12.5t-7.5 29.5q2 21 13.5 31t27.5 9.5t35 -0.5h1q6 0 8.5 -2t7.5 1q1 17 4.5 32t12 29t21 14.5t31.5 -12.5q16 -20 14 -54z" />
<glyph unicode="&#x2039;" d="M-122 1204v1q18 -9 18 -68q0 -48 -1 -71q-2 -52 -2 -63q1 -18 -14 -28t-35 -10q-9 0 -14 1t-10.5 7.5t-7.5 19.5q-2 10 -2 42q0 31 5 103q0 1 0.5 3t0.5 3v9q1 22 2.5 33t7.5 21.5t18.5 9t33.5 -12.5z" />
<glyph unicode="&#xf70a;" d="M-122 1204v1q18 -9 18 -68q0 -48 -1 -71q-2 -52 -2 -63q1 -18 -14 -28t-35 -10q-9 0 -14 1t-10.5 7.5t-7.5 19.5q-2 10 -2 42q0 31 5 103q0 1 0.5 3t0.5 3v9q1 22 2.5 33t7.5 21.5t18.5 9t33.5 -12.5z" />
<glyph unicode="&#x203a;" d="M-297 1424v1q19 -11 19 -69q0 -23 -2 -71q-2 -50 -2 -62q1 -19 -13.5 -28.5t-34.5 -9.5q-9 0 -14 1t-10.5 7t-7.5 19q-2 11 -2 43t5 102q0 1 0.5 3t0.5 4v9q1 22 2.5 32.5t7 21t18 9.5t33.5 -12z" />
<glyph unicode="&#xf713;" d="M-297 1424v1q19 -11 19 -69q0 -23 -2 -71q-2 -50 -2 -62q1 -19 -13.5 -28.5t-34.5 -9.5q-9 0 -14 1t-10.5 7t-7.5 19q-2 11 -2 43t5 102q0 1 0.5 3t0.5 4v9q1 22 2.5 32.5t7 21t18 9.5t33.5 -12z" />
<glyph unicode="&#x20ac;" horiz-adv-x="613" d="M557 873v1q3 -6 3 -15q0 -5 -1.5 -9.5t-3 -7.5t-5 -7.5t-5.5 -7t-7.5 -6.5t-7 -5.5t-7.5 -5.5t-7 -5q-9 -6 -10 -7l2 1q-18 -13 -21 -16q-7 -5 -19 -14q58 -75 58 -181q0 -88 -34 -218l1 1q-2 -10 -7 -30t-6 -25q-18 -113 -50 -187v-1l-5 -10v1q-14 -31 -23.5 -49 t-32.5 -38t-51 -20q-42 0 -69.5 41.5t-32.5 74.5v-3q-13 45 -24 124q-5 40 -11 69l1 -1q-20 90 -83 153v-1q-16 16 -16 33q0 16 12 25t27 9q18 0 40 -15q52 -41 74.5 -107t38.5 -174q4 -39 18 -93t30 -54q28 0 83 263q32 148 32 246q0 79 -39.5 128t-109.5 49 q-48 0 -99.5 -32.5t-77.5 -79.5l1 1q-18 -33 -42 -33q-16 0 -26 11.5t-10 26.5q0 20 18.5 51t30.5 42v-1q36 39 92.5 66t121.5 27q59 0 116 -34q7 6 24 23q51 47 82 47q28 0 37 -21z" />
<glyph unicode="&#xf700;" horiz-adv-x="613" d="M557 873v1q3 -6 3 -15q0 -5 -1.5 -9.5t-3 -7.5t-5 -7.5t-5.5 -7t-7.5 -6.5t-7 -5.5t-7.5 -5.5t-7 -5q-9 -6 -10 -7l2 1q-18 -13 -21 -16q-7 -5 -19 -14q58 -75 58 -181q0 -88 -34 -218l1 1q-2 -10 -7 -30t-6 -25q-18 -113 -50 -187v-1l-5 -10v1q-14 -31 -23.5 -49 t-32.5 -38t-51 -20q-42 0 -69.5 41.5t-32.5 74.5v-3q-13 45 -24 124q-5 40 -11 69l1 -1q-20 90 -83 153v-1q-16 16 -16 33q0 16 12 25t27 9q18 0 40 -15q52 -41 74.5 -107t38.5 -174q4 -39 18 -93t30 -54q28 0 83 263q32 148 32 246q0 79 -39.5 128t-109.5 49 q-48 0 -99.5 -32.5t-77.5 -79.5l1 1q-18 -33 -42 -33q-16 0 -26 11.5t-10 26.5q0 20 18.5 51t30.5 42v-1q36 39 92.5 66t121.5 27q59 0 116 -34q7 6 24 23q51 47 82 47q28 0 37 -21z" />
<glyph unicode="&#x2122;" d="M-396 1155q38 2 72.5 -22.5t49.5 -57.5q14 -38 8 -71q-6 -47 -43 -77.5t-90 -30.5q-21 0 -42 6q-33 9 -62.5 37t-32.5 62q-3 36 19 73.5t49 54.5l8 3q12 8 25 13q17 9 39 10zM-425 1067l-2 -1q-10 -8 -20 -23.5t-9 -26.5q0 -13 12.5 -26t25.5 -16l-2 1q26 -6 45 2t24 24 q8 27 -8 52.5t-41 23.5q-12 -2 -25 -10z" />
<glyph unicode="&#xf711;" d="M-396 1155q38 2 72.5 -22.5t49.5 -57.5q14 -38 8 -71q-6 -47 -43 -77.5t-90 -30.5q-21 0 -42 6q-33 9 -62.5 37t-32.5 62q-3 36 19 73.5t49 54.5l8 3q12 8 25 13q17 9 39 10zM-425 1067l-2 -1q-10 -8 -20 -23.5t-9 -26.5q0 -13 12.5 -26t25.5 -16l-2 1q26 -6 45 2t24 24 q8 27 -8 52.5t-41 23.5q-12 -2 -25 -10z" />
<glyph unicode="&#x25cc;" horiz-adv-x="641" d="M330 147q12 0 21 -8.5t9 -20.5q0 -11 -9.5 -19.5t-20.5 -8.5q-12 0 -20 8.5t-8 19.5q0 12 8 20.5t20 8.5zM558 377q12 0 20.5 -8.5t8.5 -19.5q0 -30 -29 -30q-12 0 -20 8.5t-8 21.5q0 11 8 19.5t20 8.5zM101 377q10 0 19 -8.5t9 -19.5q0 -13 -8.5 -21.5t-19.5 -8.5 q-13 0 -21.5 8.5t-8.5 21.5q0 11 8.5 19.5t21.5 8.5zM330 606q12 0 21 -8t9 -20t-9 -20t-21 -8t-20 8t-8 20t8 20t20 8zM169 538q12 0 20.5 -8t8.5 -21q0 -12 -8.5 -20.5t-20.5 -8.5t-20.5 8.5t-8.5 20.5q0 13 8.5 21t20.5 8zM491 538q11 0 19.5 -8t8.5 -21q0 -12 -8 -20.5 t-20 -8.5t-21 8.5t-9 20.5t9 20.5t21 8.5zM491 216q11 0 19.5 -8t8.5 -20t-8 -20.5t-20 -8.5t-21 8.5t-9 20.5t9 20t21 8zM169 216q12 0 20.5 -8t8.5 -20t-8.5 -20.5t-20.5 -8.5t-20.5 8.5t-8.5 20.5t8.5 20t20.5 8z" />
<glyph unicode="&#x25fc;" horiz-adv-x="800" d="M0 800h800v-800h-800v800z" />
<glyph unicode="&#xf701;" d="M-674 923h-3q-25 -4 -36.5 13t-1.5 35q19 29 70 48q77 28 162 28q60 0 109 -14q103 -25 108 -62q1 -14 -10 -29.5t-24 -17.5q-25 -1 -44 10l1 -1l-11 6h2q-63 26 -144 26q-34 0 -68 -6q-25 -4 -61 -18q-2 -1 -15.5 -6t-33.5 -12z" />
<glyph unicode="&#xf70c;" d="M-315 1166h-1h1zM-235 1198q47 0 84 -39t40 -92q17 6 30 17q9 7 19 12.5t23.5 9.5t24 -4t14.5 -29q4 -22 -27.5 -49t-57.5 -35q-18 -6 -44 -6q-48 0 -59 27v-1q-9 16 -7 44q0 17 -1 20q-4 17 -16 28.5t-27 10.5q-13 -2 -18 -9q-3 -5 -5 -15h1q-3 -14 -5.5 -20.5t-12 -14 t-24.5 -8.5q-10 0 -19 5.5t-12.5 9.5t-12.5 16q-10 17 -16 19q-25 8 -41.5 -8t-14.5 -41q1 -6 4 -12q9 -17 9 -37t-20 -30q-30 -9 -52.5 24.5t-22.5 69.5q1 48 38.5 83.5t88.5 35.5q26 0 58 -14q1 -2 4 -4q1 1 1 2q2 2 3 4.5t2 4.5t4 4t10 4q26 17 57 17z" />
<glyph unicode="&#xf70e;" d="M-90 1253l7 -1q36 -13 36 -38q0 -28 -65 -64h1l-9 -4.5t-9 -5.5q-14 -8 -19 -12q-54 -32 -89 -62h1q-4 -4 -10 -8h1q-24 -19 -24 -23q-2 -4 3 -6q5 -3 27 -1q16 0 30.5 0.5t25 -7.5t12.5 -26q5 -47 -66 -47q-40 0 -64 12q-24 11 -39.5 37t-7.5 59q3 18 35 48q1 0 3 2t3 2 q5 4 19 18q27 25 34 30q24 14 35 21q7 4 20 12t17 10q3 3 9.5 7.5t9.5 7.5q34 25 46 29h-1l6 3l-1 -1q11 8 23 8z" />
<glyph unicode="&#xf70f;" horiz-adv-x="905" d="M816 159q-1 -16 -13.5 -44t-24.5 -44q-12 -15 -31.5 -31t-60.5 -32.5t-86 -16.5q-52 0 -87 21t-52 60.5t-23 81.5t-6 98q0 9 0.5 63.5t0.5 90.5v148q0 103 -19 157.5t-79 72.5q-29 11 -70 11q-47 0 -90 -24t-43 -56q0 -12 13 -53q8 -26 11 -34q15 -63 15 -139 q0 -52 -10 -158q-2 -17 -4 -103q-3 -104 -14 -161.5t-43 -57.5q-41 0 -41 60q0 15 2 31q25 248 25 376q0 80 -13 133l-1 5l-5 12.5l-5 12.5l1 -1q-16 36 -16 65t10.5 58.5t27.5 46.5q25 25 81.5 47.5t106.5 22.5q36 0 102 -18h-1q56 -17 89.5 -58.5t44.5 -91t11 -117.5 q0 -7 -0.5 -36.5t-0.5 -47.5q-1 -33 -1 -84v-121q0 -41 1 -67t3.5 -55t8.5 -46.5t16 -32.5t25 -21.5t35 -6.5q45 0 80 23.5t44 70.5q6 37 6 104q0 37 -2 103q-2 54 -2 80q0 101 -1 160q-2 132 -2 195q0 58 39 58q30 0 39 -45.5t9 -127.5v-107q0 -15 0.5 -54t0.5 -63t0.5 -76 t0.5 -77q0 -82 -2 -160z" />
<glyph unicode="&#xf715;" d="M-471 1367h-1h1zM-390 1398q47 0 83.5 -39t39.5 -92q15 5 31 17q9 7 19 13t23.5 10t24 -4t14.5 -29q4 -22 -28 -49.5t-57 -34.5q-19 -6 -45 -6q-47 0 -59 26q-8 16 -6 44q0 16 -1 20q-4 17 -16 28.5t-27 10.5q-13 -2 -18 -10q-4 -4 -6 -15h1q-3 -14 -5.5 -21t-11.5 -14 t-24 -7q-23 0 -44 31q-14 18 -16 19q-26 7 -42.5 -8.5t-13.5 -40.5q0 -2 4 -13q9 -17 8.5 -36.5t-20.5 -29.5q-30 -9 -52 25t-22 69q0 48 37.5 83.5t89.5 35.5q23 0 57 -14q1 -2 4 -5q2 2 2 3q2 2 3.5 5.5t4 6t11.5 5.5q25 16 57 16z" />
<glyph unicode="&#xf718;" d="M-289 -351v3q0 27 31.5 55t68.5 31q60 4 81.5 -37t21.5 -115q0 -23 -2 -63q0 -5 -0.5 -17.5t-0.5 -15.5q-10 -28 -34.5 -33t-37.5 15q-13 18 -10 87v24q2 69 -13 71q-7 2 -20 -6q-4 -3 -9 -11q-1 -1 -4.5 -5.5t-4.5 -5.5l-5 -5t-5.5 -4t-6.5 -3t-8 -1.5t-9 0.5 q-29 6 -33 36z" />
<glyph unicode="&#xf719;" d="M-303 -508l-1 2q-13 28 -15 100q0 20 1 27q2 25 7 26q-8 0 -16 -14q-1 -1 -3.5 -4.5t-3.5 -4.5t-3.5 -4.5t-3.5 -3.5t-4 -3t-4.5 -2.5t-5 -1.5t-5.5 -1t-6 0q-39 9 -39 45q0 23 16 44q14 16 41.5 24t49.5 8q25 0 43.5 -18.5t18.5 -52.5q0 -13 -2 -35q-2 -24 -2 -39 q0 -46 15 -56q6 -5 16 -5t24 7q13 10 17 47q0 19 -2 57v-1q-2 24 -2 37q0 25 6 37l-1 -1q6 16 28 23.5t39 -5.5q14 -12 17 -46q2 -18 2 -40q0 -33 -4 -69q-6 -43 -34.5 -80.5t-69.5 -44.5q-36 -4 -69.5 13.5t-44.5 34.5z" />
<glyph unicode="&#xf71a;" d="M-90 -301l1 -2q17 -46 -14 -86.5t-77 -40.5q-15 0 -37 9q-23 11 -35.5 37.5t-7.5 51.5q7 38 44.5 63t75.5 9q18 -6 27 -15q20 -19 23 -26z" />
<glyph horiz-adv-x="780" d="M675 364q0 -11 0.5 -17.5t0.5 -9v-3.5q1 -3 1 -42q0 -62 -5.5 -107.5t-21 -87t-47 -63t-78.5 -21.5q-26 0 -48 13t-32.5 25.5t-27.5 37.5q-1 1 -2.5 3.5t-2.5 3.5q-22 -38 -48.5 -59t-70.5 -21q-36 0 -66 18q-48 33 -64 72t-16 100v44q0 10 -0.5 28t-0.5 27v199 q0 7 -0.5 19.5t-0.5 18.5v41q0 7 0.5 21t0.5 21q0 165 -41 165q-3 0 -10 -24q-5 -16 -9 -24.5t-13.5 -16.5t-23.5 -8t-26.5 10.5t-13.5 29.5q2 55 27.5 83t69.5 28q33 0 62 -22t42 -52q19 -47 19 -173v-17q0 -17 -0.5 -53t-0.5 -54q-1 -37 -1 -112q0 -40 1 -59q0 -9 0.5 -27 t0.5 -27q0 -38 1.5 -60t7 -54t21 -47.5t39.5 -15.5q35 0 55.5 53.5t26.5 117.5v6q-2 65 49 65q23 0 29.5 -10t6.5 -38q0 -24 -6 -56q-6 -28 -6 -39q0 -32 28 -64.5t55 -32.5q14 0 24 8.5t16 27t9.5 34.5t5 44.5t1.5 42v41.5q0 25 -3 76v-1q-4 32 -4 73q0 6 0.5 17.5 t0.5 17.5v27q0 29 -10 65t-22 50q-9 11 -55 21q-34 7 -52.5 18t-18.5 34q0 22 10 26q3 1 11.5 4t11.5 4q34 13 51.5 21t42 23.5t36 37t12.5 49.5l-1 4q0 4 -1 10.5t-1 9.5q-3 11 -3 29q0 16 13 22t26 6q51 0 51 -76q0 -116 -105 -168q33 -18 48 -42q38 -68 38 -190v-25 q0 -18 3 -31q4 -22 4 -43z" />
<glyph horiz-adv-x="529" d="M368 8l-7 -8q-16 -9 -39 -2q-21 8 -25 49q-1 25 2 55q2 16 2 23q1 10 1 27q0 20 -2 58q-1 24 -1 79q0 17 2 49q2 22 2 30q0 6 -0.5 19t-0.5 19q-1 12 -1 42q0 28 2 78q2 63 1 92q0 59 -13 81h1q-19 29 -60.5 45t-87.5 16q-51 0 -84 -19q-3 -1 -17 -13l2 1l-11.5 -11.5 t-10.5 -7t-15.5 -3.5t-17.5 7q-18 15 -20.5 31t8.5 29.5t25 23.5t32 19q53 26 95 27q110 3 191 -56q13 -11 18 -14q11 -9 19 -20l-1 2q27 -33 29 -118q1 -13 1 -45q0 -43 -1 -65t-1 -65v-55v-29q0 -73 -3 -164q-1 -15 1 -43q1 -16 1 -45q0 -10 -2 -24l-3 -25q0 -3 0.5 -8 t0.5 -7q2 -34 -12 -55zM-348 1155q38 2 71.5 -22t49.5 -58q14 -33 9 -71q-7 -48 -44 -78t-90 -30q-21 0 -42 6q-33 9 -62.5 37t-32.5 62q-3 36 19.5 73.5t49.5 54.5l7 3q12 8 25 13q17 9 40 10zM-378 1067l-2 -1q-10 -8 -20 -23.5t-9 -26.5q0 -13 13 -26t25 -16l-2 1 q26 -6 45.5 2t23.5 24q9 26 -7.5 52t-41.5 24q-12 -2 -25 -10z" />
<glyph d="M-544 1253q-31 24 -31 59q0 66 77 113t169 47q70 0 127 -20l20 -9v-65q-57 20 -84.5 26.5t-62.5 6.5q-60 0 -122.5 -31t-62.5 -68q0 -24 76 -43l25 -8v-51h-33q-1 0 -8.5 1t-11.5 1q-41 0 -82 -34t-41 -58q0 -32 28 -53t70 -21q85 0 119 61l8 17h65l-20 -45 q-51 -94 -172 -94q-71 0 -116.5 38.5t-45.5 96.5q0 81 109 133z" />
</font>
</defs>
</svg>
